<svg width="460" height="460" viewBox="0 0 460 460" fill="none" xmlns="http://www.w3.org/2000/svg">
<g filter="url(#filter0_i_1_5)">
<rect x="90" y="70" width="280" height="30" fill="#E39F1F"/>
</g>
<g filter="url(#filter1_i_1_5)">
<rect x="90" y="60" width="280" height="10" fill="#D9D9D9"/>
</g>
<g filter="url(#filter2_i_1_5)">
<rect x="60" y="10" width="340" height="50" rx="4" fill="#544E4E"/>
</g>
<g filter="url(#filter3_i_1_5)">
<rect x="130" y="89.5062" width="200" height="360.494" fill="#E39F1F"/>
</g>
<g filter="url(#filter4_i_1_5)">
<path d="M130 89.5062L56.3374 85.357C52.8966 85.1632 50 87.9011 50 91.3475V416.945C50 419.475 51.5859 421.732 53.9652 422.59L130 450V89.5062Z" fill="#E39F1F"/>
</g>
<g filter="url(#filter5_i_1_5)">
<path d="M330 89.5062L403.663 85.357C407.103 85.1632 410 87.9011 410 91.3475V416.945C410 419.475 408.414 421.732 406.035 422.59L330 450V89.5062Z" fill="#E39F1F"/>
</g>
<mask id="mask0_1_5" style="mask-type:alpha" maskUnits="userSpaceOnUse" x="79" y="119" width="303" height="303">
<path d="M130.5 122.433L79 119V405.683L130.5 421.133V122.433Z" fill="#FFD74B"/>
<path d="M330 122.433L381.5 119V405.683L330 421.133V122.433Z" fill="#FFD74B"/>
<mask id="path-9-outside-1_1_5" maskUnits="userSpaceOnUse" x="129" y="122" width="202" height="299" fill="black">
<rect fill="white" x="129" y="122" width="202" height="299"/>
<path d="M130 122H330V421H130V122Z"/>
</mask>
<path d="M130 122H330V421H130V122Z" fill="#FFD74B"/>
<path d="M329 122V421H331V122H329ZM131 421V122H129V421H131Z" fill="black" fill-opacity="0.1" mask="url(#path-9-outside-1_1_5)"/>
</mask>
<g mask="url(#mask0_1_5)">
<path d="M130.5 122.433L79 119V405.683L130.5 421.133V122.433Z" fill="#FFD74B"/>
<path d="M330 122.433L381.5 119V405.683L330 421.133V122.433Z" fill="#FFD74B"/>
<path d="M130 122H330V421H130V122Z" fill="#FFD74B"/>
<rect x="130" y="122" width="200" height="299" fill="white" fill-opacity="0.7"/>
<path d="M120.633 121.781L123.689 116.399H129.8L132.856 121.781L129.8 127.163H123.689L120.633 121.781Z" fill="#FFD74B"/>
<path d="M131.023 127.995L134.078 122.614H140.19L143.245 127.995L140.19 133.377H134.078L131.023 127.995Z" fill="#FFD74B"/>
<path d="M120.633 134.21L123.689 128.828H129.8L132.856 134.21L129.8 139.591H123.689L120.633 134.21Z" fill="#FFD74B"/>
<path d="M131.023 140.424L134.078 135.042H140.19L143.245 140.424L140.19 145.806H134.078L131.023 140.424Z" fill="#FFD74B"/>
<path d="M120.633 146.638L123.689 141.257H129.8L132.856 146.638L129.8 152.02H123.689L120.633 146.638Z" fill="#FFD74B"/>
<path d="M131.023 152.853L134.078 147.471H140.19L143.245 152.853L140.19 158.234H134.078L131.023 152.853Z" fill="#FFD74B"/>
<path d="M120.633 159.067L123.689 153.685H129.8L132.856 159.067L129.8 164.449H123.689L120.633 159.067Z" fill="#FFD74B"/>
<path d="M141.412 121.781L144.468 116.399H150.579L153.635 121.781L150.579 127.163H144.468L141.412 121.781Z" fill="#FFD74B"/>
<path d="M151.801 127.995L154.857 122.614H160.968L164.024 127.995L160.968 133.377H154.857L151.801 127.995Z" fill="#FFD74B"/>
<path d="M141.412 134.21L144.468 128.828H150.579L153.635 134.21L150.579 139.591H144.468L141.412 134.21Z" fill="#FFD74B"/>
<path d="M151.801 140.424L154.857 135.042H160.968L164.024 140.424L160.968 145.806H154.857L151.801 140.424Z" fill="#FFD74B"/>
<path d="M141.412 146.638L144.468 141.257H150.579L153.635 146.638L150.579 152.02H144.468L141.412 146.638Z" fill="#FFD74B"/>
<path d="M151.801 152.853L154.857 147.471H160.968L164.024 152.853L160.968 158.234H154.857L151.801 152.853Z" fill="#FFD74B"/>
<path d="M162.19 121.781L165.246 116.399H171.357L174.413 121.781L171.357 127.163H165.246L162.19 121.781Z" fill="#FFD74B"/>
<path d="M172.58 127.995L175.635 122.614H181.747L184.802 127.995L181.747 133.377H175.635L172.58 127.995Z" fill="#FFD74B"/>
<path d="M162.19 134.21L165.246 128.828H171.357L174.413 134.21L171.357 139.591H165.246L162.19 134.21Z" fill="#FFD74B"/>
<path d="M172.58 140.424L175.635 135.042H181.747L184.802 140.424L181.747 145.806H175.635L172.58 140.424Z" fill="#FFD74B"/>
<path d="M162.19 146.638L165.246 141.257H171.357L174.413 146.638L171.357 152.02H165.246L162.19 146.638Z" fill="#FFD74B"/>
<path d="M172.58 152.853L175.635 147.471H181.747L184.802 152.853L181.747 158.234H175.635L172.58 152.853Z" fill="#FFD74B"/>
<path d="M182.969 121.781L186.025 116.399H192.136L195.192 121.781L192.136 127.163H186.025L182.969 121.781Z" fill="#FFD74B"/>
<path d="M193.358 127.995L196.414 122.614H202.525L205.581 127.995L202.525 133.377H196.414L193.358 127.995Z" fill="#FFD74B"/>
<path d="M182.969 134.21L186.025 128.828H192.136L195.192 134.21L192.136 139.591H186.025L182.969 134.21Z" fill="#FFD74B"/>
<path d="M193.358 140.424L196.414 135.042H202.525L205.581 140.424L202.525 145.806H196.414L193.358 140.424Z" fill="#FFD74B"/>
<path d="M182.969 146.638L186.025 141.257H192.136L195.192 146.638L192.136 152.02H186.025L182.969 146.638Z" fill="#FFD74B"/>
<path d="M193.358 152.853L196.414 147.471H202.525L205.581 152.853L202.525 158.234H196.414L193.358 152.853Z" fill="#FFD74B"/>
<path d="M203.747 121.781L206.803 116.399H212.914L215.97 121.781L212.914 127.163H206.803L203.747 121.781Z" fill="#FFD74B"/>
<path d="M214.137 127.995L217.192 122.614H223.304L226.359 127.995L223.304 133.377H217.192L214.137 127.995Z" fill="#FFD74B"/>
<path d="M203.747 134.21L206.803 128.828H212.914L215.97 134.21L212.914 139.591H206.803L203.747 134.21Z" fill="#FFD74B"/>
<path d="M214.137 140.424L217.192 135.042H223.304L226.359 140.424L223.304 145.806H217.192L214.137 140.424Z" fill="#FFD74B"/>
<path d="M203.747 146.638L206.803 141.257H212.914L215.97 146.638L212.914 152.02H206.803L203.747 146.638Z" fill="#FFD74B"/>
<path d="M214.137 152.853L217.192 147.471H223.304L226.359 152.853L223.304 158.234H217.192L214.137 152.853Z" fill="#FFD74B"/>
<path d="M224.526 121.781L227.582 116.399H233.693L236.749 121.781L233.693 127.163H227.582L224.526 121.781Z" fill="#FFD74B"/>
<path d="M234.915 127.995L237.971 122.614H244.082L247.138 127.995L244.082 133.377H237.971L234.915 127.995Z" fill="#FFD74B"/>
<path d="M224.526 134.21L227.582 128.828H233.693L236.749 134.21L233.693 139.591H227.582L224.526 134.21Z" fill="#FFD74B"/>
<path d="M234.915 140.424L237.971 135.042H244.082L247.138 140.424L244.082 145.806H237.971L234.915 140.424Z" fill="#FFD74B"/>
<path d="M224.526 146.638L227.582 141.257H233.693L236.749 146.638L233.693 152.02H227.582L224.526 146.638Z" fill="#FFD74B"/>
<path d="M234.915 152.853L237.971 147.471H244.082L247.138 152.853L244.082 158.234H237.971L234.915 152.853Z" fill="#FFD74B"/>
<path d="M245.305 121.781L248.36 116.399H254.472L257.527 121.781L254.472 127.163H248.36L245.305 121.781Z" fill="#FFD74B"/>
<path d="M255.694 127.995L258.749 122.614H264.861L267.916 127.995L264.861 133.377H258.749L255.694 127.995Z" fill="#FFD74B"/>
<path d="M245.305 134.21L248.36 128.828H254.472L257.527 134.21L254.472 139.591H248.36L245.305 134.21Z" fill="#FFD74B"/>
<path d="M255.694 140.424L258.749 135.042H264.861L267.916 140.424L264.861 145.806H258.749L255.694 140.424Z" fill="#FFD74B"/>
<path d="M245.305 146.638L248.36 141.257H254.472L257.527 146.638L254.472 152.02H248.36L245.305 146.638Z" fill="#FFD74B"/>
<path d="M255.694 152.853L258.749 147.471H264.861L267.916 152.853L264.861 158.234H258.749L255.694 152.853Z" fill="#FFD74B"/>
<path d="M266.083 121.781L269.139 116.399H275.25L278.306 121.781L275.25 127.163H269.139L266.083 121.781Z" fill="#FFD74B"/>
<path d="M276.472 127.995L279.528 122.614H285.639L288.695 127.995L285.639 133.377H279.528L276.472 127.995Z" fill="#FFD74B"/>
<path d="M266.083 134.21L269.139 128.828H275.25L278.306 134.21L275.25 139.591H269.139L266.083 134.21Z" fill="#FFD74B"/>
<path d="M276.472 140.424L279.528 135.042H285.639L288.695 140.424L285.639 145.806H279.528L276.472 140.424Z" fill="#FFD74B"/>
<path d="M266.083 146.638L269.139 141.257H275.25L278.306 146.638L275.25 152.02H269.139L266.083 146.638Z" fill="#FFD74B"/>
<path d="M276.472 152.853L279.528 147.471H285.639L288.695 152.853L285.639 158.234H279.528L276.472 152.853Z" fill="#FFD74B"/>
<path d="M286.862 121.781L289.917 116.399H296.029L299.084 121.781L296.029 127.163H289.917L286.862 121.781Z" fill="#FFD74B"/>
<path d="M297.251 127.995L300.307 122.614H306.418L309.474 127.995L306.418 133.377H300.307L297.251 127.995Z" fill="#FFD74B"/>
<path d="M286.862 134.21L289.917 128.828H296.029L299.084 134.21L296.029 139.591H289.917L286.862 134.21Z" fill="#FFD74B"/>
<path d="M297.251 140.424L300.307 135.042H306.418L309.474 140.424L306.418 145.806H300.307L297.251 140.424Z" fill="#FFD74B"/>
<path d="M286.862 146.638L289.917 141.257H296.029L299.084 146.638L296.029 152.02H289.917L286.862 146.638Z" fill="#FFD74B"/>
<path d="M297.251 152.853L300.307 147.471H306.418L309.474 152.853L306.418 158.234H300.307L297.251 152.853Z" fill="#FFD74B"/>
<path d="M307.64 121.781L310.696 116.399H316.807L319.863 121.781L316.807 127.163H310.696L307.64 121.781Z" fill="#FFD74B"/>
<path d="M318.029 127.995L321.085 122.614H327.196L330.252 127.995L327.196 133.377H321.085L318.029 127.995Z" fill="#FFD74B"/>
<path d="M307.64 134.21L310.696 128.828H316.807L319.863 134.21L316.807 139.591H310.696L307.64 134.21Z" fill="#FFD74B"/>
<path d="M318.029 140.424L321.085 135.042H327.196L330.252 140.424L327.196 145.806H321.085L318.029 140.424Z" fill="#FFD74B"/>
<path d="M307.64 146.638L310.696 141.257H316.807L319.863 146.638L316.807 152.02H310.696L307.64 146.638Z" fill="#FFD74B"/>
<path d="M318.029 152.853L321.085 147.471H327.196L330.252 152.853L327.196 158.234H321.085L318.029 152.853Z" fill="#FFD74B"/>
<path d="M328.419 121.781L331.474 116.399H337.586L340.641 121.781L337.586 127.163H331.474L328.419 121.781Z" fill="#FFD74B"/>
<path d="M328.419 134.21L331.474 128.828H337.586L340.641 134.21L337.586 139.591H331.474L328.419 134.21Z" fill="#FFD74B"/>
<path d="M328.419 146.638L331.474 141.257H337.586L340.641 146.638L337.586 152.02H331.474L328.419 146.638Z" fill="#FFD74B"/>
<path d="M328.419 159.067L331.474 153.685H337.586L340.641 159.067L337.586 164.449H331.474L328.419 159.067Z" fill="#FFD74B"/>
<path d="M340.641 420.069L337.586 425.451H331.474L328.419 420.069L331.474 414.687H337.586L340.641 420.069Z" fill="#FFD74B"/>
<path d="M330.252 413.855L327.196 419.236H321.085L318.029 413.855L321.085 408.473H327.196L330.252 413.855Z" fill="#FFD74B"/>
<path d="M340.641 407.64L337.586 413.022H331.474L328.419 407.64L331.474 402.259H337.586L340.641 407.64Z" fill="#FFD74B"/>
<path d="M330.252 401.426L327.196 406.808H321.085L318.029 401.426L321.085 396.044H327.196L330.252 401.426Z" fill="#FFD74B"/>
<path d="M340.641 395.212L337.586 400.593H331.474L328.419 395.212L331.474 389.83H337.586L340.641 395.212Z" fill="#FFD74B"/>
<path d="M330.252 388.997L327.196 394.379H321.085L318.029 388.997L321.085 383.616H327.196L330.252 388.997Z" fill="#FFD74B"/>
<path d="M340.641 382.783L337.586 388.165H331.474L328.419 382.783L331.474 377.401H337.586L340.641 382.783Z" fill="#FFD74B"/>
<path d="M319.863 420.069L316.807 425.451H310.696L307.64 420.069L310.696 414.687H316.807L319.863 420.069Z" fill="#FFD74B"/>
<path d="M309.474 413.855L306.418 419.236H300.307L297.251 413.855L300.307 408.473H306.418L309.474 413.855Z" fill="#FFD74B"/>
<path d="M319.863 407.64L316.807 413.022H310.696L307.64 407.64L310.696 402.259H316.807L319.863 407.64Z" fill="#FFD74B"/>
<path d="M309.474 401.426L306.418 406.808H300.307L297.251 401.426L300.307 396.044H306.418L309.474 401.426Z" fill="#FFD74B"/>
<path d="M319.863 395.212L316.807 400.593H310.696L307.64 395.212L310.696 389.83H316.807L319.863 395.212Z" fill="#FFD74B"/>
<path d="M309.474 388.997L306.418 394.379H300.307L297.251 388.997L300.307 383.616H306.418L309.474 388.997Z" fill="#FFD74B"/>
<path d="M299.084 420.069L296.029 425.451H289.917L286.862 420.069L289.917 414.687H296.029L299.084 420.069Z" fill="#FFD74B"/>
<path d="M288.695 413.855L285.639 419.236H279.528L276.472 413.855L279.528 408.473H285.639L288.695 413.855Z" fill="#FFD74B"/>
<path d="M299.084 407.64L296.029 413.022H289.917L286.862 407.64L289.917 402.259H296.029L299.084 407.64Z" fill="#FFD74B"/>
<path d="M288.695 401.426L285.639 406.808H279.528L276.472 401.426L279.528 396.044H285.639L288.695 401.426Z" fill="#FFD74B"/>
<path d="M299.084 395.212L296.029 400.593H289.917L286.862 395.212L289.917 389.83H296.029L299.084 395.212Z" fill="#FFD74B"/>
<path d="M288.695 388.997L285.639 394.379H279.528L276.472 388.997L279.528 383.616H285.639L288.695 388.997Z" fill="#FFD74B"/>
<path d="M278.306 420.069L275.25 425.451H269.139L266.083 420.069L269.139 414.687H275.25L278.306 420.069Z" fill="#FFD74B"/>
<path d="M267.916 413.855L264.861 419.236H258.749L255.694 413.855L258.749 408.473H264.861L267.916 413.855Z" fill="#FFD74B"/>
<path d="M278.306 407.64L275.25 413.022H269.139L266.083 407.64L269.139 402.259H275.25L278.306 407.64Z" fill="#FFD74B"/>
<path d="M267.916 401.426L264.861 406.808H258.749L255.694 401.426L258.749 396.044H264.861L267.916 401.426Z" fill="#FFD74B"/>
<path d="M278.306 395.212L275.25 400.593H269.139L266.083 395.212L269.139 389.83H275.25L278.306 395.212Z" fill="#FFD74B"/>
<path d="M267.916 388.997L264.861 394.379H258.749L255.694 388.997L258.749 383.616H264.861L267.916 388.997Z" fill="#FFD74B"/>
<path d="M257.527 420.069L254.472 425.451H248.36L245.305 420.069L248.36 414.687H254.472L257.527 420.069Z" fill="#FFD74B"/>
<path d="M247.138 413.855L244.082 419.236H237.971L234.915 413.855L237.971 408.473H244.082L247.138 413.855Z" fill="#FFD74B"/>
<path d="M257.527 407.64L254.472 413.022H248.36L245.305 407.64L248.36 402.259H254.472L257.527 407.64Z" fill="#FFD74B"/>
<path d="M247.138 401.426L244.082 406.808H237.971L234.915 401.426L237.971 396.044H244.082L247.138 401.426Z" fill="#FFD74B"/>
<path d="M257.527 395.212L254.472 400.593H248.36L245.305 395.212L248.36 389.83H254.472L257.527 395.212Z" fill="#FFD74B"/>
<path d="M247.138 388.997L244.082 394.379H237.971L234.915 388.997L237.971 383.616H244.082L247.138 388.997Z" fill="#FFD74B"/>
<path d="M236.749 420.069L233.693 425.451H227.582L224.526 420.069L227.582 414.687H233.693L236.749 420.069Z" fill="#FFD74B"/>
<path d="M226.359 413.855L223.304 419.236H217.192L214.137 413.855L217.192 408.473H223.304L226.359 413.855Z" fill="#FFD74B"/>
<path d="M236.749 407.64L233.693 413.022H227.582L224.526 407.64L227.582 402.259H233.693L236.749 407.64Z" fill="#FFD74B"/>
<path d="M226.359 401.426L223.304 406.808H217.192L214.137 401.426L217.192 396.044H223.304L226.359 401.426Z" fill="#FFD74B"/>
<path d="M236.749 395.212L233.693 400.593H227.582L224.526 395.212L227.582 389.83H233.693L236.749 395.212Z" fill="#FFD74B"/>
<path d="M226.359 388.997L223.304 394.379H217.192L214.137 388.997L217.192 383.616H223.304L226.359 388.997Z" fill="#FFD74B"/>
<path d="M215.97 420.069L212.914 425.451H206.803L203.747 420.069L206.803 414.687H212.914L215.97 420.069Z" fill="#FFD74B"/>
<path d="M205.581 413.855L202.525 419.236H196.414L193.358 413.855L196.414 408.473H202.525L205.581 413.855Z" fill="#FFD74B"/>
<path d="M215.97 407.64L212.914 413.022H206.803L203.747 407.64L206.803 402.259H212.914L215.97 407.64Z" fill="#FFD74B"/>
<path d="M205.581 401.426L202.525 406.808H196.414L193.358 401.426L196.414 396.044H202.525L205.581 401.426Z" fill="#FFD74B"/>
<path d="M215.97 395.212L212.914 400.593H206.803L203.747 395.212L206.803 389.83H212.914L215.97 395.212Z" fill="#FFD74B"/>
<path d="M205.581 388.997L202.525 394.379H196.414L193.358 388.997L196.414 383.616H202.525L205.581 388.997Z" fill="#FFD74B"/>
<path d="M195.192 420.069L192.136 425.451H186.025L182.969 420.069L186.025 414.687H192.136L195.192 420.069Z" fill="#FFD74B"/>
<path d="M184.802 413.855L181.747 419.236H175.635L172.58 413.855L175.635 408.473H181.747L184.802 413.855Z" fill="#FFD74B"/>
<path d="M195.192 407.64L192.136 413.022H186.025L182.969 407.64L186.025 402.259H192.136L195.192 407.64Z" fill="#FFD74B"/>
<path d="M184.802 401.426L181.747 406.808H175.635L172.58 401.426L175.635 396.044H181.747L184.802 401.426Z" fill="#FFD74B"/>
<path d="M195.192 395.212L192.136 400.593H186.025L182.969 395.212L186.025 389.83H192.136L195.192 395.212Z" fill="#FFD74B"/>
<path d="M184.802 388.997L181.747 394.379H175.635L172.58 388.997L175.635 383.616H181.747L184.802 388.997Z" fill="#FFD74B"/>
<path d="M174.413 420.069L171.357 425.451H165.246L162.19 420.069L165.246 414.687H171.357L174.413 420.069Z" fill="#FFD74B"/>
<path d="M164.024 413.855L160.968 419.236H154.857L151.801 413.855L154.857 408.473H160.968L164.024 413.855Z" fill="#FFD74B"/>
<path d="M174.413 407.64L171.357 413.022H165.246L162.19 407.64L165.246 402.259H171.357L174.413 407.64Z" fill="#FFD74B"/>
<path d="M164.024 401.426L160.968 406.808H154.857L151.801 401.426L154.857 396.044H160.968L164.024 401.426Z" fill="#FFD74B"/>
<path d="M174.413 395.212L171.357 400.593H165.246L162.19 395.212L165.246 389.83H171.357L174.413 395.212Z" fill="#FFD74B"/>
<path d="M164.024 388.997L160.968 394.379H154.857L151.801 388.997L154.857 383.616H160.968L164.024 388.997Z" fill="#FFD74B"/>
<path d="M153.635 420.069L150.579 425.451H144.468L141.412 420.069L144.468 414.687H150.579L153.635 420.069Z" fill="#FFD74B"/>
<path d="M143.245 413.855L140.19 419.236H134.078L131.023 413.855L134.078 408.473H140.19L143.245 413.855Z" fill="#FFD74B"/>
<path d="M153.635 407.64L150.579 413.022H144.468L141.412 407.64L144.468 402.259H150.579L153.635 407.64Z" fill="#FFD74B"/>
<path d="M143.245 401.426L140.19 406.808H134.078L131.023 401.426L134.078 396.044H140.19L143.245 401.426Z" fill="#FFD74B"/>
<path d="M153.635 395.212L150.579 400.593H144.468L141.412 395.212L144.468 389.83H150.579L153.635 395.212Z" fill="#FFD74B"/>
<path d="M143.245 388.997L140.19 394.379H134.078L131.023 388.997L134.078 383.616H140.19L143.245 388.997Z" fill="#FFD74B"/>
<path d="M132.856 420.069L129.8 425.451H123.689L120.633 420.069L123.689 414.687H129.8L132.856 420.069Z" fill="#FFD74B"/>
<path d="M132.856 407.64L129.8 413.022H123.689L120.633 407.64L123.689 402.259H129.8L132.856 407.64Z" fill="#FFD74B"/>
<path d="M132.856 395.212L129.8 400.593H123.689L120.633 395.212L123.689 389.83H129.8L132.856 395.212Z" fill="#FFD74B"/>
<path d="M132.856 382.783L129.8 388.165H123.689L120.633 382.783L123.689 377.401H129.8L132.856 382.783Z" fill="#FFD74B"/>
<path d="M164.193 208.29C161.853 208.29 159.91 207.845 158.364 206.956C156.817 206.067 155.667 204.829 154.913 203.244C154.159 201.639 153.782 199.764 153.782 197.618C153.782 195.53 154.178 193.693 154.971 192.108C155.763 190.503 156.943 189.256 158.509 188.367C160.094 187.458 162.037 187.004 164.338 187.004C165.884 187.004 167.17 187.149 168.195 187.439C169.219 187.729 169.983 188.125 170.486 188.628C171.008 189.131 171.269 189.691 171.269 190.31C171.269 190.967 170.969 191.518 170.37 191.963C169.79 192.408 168.978 192.63 167.934 192.63C167.934 191.915 167.798 191.267 167.528 190.687C167.276 190.088 166.88 189.614 166.339 189.266C165.817 188.918 165.121 188.744 164.251 188.744C162.743 188.744 161.534 189.092 160.626 189.788C159.717 190.484 159.05 191.489 158.625 192.804C158.219 194.119 158.016 195.723 158.016 197.618C158.016 199.513 158.228 201.117 158.654 202.432C159.098 203.727 159.804 204.723 160.771 205.419C161.737 206.096 163.023 206.434 164.628 206.434C165.072 206.434 165.498 206.415 165.904 206.376C166.329 206.337 166.725 206.27 167.093 206.173V201.765C167.093 201.224 166.996 200.808 166.803 200.518C166.629 200.228 166.377 200.025 166.049 199.909C165.739 199.793 165.362 199.735 164.918 199.735H164.628V198.314H173.154V199.735H172.864C172.477 199.735 172.148 199.803 171.878 199.938C171.607 200.054 171.394 200.267 171.24 200.576C171.104 200.866 171.037 201.301 171.037 201.881V206.811C169.973 207.314 168.891 207.691 167.789 207.942C166.687 208.174 165.488 208.29 164.193 208.29ZM174.576 208V206.579H174.663C175.108 206.579 175.494 206.531 175.823 206.434C176.171 206.337 176.442 206.144 176.635 205.854C176.848 205.545 176.954 205.09 176.954 204.491V195.849C176.954 195.269 176.857 194.844 176.664 194.573C176.471 194.283 176.21 194.099 175.881 194.022C175.552 193.925 175.175 193.877 174.75 193.877H174.663V192.456H179.999L180.55 194.95H180.695C180.946 194.37 181.227 193.867 181.536 193.442C181.865 193.017 182.28 192.698 182.783 192.485C183.286 192.253 183.943 192.137 184.755 192.137C185.857 192.137 186.669 192.33 187.191 192.717C187.732 193.104 188.003 193.664 188.003 194.399C188.003 195.172 187.723 195.791 187.162 196.255C186.601 196.7 185.78 196.922 184.697 196.922C184.697 196.381 184.649 195.946 184.552 195.617C184.475 195.269 184.33 195.008 184.117 194.834C183.904 194.66 183.614 194.573 183.247 194.573C182.725 194.573 182.3 194.766 181.971 195.153C181.642 195.52 181.381 195.984 181.188 196.545C181.014 197.106 180.888 197.686 180.811 198.285C180.753 198.884 180.724 199.387 180.724 199.793V204.636C180.724 205.197 180.821 205.622 181.014 205.912C181.207 206.183 181.468 206.366 181.797 206.463C182.126 206.54 182.483 206.579 182.87 206.579H183.769V208H174.576ZM196.092 208.29C194.565 208.29 193.395 207.836 192.583 206.927C191.771 205.999 191.365 204.549 191.365 202.577V195.907C191.365 195.327 191.278 194.892 191.104 194.602C190.93 194.312 190.679 194.119 190.35 194.022C190.041 193.925 189.664 193.877 189.219 193.877H189.161V192.456H195.135V201.997C195.135 202.848 195.203 203.573 195.338 204.172C195.493 204.771 195.754 205.235 196.121 205.564C196.488 205.893 196.991 206.057 197.629 206.057C198.344 206.057 198.924 205.873 199.369 205.506C199.814 205.119 200.142 204.588 200.355 203.911C200.568 203.234 200.674 202.442 200.674 201.533V195.82C200.674 195.24 200.568 194.815 200.355 194.544C200.162 194.273 199.901 194.099 199.572 194.022C199.243 193.925 198.876 193.877 198.47 193.877H198.383V192.456H204.444V204.723C204.444 205.284 204.531 205.699 204.705 205.97C204.898 206.221 205.159 206.386 205.488 206.463C205.817 206.54 206.174 206.579 206.561 206.579H206.735V208H201.399L200.848 205.825H200.703C200.413 206.347 200.094 206.772 199.746 207.101C199.398 207.41 199.031 207.652 198.644 207.826C198.257 208 197.851 208.116 197.426 208.174C197.001 208.251 196.556 208.29 196.092 208.29ZM208.106 208V206.579H208.222C208.667 206.579 209.063 206.531 209.411 206.434C209.759 206.337 210.03 206.144 210.223 205.854C210.436 205.564 210.542 205.129 210.542 204.549V195.791C210.542 195.23 210.445 194.815 210.252 194.544C210.059 194.273 209.798 194.099 209.469 194.022C209.16 193.925 208.792 193.877 208.367 193.877H208.251V192.456H213.819L214.196 194.631H214.341C214.728 193.896 215.143 193.355 215.588 193.007C216.052 192.64 216.545 192.398 217.067 192.282C217.608 192.166 218.188 192.108 218.807 192.108C220.315 192.108 221.494 192.553 222.345 193.442C223.196 194.331 223.621 195.762 223.621 197.734V204.52C223.621 205.119 223.698 205.564 223.853 205.854C224.027 206.144 224.259 206.337 224.549 206.434C224.858 206.531 225.226 206.579 225.651 206.579H225.767V208H219.851V198.285C219.851 197.028 219.648 196.062 219.242 195.385C218.855 194.689 218.179 194.341 217.212 194.341C216.477 194.341 215.897 194.554 215.472 194.979C215.066 195.404 214.766 195.965 214.573 196.661C214.399 197.357 214.312 198.111 214.312 198.923V204.665C214.312 205.226 214.399 205.641 214.573 205.912C214.766 206.183 215.027 206.366 215.356 206.463C215.685 206.54 216.062 206.579 216.487 206.579H216.603V208H208.106ZM227.222 208V206.579H227.338C227.783 206.579 228.179 206.531 228.527 206.434C228.875 206.337 229.146 206.144 229.339 205.854C229.552 205.564 229.658 205.129 229.658 204.549V195.791C229.658 195.23 229.561 194.815 229.368 194.544C229.175 194.273 228.914 194.099 228.585 194.022C228.276 193.925 227.908 193.877 227.483 193.877H227.367V192.456H232.935L233.312 194.631H233.457C233.844 193.896 234.259 193.355 234.704 193.007C235.168 192.64 235.661 192.398 236.183 192.282C236.724 192.166 237.304 192.108 237.923 192.108C239.431 192.108 240.61 192.553 241.461 193.442C242.312 194.331 242.737 195.762 242.737 197.734V204.52C242.737 205.119 242.814 205.564 242.969 205.854C243.143 206.144 243.375 206.337 243.665 206.434C243.974 206.531 244.342 206.579 244.767 206.579H244.883V208H238.967V198.285C238.967 197.028 238.764 196.062 238.358 195.385C237.971 194.689 237.295 194.341 236.328 194.341C235.593 194.341 235.013 194.554 234.588 194.979C234.182 195.404 233.882 195.965 233.689 196.661C233.515 197.357 233.428 198.111 233.428 198.923V204.665C233.428 205.226 233.515 205.641 233.689 205.912C233.882 206.183 234.143 206.366 234.472 206.463C234.801 206.54 235.178 206.579 235.603 206.579H235.719V208H227.222ZM254.342 208.29C252.022 208.29 250.234 207.594 248.977 206.202C247.74 204.791 247.121 202.828 247.121 200.315C247.121 197.608 247.721 195.569 248.919 194.196C250.137 192.804 251.839 192.108 254.023 192.108C256.053 192.108 257.639 192.698 258.779 193.877C259.939 195.037 260.519 196.767 260.519 199.068V200.489H250.949C250.988 201.842 251.162 202.944 251.471 203.795C251.8 204.626 252.254 205.245 252.834 205.651C253.434 206.057 254.159 206.26 255.009 206.26C255.686 206.26 256.285 206.163 256.807 205.97C257.349 205.757 257.813 205.487 258.199 205.158C258.586 204.81 258.895 204.433 259.127 204.027C259.34 204.124 259.504 204.288 259.62 204.52C259.756 204.733 259.823 204.984 259.823 205.274C259.823 205.757 259.62 206.231 259.214 206.695C258.828 207.159 258.228 207.546 257.416 207.855C256.624 208.145 255.599 208.29 254.342 208.29ZM256.662 198.749C256.662 197.763 256.575 196.903 256.401 196.168C256.227 195.433 255.947 194.873 255.56 194.486C255.193 194.08 254.69 193.877 254.052 193.877C253.434 193.877 252.902 194.061 252.457 194.428C252.032 194.795 251.694 195.346 251.442 196.081C251.21 196.796 251.065 197.686 251.007 198.749H256.662ZM268.6 214.96C266.415 214.96 264.782 214.602 263.699 213.887C262.636 213.191 262.104 212.176 262.104 210.842C262.104 210.127 262.259 209.527 262.568 209.044C262.877 208.561 263.322 208.184 263.902 207.913C264.482 207.623 265.149 207.439 265.903 207.362C265.439 207.169 265.004 206.869 264.598 206.463C264.192 206.038 263.989 205.496 263.989 204.839C263.989 204.24 264.192 203.708 264.598 203.244C265.023 202.78 265.594 202.345 266.309 201.939C265.458 201.61 264.772 201.059 264.25 200.286C263.728 199.513 263.467 198.575 263.467 197.473C263.467 195.791 263.941 194.476 264.888 193.529C265.855 192.582 267.324 192.108 269.296 192.108C269.992 192.108 270.64 192.205 271.239 192.398C271.858 192.572 272.351 192.785 272.718 193.036C273.008 192.727 273.298 192.456 273.588 192.224C273.878 191.973 274.187 191.779 274.516 191.644C274.864 191.509 275.241 191.441 275.647 191.441C276.304 191.441 276.788 191.605 277.097 191.934C277.426 192.243 277.59 192.611 277.59 193.036C277.59 193.442 277.455 193.809 277.184 194.138C276.913 194.467 276.43 194.631 275.734 194.631C275.734 194.302 275.637 194.032 275.444 193.819C275.251 193.606 274.999 193.5 274.69 193.5C274.497 193.5 274.303 193.529 274.11 193.587C273.917 193.645 273.752 193.722 273.617 193.819C273.984 194.244 274.294 194.766 274.545 195.385C274.796 196.004 274.922 196.69 274.922 197.444C274.922 198.894 274.468 200.102 273.559 201.069C272.65 202.016 271.229 202.49 269.296 202.49C269.083 202.49 268.803 202.48 268.455 202.461C268.126 202.422 267.865 202.393 267.672 202.374C267.363 202.529 267.092 202.741 266.86 203.012C266.628 203.283 266.512 203.611 266.512 203.998C266.512 204.307 266.628 204.549 266.86 204.723C267.111 204.897 267.508 204.984 268.049 204.984H271.471C272.708 204.984 273.714 205.168 274.487 205.535C275.26 205.883 275.831 206.386 276.198 207.043C276.565 207.7 276.749 208.474 276.749 209.363C276.749 211.103 276.082 212.466 274.748 213.452C273.433 214.457 271.384 214.96 268.6 214.96ZM268.658 213.336C269.895 213.336 270.881 213.21 271.616 212.959C272.351 212.708 272.873 212.35 273.182 211.886C273.511 211.422 273.675 210.861 273.675 210.204C273.675 209.489 273.453 208.996 273.008 208.725C272.583 208.474 271.945 208.348 271.094 208.348H267.933C267.488 208.348 267.044 208.406 266.599 208.522C266.174 208.638 265.816 208.86 265.526 209.189C265.255 209.537 265.12 210.059 265.12 210.755C265.12 211.296 265.236 211.76 265.468 212.147C265.719 212.534 266.106 212.824 266.628 213.017C267.15 213.23 267.827 213.336 268.658 213.336ZM269.209 200.895C269.789 200.895 270.234 200.769 270.543 200.518C270.872 200.247 271.094 199.851 271.21 199.329C271.345 198.807 271.413 198.169 271.413 197.415C271.413 196.642 271.345 195.984 271.21 195.443C271.075 194.882 270.843 194.457 270.514 194.167C270.205 193.877 269.76 193.732 269.18 193.732C268.639 193.732 268.204 193.887 267.875 194.196C267.546 194.486 267.314 194.911 267.179 195.472C267.044 196.013 266.976 196.671 266.976 197.444C266.976 198.179 267.044 198.807 267.179 199.329C267.334 199.832 267.575 200.218 267.904 200.489C268.233 200.76 268.668 200.895 269.209 200.895ZM286.486 208.29C284.166 208.29 282.378 207.594 281.121 206.202C279.884 204.791 279.265 202.828 279.265 200.315C279.265 197.608 279.864 195.569 281.063 194.196C282.281 192.804 283.982 192.108 286.167 192.108C288.197 192.108 289.782 192.698 290.923 193.877C292.083 195.037 292.663 196.767 292.663 199.068V200.489H283.093C283.132 201.842 283.306 202.944 283.615 203.795C283.944 204.626 284.398 205.245 284.978 205.651C285.577 206.057 286.302 206.26 287.153 206.26C287.83 206.26 288.429 206.163 288.951 205.97C289.492 205.757 289.956 205.487 290.343 205.158C290.73 204.81 291.039 204.433 291.271 204.027C291.484 204.124 291.648 204.288 291.764 204.52C291.899 204.733 291.967 204.984 291.967 205.274C291.967 205.757 291.764 206.231 291.358 206.695C290.971 207.159 290.372 207.546 289.56 207.855C288.767 208.145 287.743 208.29 286.486 208.29ZM288.806 198.749C288.806 197.763 288.719 196.903 288.545 196.168C288.371 195.433 288.091 194.873 287.704 194.486C287.337 194.08 286.834 193.877 286.196 193.877C285.577 193.877 285.046 194.061 284.601 194.428C284.176 194.795 283.837 195.346 283.586 196.081C283.354 196.796 283.209 197.686 283.151 198.749H288.806ZM294.682 208V206.579H294.769C295.214 206.579 295.601 206.531 295.929 206.434C296.277 206.337 296.548 206.144 296.741 205.854C296.954 205.545 297.06 205.09 297.06 204.491V195.849C297.06 195.269 296.964 194.844 296.77 194.573C296.577 194.283 296.316 194.099 295.987 194.022C295.659 193.925 295.282 193.877 294.856 193.877H294.769V192.456H300.105L300.656 194.95H300.801C301.053 194.37 301.333 193.867 301.642 193.442C301.971 193.017 302.387 192.698 302.889 192.485C303.392 192.253 304.049 192.137 304.861 192.137C305.963 192.137 306.775 192.33 307.297 192.717C307.839 193.104 308.109 193.664 308.109 194.399C308.109 195.172 307.829 195.791 307.268 196.255C306.708 196.7 305.886 196.922 304.803 196.922C304.803 196.381 304.755 195.946 304.658 195.617C304.581 195.269 304.436 195.008 304.223 194.834C304.011 194.66 303.721 194.573 303.353 194.573C302.831 194.573 302.406 194.766 302.077 195.153C301.749 195.52 301.488 195.984 301.294 196.545C301.12 197.106 300.995 197.686 300.917 198.285C300.859 198.884 300.83 199.387 300.83 199.793V204.636C300.83 205.197 300.927 205.622 301.12 205.912C301.314 206.183 301.575 206.366 301.903 206.463C302.232 206.54 302.59 206.579 302.976 206.579H303.875V208H294.682Z" fill="#2A13B8"/>
<path d="M153.818 257V255.04H155.058C155.511 255.04 155.924 254.987 156.298 254.88C156.698 254.747 157.004 254.493 157.218 254.12C157.458 253.72 157.578 253.133 157.578 252.36V232.92C157.578 232.173 157.458 231.627 157.218 231.28C156.978 230.907 156.671 230.667 156.298 230.56C155.924 230.453 155.511 230.4 155.058 230.4H153.818V228.44H166.778V230.4H165.538C165.084 230.4 164.658 230.467 164.258 230.6C163.884 230.707 163.578 230.947 163.338 231.32C163.124 231.693 163.018 232.28 163.018 233.08V240.96H174.418V233.08C174.418 232.28 174.298 231.693 174.058 231.32C173.844 230.947 173.551 230.707 173.178 230.6C172.804 230.467 172.378 230.4 171.898 230.4H170.658V228.44H183.618V230.4H182.378C181.951 230.4 181.538 230.467 181.138 230.6C180.738 230.707 180.431 230.947 180.218 231.32C180.004 231.693 179.898 232.28 179.898 233.08V252.56C179.898 253.28 180.004 253.827 180.218 254.2C180.458 254.547 180.764 254.773 181.138 254.88C181.538 254.987 181.951 255.04 182.378 255.04H183.618V257H170.658V255.04H171.898C172.378 255.04 172.804 254.987 173.178 254.88C173.551 254.747 173.844 254.493 174.058 254.12C174.298 253.72 174.418 253.133 174.418 252.36V243.24H163.018V252.36C163.018 253.133 163.124 253.72 163.338 254.12C163.578 254.493 163.884 254.747 164.258 254.88C164.658 254.987 165.084 255.04 165.538 255.04H166.778V257H153.818ZM195.441 257.4C193.335 257.4 191.721 256.773 190.601 255.52C189.481 254.24 188.921 252.24 188.921 249.52V240.32C188.921 239.52 188.801 238.92 188.561 238.52C188.321 238.12 187.975 237.853 187.521 237.72C187.095 237.587 186.575 237.52 185.961 237.52H185.881V235.56H194.121V248.72C194.121 249.893 194.215 250.893 194.401 251.72C194.615 252.547 194.975 253.187 195.481 253.64C195.988 254.093 196.681 254.32 197.561 254.32C198.548 254.32 199.348 254.067 199.961 253.56C200.575 253.027 201.028 252.293 201.321 251.36C201.615 250.427 201.761 249.333 201.761 248.08V240.2C201.761 239.4 201.615 238.813 201.321 238.44C201.055 238.067 200.695 237.827 200.241 237.72C199.788 237.587 199.281 237.52 198.721 237.52H198.601V235.56H206.961V252.48C206.961 253.253 207.081 253.827 207.321 254.2C207.588 254.547 207.948 254.773 208.401 254.88C208.855 254.987 209.348 255.04 209.881 255.04H210.121V257H202.761L202.001 254H201.801C201.401 254.72 200.961 255.307 200.481 255.76C200.001 256.187 199.495 256.52 198.961 256.76C198.428 257 197.868 257.16 197.281 257.24C196.695 257.347 196.081 257.4 195.441 257.4ZM212.012 257V255.04H212.172C212.786 255.04 213.332 254.973 213.812 254.84C214.292 254.707 214.666 254.44 214.932 254.04C215.226 253.64 215.372 253.04 215.372 252.24V240.16C215.372 239.387 215.239 238.813 214.972 238.44C214.706 238.067 214.346 237.827 213.892 237.72C213.466 237.587 212.959 237.52 212.372 237.52H212.212V235.56H219.892L220.412 238.56H220.612C221.146 237.547 221.719 236.8 222.332 236.32C222.972 235.813 223.652 235.48 224.372 235.32C225.119 235.16 225.919 235.08 226.772 235.08C228.852 235.08 230.479 235.693 231.652 236.92C232.826 238.147 233.412 240.12 233.412 242.84V252.2C233.412 253.027 233.519 253.64 233.732 254.04C233.972 254.44 234.292 254.707 234.692 254.84C235.119 254.973 235.626 255.04 236.212 255.04H236.372V257H228.212V243.6C228.212 241.867 227.932 240.533 227.372 239.6C226.839 238.64 225.906 238.16 224.572 238.16C223.559 238.16 222.759 238.453 222.172 239.04C221.612 239.627 221.199 240.4 220.932 241.36C220.692 242.32 220.572 243.36 220.572 244.48V252.4C220.572 253.173 220.692 253.747 220.932 254.12C221.199 254.493 221.559 254.747 222.012 254.88C222.466 254.987 222.986 255.04 223.572 255.04H223.732V257H212.012ZM238.379 257V255.04H238.539C239.153 255.04 239.699 254.973 240.179 254.84C240.659 254.707 241.033 254.44 241.299 254.04C241.593 253.64 241.739 253.04 241.739 252.24V240.16C241.739 239.387 241.606 238.813 241.339 238.44C241.073 238.067 240.713 237.827 240.259 237.72C239.833 237.587 239.326 237.52 238.739 237.52H238.579V235.56H246.259L246.779 238.56H246.979C247.513 237.547 248.086 236.8 248.699 236.32C249.339 235.813 250.019 235.48 250.739 235.32C251.486 235.16 252.286 235.08 253.139 235.08C255.219 235.08 256.846 235.693 258.019 236.92C259.193 238.147 259.779 240.12 259.779 242.84V252.2C259.779 253.027 259.886 253.64 260.099 254.04C260.339 254.44 260.659 254.707 261.059 254.84C261.486 254.973 261.993 255.04 262.579 255.04H262.739V257H254.579V243.6C254.579 241.867 254.299 240.533 253.739 239.6C253.206 238.64 252.273 238.16 250.939 238.16C249.926 238.16 249.126 238.453 248.539 239.04C247.979 239.627 247.566 240.4 247.299 241.36C247.059 242.32 246.939 243.36 246.939 244.48V252.4C246.939 253.173 247.059 253.747 247.299 254.12C247.566 254.493 247.926 254.747 248.379 254.88C248.833 254.987 249.353 255.04 249.939 255.04H250.099V257H238.379ZM275.787 257.4C272.587 257.4 270.12 256.44 268.387 254.52C266.68 252.573 265.827 249.867 265.827 246.4C265.827 242.667 266.653 239.853 268.307 237.96C269.987 236.04 272.333 235.08 275.347 235.08C278.147 235.08 280.333 235.893 281.907 237.52C283.507 239.12 284.307 241.507 284.307 244.68V246.64H271.107C271.16 248.507 271.4 250.027 271.827 251.2C272.28 252.347 272.907 253.2 273.707 253.76C274.533 254.32 275.533 254.6 276.707 254.6C277.64 254.6 278.467 254.467 279.187 254.2C279.933 253.907 280.573 253.533 281.107 253.08C281.64 252.6 282.067 252.08 282.387 251.52C282.68 251.653 282.907 251.88 283.067 252.2C283.253 252.493 283.347 252.84 283.347 253.24C283.347 253.907 283.067 254.56 282.507 255.2C281.973 255.84 281.147 256.373 280.027 256.8C278.933 257.2 277.52 257.4 275.787 257.4ZM278.987 244.24C278.987 242.88 278.867 241.693 278.627 240.68C278.387 239.667 278 238.893 277.467 238.36C276.96 237.8 276.267 237.52 275.387 237.52C274.533 237.52 273.8 237.773 273.187 238.28C272.6 238.787 272.133 239.547 271.787 240.56C271.467 241.547 271.267 242.773 271.187 244.24H278.987ZM295.452 266.6C292.439 266.6 290.186 266.107 288.692 265.12C287.226 264.16 286.492 262.76 286.492 260.92C286.492 259.933 286.706 259.107 287.132 258.44C287.559 257.773 288.172 257.253 288.972 256.88C289.772 256.48 290.692 256.227 291.732 256.12C291.092 255.853 290.492 255.44 289.932 254.88C289.372 254.293 289.092 253.547 289.092 252.64C289.092 251.813 289.372 251.08 289.932 250.44C290.519 249.8 291.306 249.2 292.292 248.64C291.119 248.187 290.172 247.427 289.452 246.36C288.732 245.293 288.372 244 288.372 242.48C288.372 240.16 289.026 238.347 290.332 237.04C291.666 235.733 293.692 235.08 296.412 235.08C297.372 235.08 298.266 235.213 299.092 235.48C299.946 235.72 300.626 236.013 301.132 236.36C301.532 235.933 301.932 235.56 302.332 235.24C302.732 234.893 303.159 234.627 303.612 234.44C304.092 234.253 304.612 234.16 305.172 234.16C306.079 234.16 306.746 234.387 307.172 234.84C307.626 235.267 307.852 235.773 307.852 236.36C307.852 236.92 307.666 237.427 307.292 237.88C306.919 238.333 306.252 238.56 305.292 238.56C305.292 238.107 305.159 237.733 304.892 237.44C304.626 237.147 304.279 237 303.852 237C303.586 237 303.319 237.04 303.052 237.12C302.786 237.2 302.559 237.307 302.372 237.44C302.879 238.027 303.306 238.747 303.652 239.6C303.999 240.453 304.172 241.4 304.172 242.44C304.172 244.44 303.546 246.107 302.292 247.44C301.039 248.747 299.079 249.4 296.412 249.4C296.119 249.4 295.732 249.387 295.252 249.36C294.799 249.307 294.439 249.267 294.172 249.24C293.746 249.453 293.372 249.747 293.052 250.12C292.732 250.493 292.572 250.947 292.572 251.48C292.572 251.907 292.732 252.24 293.052 252.48C293.399 252.72 293.946 252.84 294.692 252.84H299.412C301.119 252.84 302.506 253.093 303.572 253.6C304.639 254.08 305.426 254.773 305.932 255.68C306.439 256.587 306.692 257.653 306.692 258.88C306.692 261.28 305.772 263.16 303.932 264.52C302.119 265.907 299.292 266.6 295.452 266.6ZM295.532 264.36C297.239 264.36 298.599 264.187 299.612 263.84C300.626 263.493 301.346 263 301.772 262.36C302.226 261.72 302.452 260.947 302.452 260.04C302.452 259.053 302.146 258.373 301.532 258C300.946 257.653 300.066 257.48 298.892 257.48H294.532C293.919 257.48 293.306 257.56 292.692 257.72C292.106 257.88 291.612 258.187 291.212 258.64C290.839 259.12 290.652 259.84 290.652 260.8C290.652 261.547 290.812 262.187 291.132 262.72C291.479 263.253 292.012 263.653 292.732 263.92C293.452 264.213 294.386 264.36 295.532 264.36ZM296.292 247.2C297.092 247.2 297.706 247.027 298.132 246.68C298.586 246.307 298.892 245.76 299.052 245.04C299.239 244.32 299.332 243.44 299.332 242.4C299.332 241.333 299.239 240.427 299.052 239.68C298.866 238.907 298.546 238.32 298.092 237.92C297.666 237.52 297.052 237.32 296.252 237.32C295.506 237.32 294.906 237.533 294.452 237.96C293.999 238.36 293.679 238.947 293.492 239.72C293.306 240.467 293.212 241.373 293.212 242.44C293.212 243.453 293.306 244.32 293.492 245.04C293.706 245.733 294.039 246.267 294.492 246.64C294.946 247.013 295.546 247.2 296.292 247.2Z" fill="#CA0606"/>
<path d="M208.378 360V358.704L210.97 355.792C211.407 355.301 211.775 354.859 212.074 354.464C212.373 354.059 212.607 353.685 212.778 353.344C212.959 352.992 213.087 352.645 213.162 352.304C213.247 351.963 213.29 351.6 213.29 351.216C213.29 350.811 213.231 350.464 213.114 350.176C213.007 349.888 212.837 349.664 212.602 349.504C212.378 349.344 212.101 349.264 211.77 349.264C211.322 349.264 210.975 349.376 210.73 349.6C210.485 349.813 210.314 350.107 210.218 350.48C210.122 350.853 210.074 351.28 210.074 351.76C209.786 351.76 209.519 351.723 209.274 351.648C209.039 351.573 208.853 351.451 208.714 351.28C208.586 351.099 208.522 350.859 208.522 350.56C208.522 350.155 208.639 349.792 208.874 349.472C209.119 349.152 209.482 348.896 209.962 348.704C210.453 348.512 211.055 348.416 211.77 348.416C212.474 348.416 213.077 348.528 213.578 348.752C214.079 348.965 214.463 349.269 214.73 349.664C214.997 350.059 215.13 350.533 215.13 351.088C215.13 351.387 215.087 351.68 215.002 351.968C214.917 352.245 214.794 352.533 214.634 352.832C214.474 353.131 214.271 353.44 214.026 353.76C213.791 354.08 213.509 354.427 213.178 354.8C212.847 355.163 212.474 355.563 212.058 356L209.658 358.592H213.354C213.791 358.592 214.101 358.475 214.282 358.24C214.474 358.005 214.613 357.728 214.698 357.408L214.778 357.072H215.53L215.45 360H208.378ZM220.356 360.16C219.566 360.16 218.948 360.075 218.5 359.904C218.052 359.723 217.732 359.504 217.54 359.248C217.358 358.981 217.268 358.715 217.268 358.448C217.268 358.139 217.358 357.899 217.54 357.728C217.721 357.557 217.993 357.472 218.356 357.472C218.356 357.771 218.42 358.048 218.548 358.304C218.686 358.56 218.894 358.768 219.172 358.928C219.449 359.088 219.806 359.168 220.244 359.168C220.649 359.168 221.017 359.088 221.348 358.928C221.689 358.757 221.956 358.48 222.148 358.096C222.34 357.701 222.436 357.168 222.436 356.496C222.436 355.941 222.34 355.483 222.148 355.12C221.956 354.757 221.684 354.491 221.332 354.32C220.98 354.139 220.558 354.048 220.068 354.048C219.737 354.048 219.454 354.064 219.22 354.096C218.985 354.117 218.782 354.155 218.612 354.208C218.452 354.261 218.302 354.32 218.164 354.384L217.684 354.224L218.196 348.576H223.732L223.812 351.136H223.076L222.996 350.624C222.964 350.485 222.921 350.368 222.868 350.272C222.825 350.176 222.745 350.107 222.628 350.064C222.521 350.011 222.366 349.984 222.164 349.984H218.996L218.708 353.36C218.814 353.317 218.953 353.28 219.124 353.248C219.305 353.205 219.513 353.173 219.748 353.152C219.993 353.131 220.26 353.12 220.548 353.12C221.273 353.12 221.918 353.248 222.484 353.504C223.06 353.749 223.508 354.123 223.828 354.624C224.158 355.115 224.324 355.739 224.324 356.496C224.324 356.965 224.26 357.392 224.132 357.776C224.004 358.16 223.822 358.501 223.588 358.8C223.353 359.099 223.07 359.349 222.74 359.552C222.42 359.755 222.057 359.904 221.652 360C221.257 360.107 220.825 360.16 220.356 360.16ZM229.869 360.16C228.973 360.16 228.242 359.915 227.677 359.424C227.112 358.933 226.701 358.245 226.445 357.36C226.189 356.475 226.061 355.44 226.061 354.256C226.061 353.072 226.189 352.043 226.445 351.168C226.701 350.293 227.112 349.616 227.677 349.136C228.242 348.656 228.978 348.416 229.885 348.416C230.738 348.416 231.442 348.656 231.997 349.136C232.562 349.616 232.978 350.299 233.245 351.184C233.522 352.059 233.661 353.088 233.661 354.272C233.661 355.456 233.522 356.491 233.245 357.376C232.978 358.251 232.562 358.933 231.997 359.424C231.442 359.915 230.733 360.16 229.869 360.16ZM229.869 359.248C230.232 359.248 230.536 359.136 230.781 358.912C231.026 358.688 231.218 358.363 231.357 357.936C231.506 357.509 231.613 356.987 231.677 356.368C231.741 355.749 231.773 355.051 231.773 354.272C231.773 353.493 231.741 352.8 231.677 352.192C231.624 351.573 231.522 351.051 231.373 350.624C231.224 350.197 231.026 349.877 230.781 349.664C230.546 349.44 230.248 349.328 229.885 349.328C229.512 349.328 229.202 349.44 228.957 349.664C228.712 349.877 228.514 350.197 228.365 350.624C228.216 351.051 228.109 351.573 228.045 352.192C227.981 352.8 227.949 353.493 227.949 354.272C227.949 355.051 227.981 355.749 228.045 356.368C228.109 356.987 228.216 357.509 228.365 357.936C228.514 358.363 228.712 358.688 228.957 358.912C229.202 359.136 229.506 359.248 229.869 359.248ZM242.195 363.84C241.053 363.84 240.195 363.637 239.619 363.232C239.043 362.837 238.755 362.272 238.755 361.536C238.755 361.131 238.845 360.789 239.027 360.512C239.208 360.235 239.453 360.016 239.763 359.856C240.072 359.696 240.419 359.589 240.803 359.536C240.568 359.44 240.349 359.28 240.147 359.056C239.944 358.832 239.843 358.544 239.843 358.192C239.843 357.861 239.939 357.579 240.131 357.344C240.323 357.099 240.611 356.864 240.995 356.64C240.525 356.459 240.157 356.149 239.891 355.712C239.624 355.275 239.491 354.773 239.491 354.208C239.491 353.291 239.747 352.571 240.259 352.048C240.781 351.515 241.56 351.248 242.595 351.248C242.979 351.248 243.336 351.301 243.667 351.408C244.008 351.515 244.264 351.637 244.435 351.776C244.573 351.627 244.717 351.488 244.867 351.36C245.027 351.221 245.203 351.109 245.395 351.024C245.587 350.939 245.795 350.896 246.019 350.896C246.36 350.896 246.611 350.981 246.771 351.152C246.941 351.323 247.027 351.52 247.027 351.744C247.027 351.979 246.957 352.181 246.819 352.352C246.68 352.523 246.44 352.608 246.099 352.608C246.099 352.459 246.056 352.325 245.971 352.208C245.885 352.091 245.747 352.032 245.555 352.032C245.427 352.032 245.309 352.048 245.203 352.08C245.096 352.112 244.995 352.155 244.899 352.208C245.091 352.443 245.251 352.72 245.379 353.04C245.507 353.36 245.571 353.739 245.571 354.176C245.571 354.976 245.325 355.637 244.835 356.16C244.355 356.683 243.608 356.944 242.595 356.944C242.467 356.944 242.312 356.939 242.131 356.928C241.96 356.907 241.827 356.885 241.731 356.864C241.539 356.96 241.373 357.088 241.235 357.248C241.096 357.397 241.027 357.589 241.027 357.824C241.027 358.016 241.091 358.16 241.219 358.256C241.347 358.352 241.592 358.4 241.955 358.4H243.795C244.456 358.4 244.984 358.507 245.379 358.72C245.784 358.923 246.077 359.205 246.259 359.568C246.451 359.92 246.547 360.336 246.547 360.816C246.547 361.744 246.195 362.48 245.491 363.024C244.787 363.568 243.688 363.84 242.195 363.84ZM242.227 363.008C242.963 363.008 243.533 362.928 243.939 362.768C244.355 362.619 244.648 362.405 244.819 362.128C244.989 361.851 245.075 361.531 245.075 361.168C245.075 360.72 244.941 360.416 244.675 360.256C244.419 360.096 244.04 360.016 243.539 360.016H241.891C241.613 360.016 241.347 360.053 241.091 360.128C240.835 360.203 240.621 360.341 240.451 360.544C240.291 360.747 240.211 361.051 240.211 361.456C240.211 361.755 240.275 362.021 240.403 362.256C240.531 362.491 240.739 362.672 241.027 362.8C241.325 362.939 241.725 363.008 242.227 363.008ZM242.547 356.128C242.877 356.128 243.139 356.059 243.331 355.92C243.533 355.771 243.672 355.552 243.747 355.264C243.832 354.965 243.875 354.597 243.875 354.16C243.875 353.701 243.832 353.317 243.747 353.008C243.661 352.699 243.517 352.469 243.315 352.32C243.123 352.16 242.861 352.08 242.531 352.08C242.211 352.08 241.949 352.16 241.747 352.32C241.555 352.48 241.411 352.715 241.315 353.024C241.229 353.333 241.187 353.717 241.187 354.176C241.187 354.603 241.229 354.96 241.315 355.248C241.411 355.536 241.56 355.755 241.763 355.904C241.965 356.053 242.227 356.128 242.547 356.128Z" fill="black"/>
<path d="M153.027 282.783V282.333H153.237C153.377 282.333 153.5 282.317 153.607 282.283C153.72 282.25 153.81 282.183 153.877 282.083C153.944 281.983 153.977 281.833 153.977 281.633V276.753C153.977 276.56 153.94 276.417 153.867 276.323C153.8 276.23 153.71 276.17 153.597 276.143C153.49 276.11 153.37 276.093 153.237 276.093H153.027V275.643H156.087V276.093H155.877C155.744 276.093 155.62 276.11 155.507 276.143C155.394 276.177 155.304 276.243 155.237 276.343C155.17 276.437 155.137 276.587 155.137 276.793V278.793H158.217V276.793C158.217 276.587 158.184 276.437 158.117 276.343C158.05 276.243 157.96 276.177 157.847 276.143C157.74 276.11 157.617 276.093 157.477 276.093H157.267V275.643H160.327V276.093H160.117C159.984 276.093 159.86 276.11 159.747 276.143C159.634 276.177 159.544 276.243 159.477 276.343C159.41 276.437 159.377 276.587 159.377 276.793V281.683C159.377 281.87 159.41 282.01 159.477 282.103C159.55 282.197 159.64 282.26 159.747 282.293C159.86 282.32 159.984 282.333 160.117 282.333H160.327V282.783H157.267V282.333H157.477C157.617 282.333 157.74 282.317 157.847 282.283C157.96 282.25 158.05 282.183 158.117 282.083C158.184 281.983 158.217 281.833 158.217 281.633V279.323H155.137V281.633C155.137 281.833 155.17 281.983 155.237 282.083C155.304 282.183 155.394 282.25 155.507 282.283C155.62 282.317 155.744 282.333 155.877 282.333H156.087V282.783H153.027ZM163.595 282.883C162.855 282.883 162.272 282.653 161.845 282.193C161.418 281.733 161.205 281.033 161.205 280.093C161.205 279.153 161.408 278.457 161.815 278.003C162.222 277.543 162.825 277.313 163.625 277.313C164.365 277.313 164.948 277.543 165.375 278.003C165.802 278.457 166.015 279.153 166.015 280.093C166.015 281.033 165.808 281.733 165.395 282.193C164.988 282.653 164.388 282.883 163.595 282.883ZM163.615 282.333C163.928 282.333 164.178 282.25 164.365 282.083C164.552 281.917 164.685 281.667 164.765 281.333C164.845 280.993 164.885 280.58 164.885 280.093C164.885 279.6 164.842 279.19 164.755 278.863C164.675 278.537 164.542 278.29 164.355 278.123C164.168 277.957 163.918 277.873 163.605 277.873C163.292 277.873 163.042 277.957 162.855 278.123C162.668 278.29 162.535 278.537 162.455 278.863C162.375 279.19 162.335 279.6 162.335 280.093C162.335 280.58 162.375 280.993 162.455 281.333C162.542 281.667 162.678 281.917 162.865 282.083C163.052 282.25 163.302 282.333 163.615 282.333ZM166.804 282.783V282.333H166.864C167.018 282.333 167.154 282.317 167.274 282.283C167.401 282.25 167.498 282.183 167.564 282.083C167.638 281.977 167.674 281.823 167.674 281.623V278.543C167.674 278.35 167.638 278.207 167.564 278.113C167.498 278.013 167.404 277.95 167.284 277.923C167.171 277.89 167.041 277.873 166.894 277.873H166.854V277.423H168.604L168.734 278.203H168.784C168.924 277.95 169.071 277.76 169.224 277.633C169.384 277.507 169.554 277.423 169.734 277.383C169.921 277.337 170.121 277.313 170.334 277.313C170.861 277.313 171.271 277.47 171.564 277.783C171.858 278.09 172.004 278.583 172.004 279.263V281.613C172.004 281.82 172.034 281.977 172.094 282.083C172.154 282.183 172.238 282.25 172.344 282.283C172.458 282.317 172.588 282.333 172.734 282.333H172.784V282.783H170.904V279.373C170.904 278.94 170.828 278.607 170.674 278.373C170.528 278.133 170.268 278.013 169.894 278.013C169.614 278.013 169.391 278.087 169.224 278.233C169.064 278.38 168.948 278.577 168.874 278.823C168.808 279.07 168.774 279.333 168.774 279.613V281.673C168.774 281.86 168.808 282.003 168.874 282.103C168.948 282.197 169.041 282.26 169.154 282.293C169.274 282.32 169.408 282.333 169.554 282.333H169.594V282.783H166.804ZM173.268 282.783V282.333H173.398C173.531 282.333 173.658 282.32 173.778 282.293C173.898 282.26 173.995 282.197 174.068 282.103C174.148 282.003 174.188 281.86 174.188 281.673V278.533C174.188 278.34 174.148 278.197 174.068 278.103C173.995 278.01 173.898 277.95 173.778 277.923C173.658 277.89 173.531 277.873 173.398 277.873H173.348V277.423H175.288V281.633C175.288 281.833 175.325 281.983 175.398 282.083C175.471 282.183 175.568 282.25 175.688 282.283C175.815 282.317 175.945 282.333 176.078 282.333H176.208V282.783H173.268ZM174.698 276.453C174.511 276.453 174.355 276.403 174.228 276.303C174.108 276.203 174.048 276.037 174.048 275.803C174.048 275.563 174.111 275.397 174.238 275.303C174.365 275.203 174.518 275.153 174.698 275.153C174.871 275.153 175.021 275.203 175.148 275.303C175.281 275.397 175.348 275.563 175.348 275.803C175.348 276.037 175.281 276.203 175.148 276.303C175.021 276.403 174.871 276.453 174.698 276.453ZM176.609 282.783V282.333H176.669C176.822 282.333 176.959 282.317 177.079 282.283C177.206 282.25 177.302 282.183 177.369 282.083C177.442 281.977 177.479 281.823 177.479 281.623V278.543C177.479 278.35 177.442 278.207 177.369 278.113C177.302 278.013 177.209 277.95 177.089 277.923C176.976 277.89 176.846 277.873 176.699 277.873H176.659V277.423H178.409L178.539 278.203H178.589C178.729 277.95 178.876 277.76 179.029 277.633C179.189 277.507 179.359 277.423 179.539 277.383C179.726 277.337 179.926 277.313 180.139 277.313C180.666 277.313 181.076 277.47 181.369 277.783C181.662 278.09 181.809 278.583 181.809 279.263V281.613C181.809 281.82 181.839 281.977 181.899 282.083C181.959 282.183 182.042 282.25 182.149 282.283C182.262 282.317 182.392 282.333 182.539 282.333H182.589V282.783H180.709V279.373C180.709 278.94 180.632 278.607 180.479 278.373C180.332 278.133 180.072 278.013 179.699 278.013C179.419 278.013 179.196 278.087 179.029 278.233C178.869 278.38 178.752 278.577 178.679 278.823C178.612 279.07 178.579 279.333 178.579 279.613V281.673C178.579 281.86 178.612 282.003 178.679 282.103C178.752 282.197 178.846 282.26 178.959 282.293C179.079 282.32 179.212 282.333 179.359 282.333H179.399V282.783H176.609ZM185.183 285.183C184.469 285.183 183.933 285.057 183.573 284.803C183.213 284.557 183.033 284.203 183.033 283.743C183.033 283.49 183.089 283.277 183.203 283.103C183.316 282.93 183.469 282.793 183.663 282.693C183.856 282.593 184.073 282.527 184.313 282.493C184.166 282.433 184.029 282.333 183.903 282.193C183.776 282.053 183.713 281.873 183.713 281.653C183.713 281.447 183.773 281.27 183.893 281.123C184.013 280.97 184.193 280.823 184.433 280.683C184.139 280.57 183.909 280.377 183.743 280.103C183.576 279.83 183.493 279.517 183.493 279.163C183.493 278.59 183.653 278.14 183.973 277.813C184.299 277.48 184.786 277.313 185.433 277.313C185.673 277.313 185.896 277.347 186.103 277.413C186.316 277.48 186.476 277.557 186.583 277.643C186.669 277.55 186.759 277.463 186.853 277.383C186.953 277.297 187.063 277.227 187.183 277.173C187.303 277.12 187.433 277.093 187.573 277.093C187.786 277.093 187.943 277.147 188.043 277.253C188.149 277.36 188.203 277.483 188.203 277.623C188.203 277.77 188.159 277.897 188.073 278.003C187.986 278.11 187.836 278.163 187.623 278.163C187.623 278.07 187.596 277.987 187.543 277.913C187.489 277.84 187.403 277.803 187.283 277.803C187.203 277.803 187.129 277.813 187.063 277.833C186.996 277.853 186.933 277.88 186.873 277.913C186.993 278.06 187.093 278.233 187.173 278.433C187.253 278.633 187.293 278.87 187.293 279.143C187.293 279.643 187.139 280.057 186.833 280.383C186.533 280.71 186.066 280.873 185.433 280.873C185.353 280.873 185.256 280.87 185.143 280.863C185.036 280.85 184.953 280.837 184.893 280.823C184.773 280.883 184.669 280.963 184.583 281.063C184.496 281.157 184.453 281.277 184.453 281.423C184.453 281.543 184.493 281.633 184.573 281.693C184.653 281.753 184.806 281.783 185.033 281.783H186.183C186.596 281.783 186.926 281.85 187.173 281.983C187.426 282.11 187.609 282.287 187.723 282.513C187.843 282.733 187.903 282.993 187.903 283.293C187.903 283.873 187.683 284.333 187.243 284.673C186.803 285.013 186.116 285.183 185.183 285.183ZM185.203 284.663C185.663 284.663 186.019 284.613 186.273 284.513C186.533 284.42 186.716 284.287 186.823 284.113C186.929 283.94 186.983 283.74 186.983 283.513C186.983 283.233 186.899 283.043 186.733 282.943C186.573 282.843 186.336 282.793 186.023 282.793H184.993C184.819 282.793 184.653 282.817 184.493 282.863C184.333 282.91 184.199 282.997 184.093 283.123C183.993 283.25 183.943 283.44 183.943 283.693C183.943 283.88 183.983 284.047 184.063 284.193C184.143 284.34 184.273 284.453 184.453 284.533C184.639 284.62 184.889 284.663 185.203 284.663ZM185.403 280.363C185.609 280.363 185.773 280.32 185.893 280.233C186.019 280.14 186.106 280.003 186.153 279.823C186.206 279.637 186.233 279.407 186.233 279.133C186.233 278.847 186.206 278.607 186.153 278.413C186.099 278.22 186.009 278.077 185.883 277.983C185.763 277.883 185.599 277.833 185.393 277.833C185.193 277.833 185.029 277.883 184.903 277.983C184.783 278.083 184.693 278.23 184.633 278.423C184.579 278.617 184.553 278.857 184.553 279.143C184.553 279.41 184.579 279.633 184.633 279.813C184.693 279.993 184.786 280.13 184.913 280.223C185.039 280.317 185.203 280.363 185.403 280.363ZM193.59 282.883C193.063 282.883 192.656 282.727 192.37 282.413C192.09 282.1 191.95 281.6 191.95 280.913V278.563C191.95 278.363 191.913 278.217 191.84 278.123C191.773 278.023 191.68 277.957 191.56 277.923C191.446 277.89 191.316 277.873 191.17 277.873H191.14V277.423H193.05V280.803C193.05 281.09 193.076 281.337 193.13 281.543C193.19 281.75 193.29 281.91 193.43 282.023C193.576 282.13 193.773 282.183 194.02 282.183C194.286 282.183 194.506 282.117 194.68 281.983C194.853 281.85 194.98 281.663 195.06 281.423C195.14 281.183 195.18 280.907 195.18 280.593V278.573C195.18 278.367 195.143 278.213 195.07 278.113C195.003 278.013 194.91 277.95 194.79 277.923C194.67 277.89 194.536 277.873 194.39 277.873H194.36V277.423H196.28V281.673C196.28 281.867 196.313 282.013 196.38 282.113C196.453 282.207 196.55 282.267 196.67 282.293C196.79 282.32 196.92 282.333 197.06 282.333H197.1V282.783H195.4L195.25 282.003H195.2C195.1 282.183 194.986 282.333 194.86 282.453C194.74 282.567 194.613 282.657 194.48 282.723C194.346 282.783 194.203 282.823 194.05 282.843C193.903 282.87 193.75 282.883 193.59 282.883ZM197.545 282.783V282.333H197.675C197.809 282.333 197.935 282.32 198.055 282.293C198.175 282.26 198.272 282.197 198.345 282.103C198.425 282.003 198.465 281.86 198.465 281.673V278.533C198.465 278.34 198.425 278.197 198.345 278.103C198.272 278.01 198.175 277.95 198.055 277.923C197.935 277.89 197.809 277.873 197.675 277.873H197.625V277.423H199.565V281.633C199.565 281.833 199.602 281.983 199.675 282.083C199.749 282.183 199.845 282.25 199.965 282.283C200.092 282.317 200.222 282.333 200.355 282.333H200.485V282.783H197.545ZM198.975 276.453C198.789 276.453 198.632 276.403 198.505 276.303C198.385 276.203 198.325 276.037 198.325 275.803C198.325 275.563 198.389 275.397 198.515 275.303C198.642 275.203 198.795 275.153 198.975 275.153C199.149 275.153 199.299 275.203 199.425 275.303C199.559 275.397 199.625 275.563 199.625 275.803C199.625 276.037 199.559 276.203 199.425 276.303C199.299 276.403 199.149 276.453 198.975 276.453ZM203.036 282.883C202.543 282.883 202.176 282.77 201.936 282.543C201.696 282.31 201.576 281.903 201.576 281.323V278.023H200.826V277.593C200.966 277.593 201.113 277.563 201.266 277.503C201.42 277.443 201.55 277.357 201.656 277.243C201.77 277.13 201.863 276.99 201.936 276.823C202.01 276.65 202.07 276.44 202.116 276.193H202.676V277.423H203.976V278.023H202.676V281.323C202.676 281.65 202.74 281.89 202.866 282.043C203 282.197 203.183 282.273 203.416 282.273C203.536 282.273 203.646 282.267 203.746 282.253C203.853 282.24 203.96 282.223 204.066 282.203V282.703C203.98 282.743 203.84 282.783 203.646 282.823C203.453 282.863 203.25 282.883 203.036 282.883ZM207.086 282.783V282.333H207.146C207.299 282.333 207.436 282.317 207.556 282.283C207.676 282.25 207.772 282.183 207.846 282.083C207.919 281.977 207.956 281.823 207.956 281.623V276.293C207.956 276.1 207.916 275.957 207.836 275.863C207.762 275.77 207.666 275.71 207.546 275.683C207.426 275.65 207.299 275.633 207.166 275.633H207.076V275.183H209.056V277.233C209.056 277.367 209.049 277.507 209.036 277.653C209.029 277.8 209.022 277.927 209.016 278.033C209.009 278.14 209.006 278.193 209.006 278.193H209.066C209.172 277.98 209.299 277.81 209.446 277.683C209.592 277.55 209.756 277.457 209.936 277.403C210.122 277.343 210.326 277.313 210.546 277.313C211.106 277.313 211.536 277.47 211.836 277.783C212.136 278.09 212.286 278.583 212.286 279.263V281.613C212.286 281.82 212.316 281.977 212.376 282.083C212.442 282.183 212.529 282.25 212.636 282.283C212.749 282.317 212.879 282.333 213.026 282.333H213.056V282.783H211.186V279.373C211.186 278.94 211.109 278.607 210.956 278.373C210.809 278.133 210.546 278.013 210.166 278.013C209.912 278.013 209.702 278.083 209.536 278.223C209.369 278.357 209.246 278.543 209.166 278.783C209.092 279.023 209.056 279.3 209.056 279.613V281.673C209.056 281.86 209.089 282.003 209.156 282.103C209.229 282.197 209.326 282.26 209.446 282.293C209.566 282.32 209.699 282.333 209.846 282.333H209.876V282.783H207.086ZM216.251 282.883C215.491 282.883 214.901 282.643 214.481 282.163C214.068 281.683 213.861 281.01 213.861 280.143C213.861 279.203 214.061 278.497 214.461 278.023C214.861 277.55 215.425 277.313 216.151 277.313C216.818 277.313 217.341 277.517 217.721 277.923C218.108 278.323 218.301 278.92 218.301 279.713V280.183H214.991C215.005 280.657 215.065 281.047 215.171 281.353C215.285 281.653 215.445 281.873 215.651 282.013C215.865 282.153 216.125 282.223 216.431 282.223C216.665 282.223 216.871 282.19 217.051 282.123C217.238 282.05 217.398 281.96 217.531 281.853C217.671 281.74 217.781 281.62 217.861 281.493C217.921 281.52 217.971 281.567 218.011 281.633C218.051 281.7 218.071 281.78 218.071 281.873C218.071 282.02 218.005 282.173 217.871 282.333C217.745 282.487 217.545 282.617 217.271 282.723C217.005 282.83 216.665 282.883 216.251 282.883ZM217.151 279.613C217.151 279.267 217.118 278.963 217.051 278.703C216.985 278.443 216.878 278.243 216.731 278.103C216.585 277.957 216.388 277.883 216.141 277.883C215.915 277.883 215.718 277.95 215.551 278.083C215.391 278.217 215.265 278.413 215.171 278.673C215.085 278.927 215.031 279.24 215.011 279.613H217.151ZM221.191 282.883C220.697 282.883 220.331 282.77 220.091 282.543C219.851 282.31 219.731 281.903 219.731 281.323V278.023H218.981V277.593C219.121 277.593 219.267 277.563 219.421 277.503C219.574 277.443 219.704 277.357 219.811 277.243C219.924 277.13 220.017 276.99 220.091 276.823C220.164 276.65 220.224 276.44 220.271 276.193H220.831V277.423H222.131V278.023H220.831V281.323C220.831 281.65 220.894 281.89 221.021 282.043C221.154 282.197 221.337 282.273 221.571 282.273C221.691 282.273 221.801 282.267 221.901 282.253C222.007 282.24 222.114 282.223 222.221 282.203V282.703C222.134 282.743 221.994 282.783 221.801 282.823C221.607 282.863 221.404 282.883 221.191 282.883ZM225.96 276.623C225.92 276.483 225.867 276.377 225.8 276.303C225.74 276.223 225.667 276.17 225.58 276.143C225.493 276.11 225.383 276.093 225.25 276.093H225.12V275.643H228.03V276.093H227.8C227.6 276.093 227.45 276.133 227.35 276.213C227.25 276.287 227.2 276.407 227.2 276.573C227.2 276.607 227.203 276.647 227.21 276.693C227.217 276.74 227.227 276.787 227.24 276.833C227.253 276.88 227.267 276.933 227.28 276.993L228.13 279.943C228.19 280.137 228.243 280.333 228.29 280.533C228.343 280.727 228.393 280.92 228.44 281.113C228.487 281.3 228.523 281.473 228.55 281.633C228.603 281.387 228.66 281.123 228.72 280.843C228.787 280.563 228.86 280.283 228.94 280.003L230.16 275.713H230.89L232.17 279.903C232.243 280.117 232.307 280.33 232.36 280.543C232.42 280.757 232.47 280.957 232.51 281.143C232.557 281.33 232.593 281.493 232.62 281.633C232.653 281.473 232.69 281.303 232.73 281.123C232.77 280.943 232.813 280.753 232.86 280.553C232.907 280.353 232.96 280.147 233.02 279.933L233.8 277.103C233.82 277.023 233.843 276.93 233.87 276.823C233.897 276.71 233.91 276.627 233.91 276.573C233.91 276.4 233.853 276.277 233.74 276.203C233.633 276.13 233.47 276.093 233.25 276.093H233.02V275.643H235.51V276.093H235.32C235.193 276.093 235.083 276.113 234.99 276.153C234.903 276.187 234.827 276.26 234.76 276.373C234.693 276.487 234.627 276.653 234.56 276.873L232.91 282.783H231.94L230.3 277.433L228.79 282.783H227.79L225.96 276.623ZM237.902 282.883C237.142 282.883 236.552 282.643 236.132 282.163C235.718 281.683 235.512 281.01 235.512 280.143C235.512 279.203 235.712 278.497 236.112 278.023C236.512 277.55 237.075 277.313 237.802 277.313C238.468 277.313 238.992 277.517 239.372 277.923C239.758 278.323 239.952 278.92 239.952 279.713V280.183H236.642C236.655 280.657 236.715 281.047 236.822 281.353C236.935 281.653 237.095 281.873 237.302 282.013C237.515 282.153 237.775 282.223 238.082 282.223C238.315 282.223 238.522 282.19 238.702 282.123C238.888 282.05 239.048 281.96 239.182 281.853C239.322 281.74 239.432 281.62 239.512 281.493C239.572 281.52 239.622 281.567 239.662 281.633C239.702 281.7 239.722 281.78 239.722 281.873C239.722 282.02 239.655 282.173 239.522 282.333C239.395 282.487 239.195 282.617 238.922 282.723C238.655 282.83 238.315 282.883 237.902 282.883ZM238.802 279.613C238.802 279.267 238.768 278.963 238.702 278.703C238.635 278.443 238.528 278.243 238.382 278.103C238.235 277.957 238.038 277.883 237.792 277.883C237.565 277.883 237.368 277.95 237.202 278.083C237.042 278.217 236.915 278.413 236.822 278.673C236.735 278.927 236.682 279.24 236.662 279.613H238.802ZM242.591 282.883C242.218 282.883 241.901 282.84 241.641 282.753C241.381 282.667 241.181 282.543 241.041 282.383C240.908 282.217 240.841 282.02 240.841 281.793C240.841 281.6 240.881 281.453 240.961 281.353C241.048 281.253 241.144 281.183 241.251 281.143C241.364 281.103 241.464 281.083 241.551 281.083C241.551 281.33 241.588 281.553 241.661 281.753C241.734 281.947 241.851 282.1 242.011 282.213C242.171 282.32 242.378 282.373 242.631 282.373C242.984 282.373 243.251 282.293 243.431 282.133C243.611 281.973 243.701 281.77 243.701 281.523C243.701 281.363 243.664 281.23 243.591 281.123C243.524 281.017 243.401 280.913 243.221 280.813C243.048 280.707 242.798 280.59 242.471 280.463C242.124 280.317 241.834 280.17 241.601 280.023C241.374 279.877 241.204 279.707 241.091 279.513C240.978 279.32 240.921 279.077 240.921 278.783C240.921 278.31 241.098 277.95 241.451 277.703C241.811 277.45 242.284 277.323 242.871 277.323C243.218 277.323 243.504 277.367 243.731 277.453C243.964 277.54 244.134 277.653 244.241 277.793C244.354 277.933 244.411 278.083 244.411 278.243C244.411 278.437 244.344 278.59 244.211 278.703C244.078 278.817 243.878 278.873 243.611 278.873C243.611 278.54 243.538 278.28 243.391 278.093C243.251 277.907 243.034 277.813 242.741 277.813C242.541 277.813 242.371 277.847 242.231 277.913C242.098 277.973 241.998 278.06 241.931 278.173C241.864 278.28 241.831 278.41 241.831 278.563C241.831 278.723 241.871 278.86 241.951 278.973C242.038 279.087 242.174 279.193 242.361 279.293C242.548 279.387 242.798 279.493 243.111 279.613C243.451 279.747 243.731 279.887 243.951 280.033C244.171 280.18 244.334 280.353 244.441 280.553C244.554 280.747 244.611 280.983 244.611 281.263C244.611 281.79 244.428 282.193 244.061 282.473C243.701 282.747 243.211 282.883 242.591 282.883ZM247.45 282.883C246.957 282.883 246.59 282.77 246.35 282.543C246.11 282.31 245.99 281.903 245.99 281.323V278.023H245.24V277.593C245.38 277.593 245.527 277.563 245.68 277.503C245.834 277.443 245.964 277.357 246.07 277.243C246.184 277.13 246.277 276.99 246.35 276.823C246.424 276.65 246.484 276.44 246.53 276.193H247.09V277.423H248.39V278.023H247.09V281.323C247.09 281.65 247.154 281.89 247.28 282.043C247.414 282.197 247.597 282.273 247.83 282.273C247.95 282.273 248.06 282.267 248.16 282.253C248.267 282.24 248.374 282.223 248.48 282.203V282.703C248.394 282.743 248.254 282.783 248.06 282.823C247.867 282.863 247.664 282.883 247.45 282.883ZM251.632 282.883C250.872 282.883 250.282 282.643 249.862 282.163C249.449 281.683 249.242 281.01 249.242 280.143C249.242 279.203 249.442 278.497 249.842 278.023C250.242 277.55 250.806 277.313 251.532 277.313C252.199 277.313 252.722 277.517 253.102 277.923C253.489 278.323 253.682 278.92 253.682 279.713V280.183H250.372C250.386 280.657 250.446 281.047 250.552 281.353C250.666 281.653 250.826 281.873 251.032 282.013C251.246 282.153 251.506 282.223 251.812 282.223C252.046 282.223 252.252 282.19 252.432 282.123C252.619 282.05 252.779 281.96 252.912 281.853C253.052 281.74 253.162 281.62 253.242 281.493C253.302 281.52 253.352 281.567 253.392 281.633C253.432 281.7 253.452 281.78 253.452 281.873C253.452 282.02 253.386 282.173 253.252 282.333C253.126 282.487 252.926 282.617 252.652 282.723C252.386 282.83 252.046 282.883 251.632 282.883ZM252.532 279.613C252.532 279.267 252.499 278.963 252.432 278.703C252.366 278.443 252.259 278.243 252.112 278.103C251.966 277.957 251.769 277.883 251.522 277.883C251.296 277.883 251.099 277.95 250.932 278.083C250.772 278.217 250.646 278.413 250.552 278.673C250.466 278.927 250.412 279.24 250.392 279.613H252.532ZM254.451 282.783V282.333H254.481C254.635 282.333 254.771 282.317 254.891 282.283C255.018 282.25 255.115 282.183 255.181 282.083C255.255 281.977 255.291 281.82 255.291 281.613V278.553C255.291 278.353 255.255 278.207 255.181 278.113C255.108 278.013 255.011 277.95 254.891 277.923C254.778 277.89 254.648 277.873 254.501 277.873H254.471V277.423H256.141L256.331 278.353H256.381C256.468 278.153 256.561 277.977 256.661 277.823C256.768 277.663 256.905 277.54 257.071 277.453C257.245 277.36 257.475 277.313 257.761 277.313C258.135 277.313 258.411 277.38 258.591 277.513C258.771 277.647 258.861 277.833 258.861 278.073C258.861 278.307 258.778 278.497 258.611 278.643C258.451 278.783 258.195 278.853 257.841 278.853C257.841 278.667 257.825 278.517 257.791 278.403C257.758 278.283 257.705 278.197 257.631 278.143C257.558 278.083 257.455 278.053 257.321 278.053C257.141 278.053 256.988 278.123 256.861 278.263C256.741 278.403 256.648 278.58 256.581 278.793C256.515 279.007 256.465 279.227 256.431 279.453C256.405 279.68 256.391 279.88 256.391 280.053V281.663C256.391 281.857 256.428 282.003 256.501 282.103C256.575 282.197 256.668 282.26 256.781 282.293C256.901 282.32 257.035 282.333 257.181 282.333H257.471V282.783H254.451ZM259.195 282.783V282.333H259.285C259.425 282.333 259.555 282.317 259.675 282.283C259.795 282.25 259.892 282.183 259.965 282.083C260.038 281.983 260.075 281.833 260.075 281.633V276.293C260.075 276.1 260.035 275.957 259.955 275.863C259.882 275.77 259.785 275.71 259.665 275.683C259.545 275.65 259.418 275.633 259.285 275.633H259.195V275.183H261.175V279.043C261.175 279.13 261.172 279.24 261.165 279.373C261.165 279.507 261.162 279.64 261.155 279.773C261.148 279.907 261.142 280.02 261.135 280.113C261.135 280.2 261.135 280.243 261.135 280.243L262.385 278.863C262.512 278.723 262.608 278.607 262.675 278.513C262.742 278.413 262.788 278.33 262.815 278.263C262.842 278.197 262.855 278.137 262.855 278.083C262.855 277.997 262.812 277.94 262.725 277.913C262.645 277.88 262.522 277.863 262.355 277.863V277.423H264.655V277.863C264.542 277.863 264.428 277.883 264.315 277.923C264.202 277.963 264.088 278.023 263.975 278.103C263.862 278.177 263.745 278.27 263.625 278.383C263.505 278.497 263.378 278.627 263.245 278.773L262.565 279.543L263.895 281.523C264.015 281.697 264.128 281.847 264.235 281.973C264.348 282.093 264.465 282.183 264.585 282.243C264.712 282.303 264.845 282.333 264.985 282.333H265.015V282.783H264.875C264.562 282.783 264.302 282.773 264.095 282.753C263.888 282.733 263.712 282.693 263.565 282.633C263.425 282.573 263.295 282.48 263.175 282.353C263.055 282.227 262.925 282.053 262.785 281.833L261.815 280.313L261.175 280.793V281.673C261.175 281.86 261.212 282.003 261.285 282.103C261.365 282.197 261.465 282.26 261.585 282.293C261.705 282.32 261.832 282.333 261.965 282.333H262.015V282.783H259.195ZM265.741 278.403C265.695 278.263 265.638 278.157 265.571 278.083C265.511 278.003 265.438 277.95 265.351 277.923C265.271 277.89 265.165 277.873 265.031 277.873H265.001V277.423H267.601V277.873H267.471C267.271 277.873 267.121 277.903 267.021 277.963C266.921 278.017 266.871 278.127 266.871 278.293C266.871 278.347 266.878 278.413 266.891 278.493C266.911 278.573 266.931 278.65 266.951 278.723L267.391 280.303C267.438 280.463 267.481 280.637 267.521 280.823C267.561 281.01 267.598 281.19 267.631 281.363C267.671 281.53 267.701 281.67 267.721 281.783H267.751C267.771 281.67 267.801 281.54 267.841 281.393C267.881 281.247 267.928 281.09 267.981 280.923C268.035 280.757 268.088 280.593 268.141 280.433L269.171 277.463H269.811L270.801 280.413C270.841 280.533 270.881 280.657 270.921 280.783C270.961 280.91 270.998 281.037 271.031 281.163C271.071 281.29 271.105 281.407 271.131 281.513C271.158 281.62 271.178 281.71 271.191 281.783H271.221C271.241 281.67 271.268 281.55 271.301 281.423C271.335 281.29 271.371 281.143 271.411 280.983C271.458 280.817 271.511 280.633 271.571 280.433L272.061 278.863C272.088 278.777 272.108 278.687 272.121 278.593C272.141 278.493 272.151 278.417 272.151 278.363C272.151 278.19 272.095 278.067 271.981 277.993C271.875 277.913 271.711 277.873 271.491 277.873H271.421V277.423H273.601V277.873H273.471C273.345 277.873 273.238 277.893 273.151 277.933C273.065 277.967 272.988 278.04 272.921 278.153C272.855 278.267 272.788 278.433 272.721 278.653L271.431 282.783H270.551L269.261 278.843L267.911 282.783H267.041L265.741 278.403ZM275.645 282.883C275.351 282.883 275.085 282.827 274.845 282.713C274.611 282.593 274.428 282.417 274.295 282.183C274.161 281.943 274.095 281.64 274.095 281.273C274.095 280.74 274.281 280.347 274.655 280.093C275.028 279.833 275.598 279.69 276.365 279.663L277.185 279.633V279.053C277.185 278.813 277.165 278.603 277.125 278.423C277.091 278.243 277.015 278.103 276.895 278.003C276.775 277.897 276.591 277.843 276.345 277.843C276.111 277.843 275.931 277.89 275.805 277.983C275.685 278.077 275.601 278.207 275.555 278.373C275.515 278.533 275.495 278.72 275.495 278.933C275.175 278.933 274.931 278.887 274.765 278.793C274.598 278.693 274.515 278.527 274.515 278.293C274.515 278.053 274.598 277.863 274.765 277.723C274.938 277.583 275.165 277.48 275.445 277.413C275.731 277.347 276.045 277.313 276.385 277.313C277.018 277.313 277.491 277.443 277.805 277.703C278.125 277.963 278.285 278.407 278.285 279.033V281.613C278.285 281.8 278.305 281.947 278.345 282.053C278.385 282.153 278.451 282.227 278.545 282.273C278.638 282.313 278.758 282.333 278.905 282.333H278.935V282.783H277.445L277.275 281.973H277.185C277.045 282.153 276.908 282.313 276.775 282.453C276.641 282.587 276.488 282.693 276.315 282.773C276.141 282.847 275.918 282.883 275.645 282.883ZM275.965 282.233C276.218 282.233 276.435 282.18 276.615 282.073C276.795 281.96 276.935 281.8 277.035 281.593C277.135 281.387 277.185 281.147 277.185 280.873V280.083L276.595 280.113C276.248 280.127 275.975 280.183 275.775 280.283C275.575 280.377 275.431 280.51 275.345 280.683C275.265 280.857 275.225 281.07 275.225 281.323C275.225 281.523 275.251 281.693 275.305 281.833C275.358 281.967 275.438 282.067 275.545 282.133C275.658 282.2 275.798 282.233 275.965 282.233ZM279.627 282.783V282.333H279.657C279.811 282.333 279.947 282.317 280.067 282.283C280.194 282.25 280.291 282.183 280.357 282.083C280.431 281.977 280.467 281.82 280.467 281.613V278.553C280.467 278.353 280.431 278.207 280.357 278.113C280.284 278.013 280.187 277.95 280.067 277.923C279.954 277.89 279.824 277.873 279.677 277.873H279.647V277.423H281.317L281.507 278.353H281.557C281.644 278.153 281.737 277.977 281.837 277.823C281.944 277.663 282.081 277.54 282.247 277.453C282.421 277.36 282.651 277.313 282.937 277.313C283.311 277.313 283.587 277.38 283.767 277.513C283.947 277.647 284.037 277.833 284.037 278.073C284.037 278.307 283.954 278.497 283.787 278.643C283.627 278.783 283.371 278.853 283.017 278.853C283.017 278.667 283.001 278.517 282.967 278.403C282.934 278.283 282.881 278.197 282.807 278.143C282.734 278.083 282.631 278.053 282.497 278.053C282.317 278.053 282.164 278.123 282.037 278.263C281.917 278.403 281.824 278.58 281.757 278.793C281.691 279.007 281.641 279.227 281.607 279.453C281.581 279.68 281.567 279.88 281.567 280.053V281.663C281.567 281.857 281.604 282.003 281.677 282.103C281.751 282.197 281.844 282.26 281.957 282.293C282.077 282.32 282.211 282.333 282.357 282.333H282.647V282.783H279.627ZM286.601 282.883C286.107 282.883 285.741 282.77 285.501 282.543C285.261 282.31 285.141 281.903 285.141 281.323V278.023H284.391V277.593C284.531 277.593 284.677 277.563 284.831 277.503C284.984 277.443 285.114 277.357 285.221 277.243C285.334 277.13 285.427 276.99 285.501 276.823C285.574 276.65 285.634 276.44 285.681 276.193H286.241V277.423H287.541V278.023H286.241V281.323C286.241 281.65 286.304 281.89 286.431 282.043C286.564 282.197 286.747 282.273 286.981 282.273C287.101 282.273 287.211 282.267 287.311 282.253C287.417 282.24 287.524 282.223 287.631 282.203V282.703C287.544 282.743 287.404 282.783 287.211 282.823C287.017 282.863 286.814 282.883 286.601 282.883ZM288.073 282.783V282.333H288.203C288.336 282.333 288.463 282.32 288.583 282.293C288.703 282.26 288.799 282.197 288.873 282.103C288.953 282.003 288.993 281.86 288.993 281.673V278.533C288.993 278.34 288.953 278.197 288.873 278.103C288.799 278.01 288.703 277.95 288.583 277.923C288.463 277.89 288.336 277.873 288.203 277.873H288.153V277.423H290.093V281.633C290.093 281.833 290.129 281.983 290.203 282.083C290.276 282.183 290.373 282.25 290.493 282.283C290.619 282.317 290.749 282.333 290.883 282.333H291.013V282.783H288.073ZM289.503 276.453C289.316 276.453 289.159 276.403 289.033 276.303C288.913 276.203 288.853 276.037 288.853 275.803C288.853 275.563 288.916 275.397 289.043 275.303C289.169 275.203 289.323 275.153 289.503 275.153C289.676 275.153 289.826 275.203 289.953 275.303C290.086 275.397 290.153 275.563 290.153 275.803C290.153 276.037 290.086 276.203 289.953 276.303C289.826 276.403 289.676 276.453 289.503 276.453ZM294.074 282.883C293.314 282.883 292.724 282.643 292.304 282.163C291.89 281.683 291.684 281.01 291.684 280.143C291.684 279.203 291.884 278.497 292.284 278.023C292.684 277.55 293.247 277.313 293.974 277.313C294.64 277.313 295.164 277.517 295.544 277.923C295.93 278.323 296.124 278.92 296.124 279.713V280.183H292.814C292.827 280.657 292.887 281.047 292.994 281.353C293.107 281.653 293.267 281.873 293.474 282.013C293.687 282.153 293.947 282.223 294.254 282.223C294.487 282.223 294.694 282.19 294.874 282.123C295.06 282.05 295.22 281.96 295.354 281.853C295.494 281.74 295.604 281.62 295.684 281.493C295.744 281.52 295.794 281.567 295.834 281.633C295.874 281.7 295.894 281.78 295.894 281.873C295.894 282.02 295.827 282.173 295.694 282.333C295.567 282.487 295.367 282.617 295.094 282.723C294.827 282.83 294.487 282.883 294.074 282.883ZM294.974 279.613C294.974 279.267 294.94 278.963 294.874 278.703C294.807 278.443 294.7 278.243 294.554 278.103C294.407 277.957 294.21 277.883 293.964 277.883C293.737 277.883 293.54 277.95 293.374 278.083C293.214 278.217 293.087 278.413 292.994 278.673C292.907 278.927 292.854 279.24 292.834 279.613H294.974ZM296.893 282.783V282.333H296.923C297.076 282.333 297.213 282.317 297.333 282.283C297.459 282.25 297.556 282.183 297.623 282.083C297.696 281.977 297.733 281.82 297.733 281.613V278.553C297.733 278.353 297.696 278.207 297.623 278.113C297.549 278.013 297.453 277.95 297.333 277.923C297.219 277.89 297.089 277.873 296.943 277.873H296.913V277.423H298.583L298.773 278.353H298.823C298.909 278.153 299.003 277.977 299.103 277.823C299.209 277.663 299.346 277.54 299.513 277.453C299.686 277.36 299.916 277.313 300.203 277.313C300.576 277.313 300.853 277.38 301.033 277.513C301.213 277.647 301.303 277.833 301.303 278.073C301.303 278.307 301.219 278.497 301.053 278.643C300.893 278.783 300.636 278.853 300.283 278.853C300.283 278.667 300.266 278.517 300.233 278.403C300.199 278.283 300.146 278.197 300.073 278.143C299.999 278.083 299.896 278.053 299.763 278.053C299.583 278.053 299.429 278.123 299.303 278.263C299.183 278.403 299.089 278.58 299.023 278.793C298.956 279.007 298.906 279.227 298.873 279.453C298.846 279.68 298.833 279.88 298.833 280.053V281.663C298.833 281.857 298.869 282.003 298.943 282.103C299.016 282.197 299.109 282.26 299.223 282.293C299.343 282.32 299.476 282.333 299.623 282.333H299.913V282.783H296.893Z" fill="black"/>
<path d="M199.618 326V323.792L203.338 319.784C204.042 319.048 204.626 318.376 205.09 317.768C205.554 317.16 205.914 316.592 206.17 316.064C206.442 315.52 206.634 314.984 206.746 314.456C206.874 313.928 206.938 313.368 206.938 312.776C206.938 312.168 206.85 311.656 206.674 311.24C206.514 310.824 206.282 310.512 205.978 310.304C205.674 310.096 205.29 309.992 204.826 309.992C204.218 309.992 203.738 310.152 203.386 310.472C203.05 310.792 202.81 311.248 202.666 311.84C202.538 312.416 202.474 313.112 202.474 313.928C201.946 313.928 201.474 313.864 201.058 313.736C200.658 313.592 200.346 313.368 200.122 313.064C199.898 312.76 199.786 312.36 199.786 311.864C199.786 311.256 199.97 310.712 200.338 310.232C200.722 309.736 201.29 309.344 202.042 309.056C202.794 308.768 203.722 308.624 204.826 308.624C205.962 308.624 206.922 308.784 207.706 309.104C208.49 309.424 209.082 309.888 209.482 310.496C209.898 311.088 210.106 311.792 210.106 312.608C210.106 313.056 210.042 313.496 209.914 313.928C209.786 314.36 209.594 314.8 209.338 315.248C209.082 315.696 208.746 316.184 208.33 316.712C207.914 317.224 207.402 317.792 206.794 318.416C206.202 319.04 205.514 319.736 204.73 320.504L201.706 323.624H207.274C207.85 323.624 208.29 323.472 208.594 323.168C208.914 322.848 209.146 322.432 209.29 321.92L209.434 321.296H210.706L210.586 326H199.618ZM218.664 326.24C217.256 326.24 216.128 325.872 215.28 325.136C214.432 324.4 213.816 323.368 213.432 322.04C213.048 320.712 212.856 319.16 212.856 317.384C212.856 315.608 213.048 314.064 213.432 312.752C213.816 311.44 214.432 310.424 215.28 309.704C216.128 308.984 217.264 308.624 218.688 308.624C220.032 308.624 221.12 308.984 221.952 309.704C222.8 310.424 223.424 311.448 223.824 312.776C224.24 314.088 224.448 315.632 224.448 317.408C224.448 319.184 224.24 320.736 223.824 322.064C223.424 323.376 222.8 324.4 221.952 325.136C221.104 325.872 220.008 326.24 218.664 326.24ZM218.664 324.776C219.16 324.776 219.568 324.616 219.888 324.296C220.224 323.96 220.48 323.48 220.656 322.856C220.848 322.216 220.984 321.44 221.064 320.528C221.144 319.616 221.184 318.576 221.184 317.408C221.184 316.24 221.144 315.208 221.064 314.312C221 313.4 220.872 312.632 220.68 312.008C220.488 311.384 220.224 310.912 219.888 310.592C219.568 310.256 219.168 310.088 218.688 310.088C218.192 310.088 217.776 310.256 217.44 310.592C217.104 310.912 216.84 311.384 216.648 312.008C216.456 312.632 216.32 313.4 216.24 314.312C216.16 315.208 216.12 316.24 216.12 317.408C216.12 318.576 216.16 319.616 216.24 320.528C216.32 321.44 216.456 322.216 216.648 322.856C216.84 323.48 217.096 323.96 217.416 324.296C217.752 324.616 218.168 324.776 218.664 324.776ZM226.43 326V323.792L230.15 319.784C230.854 319.048 231.438 318.376 231.902 317.768C232.366 317.16 232.726 316.592 232.982 316.064C233.254 315.52 233.446 314.984 233.558 314.456C233.686 313.928 233.75 313.368 233.75 312.776C233.75 312.168 233.662 311.656 233.486 311.24C233.326 310.824 233.094 310.512 232.79 310.304C232.486 310.096 232.102 309.992 231.638 309.992C231.03 309.992 230.55 310.152 230.198 310.472C229.862 310.792 229.622 311.248 229.478 311.84C229.35 312.416 229.286 313.112 229.286 313.928C228.758 313.928 228.286 313.864 227.87 313.736C227.47 313.592 227.158 313.368 226.934 313.064C226.71 312.76 226.598 312.36 226.598 311.864C226.598 311.256 226.782 310.712 227.15 310.232C227.534 309.736 228.102 309.344 228.854 309.056C229.606 308.768 230.534 308.624 231.638 308.624C232.774 308.624 233.734 308.784 234.518 309.104C235.302 309.424 235.894 309.888 236.294 310.496C236.71 311.088 236.918 311.792 236.918 312.608C236.918 313.056 236.854 313.496 236.726 313.928C236.598 314.36 236.406 314.8 236.15 315.248C235.894 315.696 235.558 316.184 235.142 316.712C234.726 317.224 234.214 317.792 233.606 318.416C233.014 319.04 232.326 319.736 231.542 320.504L228.518 323.624H234.086C234.662 323.624 235.102 323.472 235.406 323.168C235.726 322.848 235.958 322.432 236.102 321.92L236.246 321.296H237.518L237.398 326H226.43ZM243.388 326V324.824H244.06C244.428 324.824 244.756 324.784 245.044 324.704C245.348 324.624 245.588 324.464 245.764 324.224C245.94 323.968 246.028 323.592 246.028 323.096V321.44H239.116V320.168L246.148 308.864H249.076V319.952H251.764V321.44H249.076V323.096C249.076 323.592 249.164 323.968 249.34 324.224C249.516 324.464 249.756 324.624 250.06 324.704C250.364 324.784 250.692 324.824 251.044 324.824H251.356V326H243.388ZM240.796 319.952H246.028V315.656C246.028 315.304 246.028 314.936 246.028 314.552C246.044 314.152 246.052 313.744 246.052 313.328C246.068 312.912 246.084 312.504 246.1 312.104C246.132 311.688 246.164 311.296 246.196 310.928C246.116 311.104 245.988 311.352 245.812 311.672C245.652 311.992 245.468 312.336 245.26 312.704C245.052 313.072 244.852 313.416 244.66 313.736C244.468 314.04 244.316 314.28 244.204 314.456L240.796 319.952Z" fill="#0AB52F"/>
<rect x="127.5" y="410.38" width="206" height="2.3896" fill="black"/>
<rect x="127.5" y="415.159" width="206" height="5.974" fill="black"/>
<rect x="127.5" y="122.433" width="206" height="5.974" fill="black"/>
<rect x="127.5" y="130.797" width="206" height="2.3896" fill="black"/>
<rect x="331.759" y="122.512" width="53.5719" height="5.974" transform="rotate(-3.94662 331.759 122.512)" fill="black"/>
<rect x="332.335" y="130.855" width="53.5719" height="2.3896" transform="rotate(-3.94662 332.335 130.855)" fill="black"/>
<rect x="389.546" y="403.924" width="58.6119" height="5.974" transform="rotate(162.532 389.546 403.924)" fill="black"/>
<rect x="387.035" y="395.946" width="58.6119" height="2.3896" transform="rotate(162.532 387.035 395.946)" fill="black"/>
<rect width="53.5719" height="5.974" transform="matrix(-0.997629 -0.0688271 -0.0688271 0.997629 130.353 122.687)" fill="black"/>
<rect width="53.5719" height="2.3896" transform="matrix(-0.997629 -0.0688271 -0.0688271 0.997629 129.778 131.031)" fill="black"/>
<rect width="58.6119" height="5.974" transform="matrix(0.953883 0.300177 0.300177 -0.953883 72.5667 404.099)" fill="black"/>
<rect width="58.6119" height="2.3896" transform="matrix(0.953883 0.300177 0.300177 -0.953883 75.0772 396.122)" fill="black"/>
<rect x="129.5" y="121.5" width="201" height="300" stroke="black" stroke-opacity="0.1"/>
</g>
<defs>
<filter id="filter0_i_1_5" x="90" y="70" width="280" height="30" filterUnits="userSpaceOnUse" color-interpolation-filters="sRGB">
<feFlood flood-opacity="0" result="BackgroundImageFix"/>
<feBlend mode="normal" in="SourceGraphic" in2="BackgroundImageFix" result="shape"/>
<feColorMatrix in="SourceAlpha" type="matrix" values="0 0 0 0 0 0 0 0 0 0 0 0 0 0 0 0 0 0 127 0" result="hardAlpha"/>
<feOffset/>
<feGaussianBlur stdDeviation="2"/>
<feComposite in2="hardAlpha" operator="arithmetic" k2="-1" k3="1"/>
<feColorMatrix type="matrix" values="0 0 0 0 0 0 0 0 0 0 0 0 0 0 0 0 0 0 0.25 0"/>
<feBlend mode="normal" in2="shape" result="effect1_innerShadow_1_5"/>
</filter>
<filter id="filter1_i_1_5" x="90" y="60" width="280" height="14" filterUnits="userSpaceOnUse" color-interpolation-filters="sRGB">
<feFlood flood-opacity="0" result="BackgroundImageFix"/>
<feBlend mode="normal" in="SourceGraphic" in2="BackgroundImageFix" result="shape"/>
<feColorMatrix in="SourceAlpha" type="matrix" values="0 0 0 0 0 0 0 0 0 0 0 0 0 0 0 0 0 0 127 0" result="hardAlpha"/>
<feOffset dy="4"/>
<feGaussianBlur stdDeviation="2"/>
<feComposite in2="hardAlpha" operator="arithmetic" k2="-1" k3="1"/>
<feColorMatrix type="matrix" values="0 0 0 0 0 0 0 0 0 0 0 0 0 0 0 0 0 0 0.25 0"/>
<feBlend mode="normal" in2="shape" result="effect1_innerShadow_1_5"/>
</filter>
<filter id="filter2_i_1_5" x="60" y="10" width="340" height="54" filterUnits="userSpaceOnUse" color-interpolation-filters="sRGB">
<feFlood flood-opacity="0" result="BackgroundImageFix"/>
<feBlend mode="normal" in="SourceGraphic" in2="BackgroundImageFix" result="shape"/>
<feColorMatrix in="SourceAlpha" type="matrix" values="0 0 0 0 0 0 0 0 0 0 0 0 0 0 0 0 0 0 127 0" result="hardAlpha"/>
<feOffset dy="4"/>
<feGaussianBlur stdDeviation="2"/>
<feComposite in2="hardAlpha" operator="arithmetic" k2="-1" k3="1"/>
<feColorMatrix type="matrix" values="0 0 0 0 0 0 0 0 0 0 0 0 0 0 0 0 0 0 0.25 0"/>
<feBlend mode="normal" in2="shape" result="effect1_innerShadow_1_5"/>
</filter>
<filter id="filter3_i_1_5" x="130" y="89.5062" width="200" height="360.494" filterUnits="userSpaceOnUse" color-interpolation-filters="sRGB">
<feFlood flood-opacity="0" result="BackgroundImageFix"/>
<feBlend mode="normal" in="SourceGraphic" in2="BackgroundImageFix" result="shape"/>
<feColorMatrix in="SourceAlpha" type="matrix" values="0 0 0 0 0 0 0 0 0 0 0 0 0 0 0 0 0 0 127 0" result="hardAlpha"/>
<feOffset/>
<feGaussianBlur stdDeviation="3"/>
<feComposite in2="hardAlpha" operator="arithmetic" k2="-1" k3="1"/>
<feColorMatrix type="matrix" values="0 0 0 0 0 0 0 0 0 0 0 0 0 0 0 0 0 0 0.25 0"/>
<feBlend mode="normal" in2="shape" result="effect1_innerShadow_1_5"/>
</filter>
<filter id="filter4_i_1_5" x="50" y="85.3473" width="80" height="364.653" filterUnits="userSpaceOnUse" color-interpolation-filters="sRGB">
<feFlood flood-opacity="0" result="BackgroundImageFix"/>
<feBlend mode="normal" in="SourceGraphic" in2="BackgroundImageFix" result="shape"/>
<feColorMatrix in="SourceAlpha" type="matrix" values="0 0 0 0 0 0 0 0 0 0 0 0 0 0 0 0 0 0 127 0" result="hardAlpha"/>
<feOffset/>
<feGaussianBlur stdDeviation="2"/>
<feComposite in2="hardAlpha" operator="arithmetic" k2="-1" k3="1"/>
<feColorMatrix type="matrix" values="0 0 0 0 0 0 0 0 0 0 0 0 0 0 0 0 0 0 0.25 0"/>
<feBlend mode="normal" in2="shape" result="effect1_innerShadow_1_5"/>
</filter>
<filter id="filter5_i_1_5" x="330" y="85.3473" width="80" height="364.653" filterUnits="userSpaceOnUse" color-interpolation-filters="sRGB">
<feFlood flood-opacity="0" result="BackgroundImageFix"/>
<feBlend mode="normal" in="SourceGraphic" in2="BackgroundImageFix" result="shape"/>
<feColorMatrix in="SourceAlpha" type="matrix" values="0 0 0 0 0 0 0 0 0 0 0 0 0 0 0 0 0 0 127 0" result="hardAlpha"/>
<feOffset/>
<feGaussianBlur stdDeviation="2"/>
<feComposite in2="hardAlpha" operator="arithmetic" k2="-1" k3="1"/>
<feColorMatrix type="matrix" values="0 0 0 0 0 0 0 0 0 0 0 0 0 0 0 0 0 0 0.25 0"/>
<feBlend mode="normal" in2="shape" result="effect1_innerShadow_1_5"/>
</filter>
</defs>
</svg>
