<svg width="460" height="460" viewBox="0 0 460 460" fill="none" xmlns="http://www.w3.org/2000/svg">
<g filter="url(#filter0_i_1_5)">
<rect x="90" y="81.25" width="280" height="18.75" fill="#E39F1F"/>
<rect x="90" y="81.25" width="280" height="18.75" fill="black" fill-opacity="0.1"/>
</g>
<g filter="url(#filter1_i_1_5)">
<rect x="90" y="75" width="280" height="6.25" fill="#D9D9D9"/>
</g>
<g filter="url(#filter2_i_1_5)">
<rect x="50" y="25" width="360" height="50" rx="4" fill="#3A3434"/>
</g>
<g filter="url(#filter3_i_1_5)">
<rect x="130" y="90" width="200" height="360" fill="#E39F1F"/>
</g>
<g filter="url(#filter4_i_1_5)">
<path d="M130 90L56.3743 85.3984C52.9201 85.1825 50 87.9258 50 91.3867V425.315C50 428.069 51.8738 430.468 54.5448 431.136L130 450V90Z" fill="#E39F1F"/>
<path d="M130 90L56.3743 85.3984C52.9201 85.1825 50 87.9258 50 91.3867V425.315C50 428.069 51.8738 430.468 54.5448 431.136L130 450V90Z" fill="black" fill-opacity="0.05"/>
</g>
<g filter="url(#filter5_i_1_5)">
<path d="M330 90L403.626 85.3984C407.08 85.1825 410 87.9258 410 91.3867V425.315C410 428.069 408.126 430.468 405.455 431.136L330 450V90Z" fill="#E39F1F"/>
<path d="M330 90L403.626 85.3984C407.08 85.1825 410 87.9258 410 91.3867V425.315C410 428.069 408.126 430.468 405.455 431.136L330 450V90Z" fill="black" fill-opacity="0.05"/>
</g>
<mask id="mask0_1_5" style="mask-type:alpha" maskUnits="userSpaceOnUse" x="70" y="118" width="320" height="304">
<path d="M330 122L390 118.25V407L330 422V122Z" fill="#FFD74B"/>
<path d="M330 122L390 118.25V407L330 422V122Z" fill="black" fill-opacity="0.05"/>
<path d="M130 122L70 118.25V407L130 422V122Z" fill="#FFD74B"/>
<path d="M130 122L70 118.25V407L130 422V122Z" fill="black" fill-opacity="0.05"/>
<path d="M130 122H330V422H130V122Z" fill="#FFD74B"/>
</mask>
<g mask="url(#mask0_1_5)">
<g filter="url(#filter6_i_1_5)">
<path d="M330 122L390 118.25V407L330 422V122Z" fill="#FFD74B"/>
<path d="M330 122L390 118.25V407L330 422V122Z" fill="black" fill-opacity="0.05"/>
</g>
<g filter="url(#filter7_i_1_5)">
<path d="M130 122L70 118.25V407L130 422V122Z" fill="#FFD74B"/>
<path d="M130 122L70 118.25V407L130 422V122Z" fill="black" fill-opacity="0.05"/>
</g>
<rect x="130" y="122" width="200" height="300" fill="#FFD74B"/>
<rect x="130" y="122" width="200" height="300" fill="white" fill-opacity="0.7"/>
<rect x="129.5" y="121.5" width="201" height="301" stroke="black" stroke-opacity="0.1"/>
<path d="M130 122.649L132.778 117.757H138.333L141.111 122.649L138.333 127.542H132.778L130 122.649Z" fill="#FFD74B"/>
<path d="M139.444 128.298L142.222 123.406H147.778L150.556 128.298L147.778 133.191H142.222L139.444 128.298Z" fill="#FFD74B"/>
<path d="M130 133.948L132.778 129.055H138.333L141.111 133.948L138.333 138.84H132.778L130 133.948Z" fill="#FFD74B"/>
<path d="M139.444 139.597L142.222 134.704H147.778L150.556 139.597L147.778 144.489H142.222L139.444 139.597Z" fill="#FFD74B"/>
<path d="M130 145.246L132.778 140.354H138.333L141.111 145.246L138.333 150.138H132.778L130 145.246Z" fill="#FFD74B"/>
<path d="M139.444 150.895L142.222 146.003H147.778L150.556 150.895L147.778 155.787H142.222L139.444 150.895Z" fill="#FFD74B"/>
<path d="M130 156.544L132.778 151.652H138.333L141.111 156.544L138.333 161.437H132.778L130 156.544Z" fill="#FFD74B"/>
<path d="M148.889 122.649L151.667 117.757H157.222L160 122.649L157.222 127.542H151.667L148.889 122.649Z" fill="#FFD74B"/>
<path d="M158.333 128.298L161.111 123.406H166.667L169.444 128.298L166.667 133.191H161.111L158.333 128.298Z" fill="#FFD74B"/>
<path d="M148.889 133.948L151.667 129.055H157.222L160 133.948L157.222 138.84H151.667L148.889 133.948Z" fill="#FFD74B"/>
<path d="M158.333 139.597L161.111 134.704H166.667L169.444 139.597L166.667 144.489H161.111L158.333 139.597Z" fill="#FFD74B"/>
<path d="M148.889 145.246L151.667 140.354H157.222L160 145.246L157.222 150.138H151.667L148.889 145.246Z" fill="#FFD74B"/>
<path d="M158.333 150.895L161.111 146.003H166.667L169.444 150.895L166.667 155.787H161.111L158.333 150.895Z" fill="#FFD74B"/>
<path d="M167.778 122.649L170.556 117.757H176.111L178.889 122.649L176.111 127.542H170.556L167.778 122.649Z" fill="#FFD74B"/>
<path d="M177.222 128.298L180 123.406H185.556L188.333 128.298L185.556 133.191H180L177.222 128.298Z" fill="#FFD74B"/>
<path d="M167.778 133.948L170.556 129.055H176.111L178.889 133.948L176.111 138.84H170.556L167.778 133.948Z" fill="#FFD74B"/>
<path d="M177.222 139.597L180 134.704H185.556L188.333 139.597L185.556 144.489H180L177.222 139.597Z" fill="#FFD74B"/>
<path d="M167.778 145.246L170.556 140.354H176.111L178.889 145.246L176.111 150.138H170.556L167.778 145.246Z" fill="#FFD74B"/>
<path d="M177.222 150.895L180 146.003H185.556L188.333 150.895L185.556 155.787H180L177.222 150.895Z" fill="#FFD74B"/>
<path d="M186.667 122.649L189.444 117.757H195L197.778 122.649L195 127.542H189.444L186.667 122.649Z" fill="#FFD74B"/>
<path d="M196.111 128.298L198.889 123.406H204.444L207.222 128.298L204.444 133.191H198.889L196.111 128.298Z" fill="#FFD74B"/>
<path d="M186.667 133.948L189.444 129.055H195L197.778 133.948L195 138.84H189.444L186.667 133.948Z" fill="#FFD74B"/>
<path d="M196.111 139.597L198.889 134.704H204.444L207.222 139.597L204.444 144.489H198.889L196.111 139.597Z" fill="#FFD74B"/>
<path d="M186.667 145.246L189.444 140.354H195L197.778 145.246L195 150.138H189.444L186.667 145.246Z" fill="#FFD74B"/>
<path d="M196.111 150.895L198.889 146.003H204.444L207.222 150.895L204.444 155.787H198.889L196.111 150.895Z" fill="#FFD74B"/>
<path d="M205.556 122.649L208.333 117.757H213.889L216.667 122.649L213.889 127.542H208.333L205.556 122.649Z" fill="#FFD74B"/>
<path d="M215 128.298L217.778 123.406H223.333L226.111 128.298L223.333 133.191H217.778L215 128.298Z" fill="#FFD74B"/>
<path d="M205.556 133.948L208.333 129.055H213.889L216.667 133.948L213.889 138.84H208.333L205.556 133.948Z" fill="#FFD74B"/>
<path d="M215 139.597L217.778 134.704H223.333L226.111 139.597L223.333 144.489H217.778L215 139.597Z" fill="#FFD74B"/>
<path d="M205.556 145.246L208.333 140.354H213.889L216.667 145.246L213.889 150.138H208.333L205.556 145.246Z" fill="#FFD74B"/>
<path d="M215 150.895L217.778 146.003H223.333L226.111 150.895L223.333 155.787H217.778L215 150.895Z" fill="#FFD74B"/>
<path d="M224.444 122.649L227.222 117.757H232.778L235.556 122.649L232.778 127.542H227.222L224.444 122.649Z" fill="#FFD74B"/>
<path d="M233.889 128.298L236.667 123.406H242.222L245 128.298L242.222 133.191H236.667L233.889 128.298Z" fill="#FFD74B"/>
<path d="M224.444 133.948L227.222 129.055H232.778L235.556 133.948L232.778 138.84H227.222L224.444 133.948Z" fill="#FFD74B"/>
<path d="M233.889 139.597L236.667 134.704H242.222L245 139.597L242.222 144.489H236.667L233.889 139.597Z" fill="#FFD74B"/>
<path d="M224.444 145.246L227.222 140.354H232.778L235.556 145.246L232.778 150.138H227.222L224.444 145.246Z" fill="#FFD74B"/>
<path d="M233.889 150.895L236.667 146.003H242.222L245 150.895L242.222 155.787H236.667L233.889 150.895Z" fill="#FFD74B"/>
<path d="M243.333 122.649L246.111 117.757H251.667L254.444 122.649L251.667 127.542H246.111L243.333 122.649Z" fill="#FFD74B"/>
<path d="M252.778 128.298L255.556 123.406H261.111L263.889 128.298L261.111 133.191H255.556L252.778 128.298Z" fill="#FFD74B"/>
<path d="M243.333 133.948L246.111 129.055H251.667L254.444 133.948L251.667 138.84H246.111L243.333 133.948Z" fill="#FFD74B"/>
<path d="M252.778 139.597L255.556 134.704H261.111L263.889 139.597L261.111 144.489H255.556L252.778 139.597Z" fill="#FFD74B"/>
<path d="M243.333 145.246L246.111 140.354H251.667L254.444 145.246L251.667 150.138H246.111L243.333 145.246Z" fill="#FFD74B"/>
<path d="M252.778 150.895L255.556 146.003H261.111L263.889 150.895L261.111 155.787H255.556L252.778 150.895Z" fill="#FFD74B"/>
<path d="M262.222 122.649L265 117.757H270.556L273.333 122.649L270.556 127.542H265L262.222 122.649Z" fill="#FFD74B"/>
<path d="M271.667 128.298L274.444 123.406H280L282.778 128.298L280 133.191H274.444L271.667 128.298Z" fill="#FFD74B"/>
<path d="M262.222 133.948L265 129.055H270.556L273.333 133.948L270.556 138.84H265L262.222 133.948Z" fill="#FFD74B"/>
<path d="M271.667 139.597L274.444 134.704H280L282.778 139.597L280 144.489H274.444L271.667 139.597Z" fill="#FFD74B"/>
<path d="M262.222 145.246L265 140.354H270.556L273.333 145.246L270.556 150.138H265L262.222 145.246Z" fill="#FFD74B"/>
<path d="M271.667 150.895L274.444 146.003H280L282.778 150.895L280 155.787H274.444L271.667 150.895Z" fill="#FFD74B"/>
<path d="M281.111 122.649L283.889 117.757H289.444L292.222 122.649L289.444 127.542H283.889L281.111 122.649Z" fill="#FFD74B"/>
<path d="M290.556 128.298L293.333 123.406H298.889L301.667 128.298L298.889 133.191H293.333L290.556 128.298Z" fill="#FFD74B"/>
<path d="M281.111 133.948L283.889 129.055H289.444L292.222 133.948L289.444 138.84H283.889L281.111 133.948Z" fill="#FFD74B"/>
<path d="M290.556 139.597L293.333 134.704H298.889L301.667 139.597L298.889 144.489H293.333L290.556 139.597Z" fill="#FFD74B"/>
<path d="M281.111 145.246L283.889 140.354H289.444L292.222 145.246L289.444 150.138H283.889L281.111 145.246Z" fill="#FFD74B"/>
<path d="M290.556 150.895L293.333 146.003H298.889L301.667 150.895L298.889 155.787H293.333L290.556 150.895Z" fill="#FFD74B"/>
<path d="M300 122.649L302.778 117.757H308.333L311.111 122.649L308.333 127.542H302.778L300 122.649Z" fill="#FFD74B"/>
<path d="M309.444 128.298L312.222 123.406H317.778L320.556 128.298L317.778 133.191H312.222L309.444 128.298Z" fill="#FFD74B"/>
<path d="M300 133.948L302.778 129.055H308.333L311.111 133.948L308.333 138.84H302.778L300 133.948Z" fill="#FFD74B"/>
<path d="M309.444 139.597L312.222 134.704H317.778L320.556 139.597L317.778 144.489H312.222L309.444 139.597Z" fill="#FFD74B"/>
<path d="M300 145.246L302.778 140.354H308.333L311.111 145.246L308.333 150.138H302.778L300 145.246Z" fill="#FFD74B"/>
<path d="M309.444 150.895L312.222 146.003H317.778L320.556 150.895L317.778 155.787H312.222L309.444 150.895Z" fill="#FFD74B"/>
<path d="M318.889 122.649L321.667 117.757H327.222L330 122.649L327.222 127.542H321.667L318.889 122.649Z" fill="#FFD74B"/>
<path d="M318.889 133.948L321.667 129.055H327.222L330 133.948L327.222 138.84H321.667L318.889 133.948Z" fill="#FFD74B"/>
<path d="M318.889 145.246L321.667 140.354H327.222L330 145.246L327.222 150.138H321.667L318.889 145.246Z" fill="#FFD74B"/>
<path d="M318.889 156.544L321.667 151.652H327.222L330 156.544L327.222 161.437H321.667L318.889 156.544Z" fill="#FFD74B"/>
<path d="M330 420.34L327.222 425.242H321.667L318.889 420.34L321.667 415.438H327.222L330 420.34Z" fill="#FFD74B"/>
<path d="M320.556 414.679L317.778 419.581H312.222L309.444 414.679L312.222 409.777H317.778L320.556 414.679Z" fill="#FFD74B"/>
<path d="M330 409.019L327.222 413.921H321.667L318.889 409.019L321.667 404.117H327.222L330 409.019Z" fill="#FFD74B"/>
<path d="M320.556 403.358L317.778 408.26H312.222L309.444 403.358L312.222 398.456H317.778L320.556 403.358Z" fill="#FFD74B"/>
<path d="M330 397.698L327.222 402.6H321.667L318.889 397.698L321.667 392.796H327.222L330 397.698Z" fill="#FFD74B"/>
<path d="M320.556 392.038L317.778 396.94H312.222L309.444 392.038L312.222 387.135H317.778L320.556 392.038Z" fill="#FFD74B"/>
<path d="M330 386.377L327.222 391.279H321.667L318.889 386.377L321.667 381.475H327.222L330 386.377Z" fill="#FFD74B"/>
<path d="M311.111 420.34L308.333 425.242H302.778L300 420.34L302.778 415.438H308.333L311.111 420.34Z" fill="#FFD74B"/>
<path d="M301.667 414.679L298.889 419.581H293.333L290.556 414.679L293.333 409.777H298.889L301.667 414.679Z" fill="#FFD74B"/>
<path d="M311.111 409.019L308.333 413.921H302.778L300 409.019L302.778 404.117H308.333L311.111 409.019Z" fill="#FFD74B"/>
<path d="M301.667 403.358L298.889 408.26H293.333L290.556 403.358L293.333 398.456H298.889L301.667 403.358Z" fill="#FFD74B"/>
<path d="M311.111 397.698L308.333 402.6H302.778L300 397.698L302.778 392.796H308.333L311.111 397.698Z" fill="#FFD74B"/>
<path d="M301.667 392.038L298.889 396.94H293.333L290.556 392.038L293.333 387.135H298.889L301.667 392.038Z" fill="#FFD74B"/>
<path d="M292.222 420.34L289.444 425.242H283.889L281.111 420.34L283.889 415.438H289.444L292.222 420.34Z" fill="#FFD74B"/>
<path d="M282.778 414.679L280 419.581H274.444L271.667 414.679L274.444 409.777H280L282.778 414.679Z" fill="#FFD74B"/>
<path d="M292.222 409.019L289.444 413.921H283.889L281.111 409.019L283.889 404.117H289.444L292.222 409.019Z" fill="#FFD74B"/>
<path d="M282.778 403.358L280 408.26H274.444L271.667 403.358L274.444 398.456H280L282.778 403.358Z" fill="#FFD74B"/>
<path d="M292.222 397.698L289.444 402.6H283.889L281.111 397.698L283.889 392.796H289.444L292.222 397.698Z" fill="#FFD74B"/>
<path d="M282.778 392.038L280 396.94H274.444L271.667 392.038L274.444 387.135H280L282.778 392.038Z" fill="#FFD74B"/>
<path d="M273.333 420.34L270.556 425.242H265L262.222 420.34L265 415.438H270.556L273.333 420.34Z" fill="#FFD74B"/>
<path d="M263.889 414.679L261.111 419.581H255.556L252.778 414.679L255.556 409.777H261.111L263.889 414.679Z" fill="#FFD74B"/>
<path d="M273.333 409.019L270.556 413.921H265L262.222 409.019L265 404.117H270.556L273.333 409.019Z" fill="#FFD74B"/>
<path d="M263.889 403.358L261.111 408.26H255.556L252.778 403.358L255.556 398.456H261.111L263.889 403.358Z" fill="#FFD74B"/>
<path d="M273.333 397.698L270.556 402.6H265L262.222 397.698L265 392.796H270.556L273.333 397.698Z" fill="#FFD74B"/>
<path d="M263.889 392.038L261.111 396.94H255.556L252.778 392.038L255.556 387.135H261.111L263.889 392.038Z" fill="#FFD74B"/>
<path d="M254.444 420.34L251.667 425.242H246.111L243.333 420.34L246.111 415.438H251.667L254.444 420.34Z" fill="#FFD74B"/>
<path d="M245 414.679L242.222 419.581H236.667L233.889 414.679L236.667 409.777H242.222L245 414.679Z" fill="#FFD74B"/>
<path d="M254.444 409.019L251.667 413.921H246.111L243.333 409.019L246.111 404.117H251.667L254.444 409.019Z" fill="#FFD74B"/>
<path d="M245 403.358L242.222 408.26H236.667L233.889 403.358L236.667 398.456H242.222L245 403.358Z" fill="#FFD74B"/>
<path d="M254.444 397.698L251.667 402.6H246.111L243.333 397.698L246.111 392.796H251.667L254.444 397.698Z" fill="#FFD74B"/>
<path d="M245 392.038L242.222 396.94H236.667L233.889 392.038L236.667 387.135H242.222L245 392.038Z" fill="#FFD74B"/>
<path d="M235.556 420.34L232.778 425.242H227.222L224.444 420.34L227.222 415.438H232.778L235.556 420.34Z" fill="#FFD74B"/>
<path d="M226.111 414.679L223.333 419.581H217.778L215 414.679L217.778 409.777H223.333L226.111 414.679Z" fill="#FFD74B"/>
<path d="M235.556 409.019L232.778 413.921H227.222L224.444 409.019L227.222 404.117H232.778L235.556 409.019Z" fill="#FFD74B"/>
<path d="M226.111 403.358L223.333 408.26H217.778L215 403.358L217.778 398.456H223.333L226.111 403.358Z" fill="#FFD74B"/>
<path d="M235.556 397.698L232.778 402.6H227.222L224.444 397.698L227.222 392.796H232.778L235.556 397.698Z" fill="#FFD74B"/>
<path d="M226.111 392.038L223.333 396.94H217.778L215 392.038L217.778 387.135H223.333L226.111 392.038Z" fill="#FFD74B"/>
<path d="M216.667 420.34L213.889 425.242H208.333L205.556 420.34L208.333 415.438H213.889L216.667 420.34Z" fill="#FFD74B"/>
<path d="M207.222 414.679L204.444 419.581H198.889L196.111 414.679L198.889 409.777H204.444L207.222 414.679Z" fill="#FFD74B"/>
<path d="M216.667 409.019L213.889 413.921H208.333L205.556 409.019L208.333 404.117H213.889L216.667 409.019Z" fill="#FFD74B"/>
<path d="M207.222 403.358L204.444 408.26H198.889L196.111 403.358L198.889 398.456H204.444L207.222 403.358Z" fill="#FFD74B"/>
<path d="M216.667 397.698L213.889 402.6H208.333L205.556 397.698L208.333 392.796H213.889L216.667 397.698Z" fill="#FFD74B"/>
<path d="M207.222 392.038L204.444 396.94H198.889L196.111 392.038L198.889 387.135H204.444L207.222 392.038Z" fill="#FFD74B"/>
<path d="M197.778 420.34L195 425.242H189.444L186.667 420.34L189.444 415.438H195L197.778 420.34Z" fill="#FFD74B"/>
<path d="M188.333 414.679L185.556 419.581H180L177.222 414.679L180 409.777H185.556L188.333 414.679Z" fill="#FFD74B"/>
<path d="M197.778 409.019L195 413.921H189.444L186.667 409.019L189.444 404.117H195L197.778 409.019Z" fill="#FFD74B"/>
<path d="M188.333 403.358L185.556 408.26H180L177.222 403.358L180 398.456H185.556L188.333 403.358Z" fill="#FFD74B"/>
<path d="M197.778 397.698L195 402.6H189.444L186.667 397.698L189.444 392.796H195L197.778 397.698Z" fill="#FFD74B"/>
<path d="M188.333 392.038L185.556 396.94H180L177.222 392.038L180 387.135H185.556L188.333 392.038Z" fill="#FFD74B"/>
<path d="M178.889 420.34L176.111 425.242H170.556L167.778 420.34L170.556 415.438H176.111L178.889 420.34Z" fill="#FFD74B"/>
<path d="M169.444 414.679L166.667 419.581H161.111L158.333 414.679L161.111 409.777H166.667L169.444 414.679Z" fill="#FFD74B"/>
<path d="M178.889 409.019L176.111 413.921H170.556L167.778 409.019L170.556 404.117H176.111L178.889 409.019Z" fill="#FFD74B"/>
<path d="M169.444 403.358L166.667 408.26H161.111L158.333 403.358L161.111 398.456H166.667L169.444 403.358Z" fill="#FFD74B"/>
<path d="M178.889 397.698L176.111 402.6H170.556L167.778 397.698L170.556 392.796H176.111L178.889 397.698Z" fill="#FFD74B"/>
<path d="M169.444 392.038L166.667 396.94H161.111L158.333 392.038L161.111 387.135H166.667L169.444 392.038Z" fill="#FFD74B"/>
<path d="M160 420.34L157.222 425.242H151.667L148.889 420.34L151.667 415.438H157.222L160 420.34Z" fill="#FFD74B"/>
<path d="M150.556 414.679L147.778 419.581H142.222L139.444 414.679L142.222 409.777H147.778L150.556 414.679Z" fill="#FFD74B"/>
<path d="M160 409.019L157.222 413.921H151.667L148.889 409.019L151.667 404.117H157.222L160 409.019Z" fill="#FFD74B"/>
<path d="M150.556 403.358L147.778 408.26H142.222L139.444 403.358L142.222 398.456H147.778L150.556 403.358Z" fill="#FFD74B"/>
<path d="M160 397.698L157.222 402.6H151.667L148.889 397.698L151.667 392.796H157.222L160 397.698Z" fill="#FFD74B"/>
<path d="M150.556 392.038L147.778 396.94H142.222L139.444 392.038L142.222 387.135H147.778L150.556 392.038Z" fill="#FFD74B"/>
<path d="M141.111 420.34L138.333 425.242H132.778L130 420.34L132.778 415.438H138.333L141.111 420.34Z" fill="#FFD74B"/>
<path d="M141.111 409.019L138.333 413.921H132.778L130 409.019L132.778 404.117H138.333L141.111 409.019Z" fill="#FFD74B"/>
<path d="M141.111 397.698L138.333 402.6H132.778L130 397.698L132.778 392.796H138.333L141.111 397.698Z" fill="#FFD74B"/>
<path d="M141.111 386.377L138.333 391.279H132.778L130 386.377L132.778 381.475H138.333L141.111 386.377Z" fill="#FFD74B"/>
<path d="M161.561 209.3C159.141 209.3 157.131 208.84 155.531 207.92C153.931 207 152.741 205.72 151.961 204.08C151.181 202.42 150.791 200.48 150.791 198.26C150.791 196.1 151.201 194.2 152.021 192.56C152.841 190.9 154.061 189.61 155.681 188.69C157.321 187.75 159.331 187.28 161.711 187.28C163.311 187.28 164.641 187.43 165.701 187.73C166.761 188.03 167.551 188.44 168.071 188.96C168.611 189.48 168.881 190.06 168.881 190.7C168.881 191.38 168.571 191.95 167.951 192.41C167.351 192.87 166.511 193.1 165.431 193.1C165.431 192.36 165.291 191.69 165.011 191.09C164.751 190.47 164.341 189.98 163.781 189.62C163.241 189.26 162.521 189.08 161.621 189.08C160.061 189.08 158.811 189.44 157.871 190.16C156.931 190.88 156.241 191.92 155.801 193.28C155.381 194.64 155.171 196.3 155.171 198.26C155.171 200.22 155.391 201.88 155.831 203.24C156.291 204.58 157.021 205.61 158.021 206.33C159.021 207.03 160.351 207.38 162.011 207.38C162.471 207.38 162.911 207.36 163.331 207.32C163.771 207.28 164.181 207.21 164.561 207.11V202.55C164.561 201.99 164.461 201.56 164.261 201.26C164.081 200.96 163.821 200.75 163.481 200.63C163.161 200.51 162.771 200.45 162.311 200.45H162.011V198.98H170.831V200.45H170.531C170.131 200.45 169.791 200.52 169.511 200.66C169.231 200.78 169.011 201 168.851 201.32C168.711 201.62 168.641 202.07 168.641 202.67V207.77C167.541 208.29 166.421 208.68 165.281 208.94C164.141 209.18 162.901 209.3 161.561 209.3ZM172.303 209V207.53H172.393C172.853 207.53 173.253 207.48 173.593 207.38C173.953 207.28 174.233 207.08 174.433 206.78C174.653 206.46 174.763 205.99 174.763 205.37V196.43C174.763 195.83 174.663 195.39 174.463 195.11C174.263 194.81 173.993 194.62 173.653 194.54C173.313 194.44 172.923 194.39 172.483 194.39H172.393V192.92H177.913L178.483 195.5H178.633C178.893 194.9 179.183 194.38 179.503 193.94C179.843 193.5 180.273 193.17 180.793 192.95C181.313 192.71 181.993 192.59 182.833 192.59C183.973 192.59 184.813 192.79 185.353 193.19C185.913 193.59 186.193 194.17 186.193 194.93C186.193 195.73 185.903 196.37 185.323 196.85C184.743 197.31 183.893 197.54 182.773 197.54C182.773 196.98 182.723 196.53 182.623 196.19C182.543 195.83 182.393 195.56 182.173 195.38C181.953 195.2 181.653 195.11 181.273 195.11C180.733 195.11 180.293 195.31 179.953 195.71C179.613 196.09 179.343 196.57 179.143 197.15C178.963 197.73 178.833 198.33 178.753 198.95C178.693 199.57 178.663 200.09 178.663 200.51V205.52C178.663 206.1 178.763 206.54 178.963 206.84C179.163 207.12 179.433 207.31 179.773 207.41C180.113 207.49 180.483 207.53 180.883 207.53H181.813V209H172.303ZM194.561 209.3C192.981 209.3 191.771 208.83 190.931 207.89C190.091 206.93 189.671 205.43 189.671 203.39V196.49C189.671 195.89 189.581 195.44 189.401 195.14C189.221 194.84 188.961 194.64 188.621 194.54C188.301 194.44 187.911 194.39 187.451 194.39H187.391V192.92H193.571V202.79C193.571 203.67 193.641 204.42 193.781 205.04C193.941 205.66 194.211 206.14 194.591 206.48C194.971 206.82 195.491 206.99 196.151 206.99C196.891 206.99 197.491 206.8 197.951 206.42C198.411 206.02 198.751 205.47 198.971 204.77C199.191 204.07 199.301 203.25 199.301 202.31V196.4C199.301 195.8 199.191 195.36 198.971 195.08C198.771 194.8 198.501 194.62 198.161 194.54C197.821 194.44 197.441 194.39 197.021 194.39H196.931V192.92H203.201V205.61C203.201 206.19 203.291 206.62 203.471 206.9C203.671 207.16 203.941 207.33 204.281 207.41C204.621 207.49 204.991 207.53 205.391 207.53H205.571V209H200.051L199.481 206.75H199.331C199.031 207.29 198.701 207.73 198.341 208.07C197.981 208.39 197.601 208.64 197.201 208.82C196.801 209 196.381 209.12 195.941 209.18C195.501 209.26 195.041 209.3 194.561 209.3ZM206.989 209V207.53H207.109C207.569 207.53 207.979 207.48 208.339 207.38C208.699 207.28 208.979 207.08 209.179 206.78C209.399 206.48 209.509 206.03 209.509 205.43V196.37C209.509 195.79 209.409 195.36 209.209 195.08C209.009 194.8 208.739 194.62 208.399 194.54C208.079 194.44 207.699 194.39 207.259 194.39H207.139V192.92H212.899L213.289 195.17H213.439C213.839 194.41 214.269 193.85 214.729 193.49C215.209 193.11 215.719 192.86 216.259 192.74C216.819 192.62 217.419 192.56 218.059 192.56C219.619 192.56 220.839 193.02 221.719 193.94C222.599 194.86 223.039 196.34 223.039 198.38V205.4C223.039 206.02 223.119 206.48 223.279 206.78C223.459 207.08 223.699 207.28 223.999 207.38C224.319 207.48 224.699 207.53 225.139 207.53H225.259V209H219.139V198.95C219.139 197.65 218.929 196.65 218.509 195.95C218.109 195.23 217.409 194.87 216.409 194.87C215.649 194.87 215.049 195.09 214.609 195.53C214.189 195.97 213.879 196.55 213.679 197.27C213.499 197.99 213.409 198.77 213.409 199.61V205.55C213.409 206.13 213.499 206.56 213.679 206.84C213.879 207.12 214.149 207.31 214.489 207.41C214.829 207.49 215.219 207.53 215.659 207.53H215.779V209H206.989ZM226.764 209V207.53H226.884C227.344 207.53 227.754 207.48 228.114 207.38C228.474 207.28 228.754 207.08 228.954 206.78C229.174 206.48 229.284 206.03 229.284 205.43V196.37C229.284 195.79 229.184 195.36 228.984 195.08C228.784 194.8 228.514 194.62 228.174 194.54C227.854 194.44 227.474 194.39 227.034 194.39H226.914V192.92H232.674L233.064 195.17H233.214C233.614 194.41 234.044 193.85 234.504 193.49C234.984 193.11 235.494 192.86 236.034 192.74C236.594 192.62 237.194 192.56 237.834 192.56C239.394 192.56 240.614 193.02 241.494 193.94C242.374 194.86 242.814 196.34 242.814 198.38V205.4C242.814 206.02 242.894 206.48 243.054 206.78C243.234 207.08 243.474 207.28 243.774 207.38C244.094 207.48 244.474 207.53 244.914 207.53H245.034V209H238.914V198.95C238.914 197.65 238.704 196.65 238.284 195.95C237.884 195.23 237.184 194.87 236.184 194.87C235.424 194.87 234.824 195.09 234.384 195.53C233.964 195.97 233.654 196.55 233.454 197.27C233.274 197.99 233.184 198.77 233.184 199.61V205.55C233.184 206.13 233.274 206.56 233.454 206.84C233.654 207.12 233.924 207.31 234.264 207.41C234.604 207.49 234.994 207.53 235.434 207.53H235.554V209H226.764ZM254.82 209.3C252.42 209.3 250.57 208.58 249.27 207.14C247.99 205.68 247.35 203.65 247.35 201.05C247.35 198.25 247.97 196.14 249.21 194.72C250.47 193.28 252.23 192.56 254.49 192.56C256.59 192.56 258.23 193.17 259.41 194.39C260.61 195.59 261.21 197.38 261.21 199.76V201.23H251.31C251.35 202.63 251.53 203.77 251.85 204.65C252.19 205.51 252.66 206.15 253.26 206.57C253.88 206.99 254.63 207.2 255.51 207.2C256.21 207.2 256.83 207.1 257.37 206.9C257.93 206.68 258.41 206.4 258.81 206.06C259.21 205.7 259.53 205.31 259.77 204.89C259.99 204.99 260.16 205.16 260.28 205.4C260.42 205.62 260.49 205.88 260.49 206.18C260.49 206.68 260.28 207.17 259.86 207.65C259.46 208.13 258.84 208.53 258 208.85C257.18 209.15 256.12 209.3 254.82 209.3ZM257.22 199.43C257.22 198.41 257.13 197.52 256.95 196.76C256.77 196 256.48 195.42 256.08 195.02C255.7 194.6 255.18 194.39 254.52 194.39C253.88 194.39 253.33 194.58 252.87 194.96C252.43 195.34 252.08 195.91 251.82 196.67C251.58 197.41 251.43 198.33 251.37 199.43H257.22ZM269.569 216.2C267.309 216.2 265.619 215.83 264.499 215.09C263.399 214.37 262.849 213.32 262.849 211.94C262.849 211.2 263.009 210.58 263.329 210.08C263.649 209.58 264.109 209.19 264.709 208.91C265.309 208.61 265.999 208.42 266.779 208.34C266.299 208.14 265.849 207.83 265.429 207.41C265.009 206.97 264.799 206.41 264.799 205.73C264.799 205.11 265.009 204.56 265.429 204.08C265.869 203.6 266.459 203.15 267.199 202.73C266.319 202.39 265.609 201.82 265.069 201.02C264.529 200.22 264.259 199.25 264.259 198.11C264.259 196.37 264.749 195.01 265.729 194.03C266.729 193.05 268.249 192.56 270.289 192.56C271.009 192.56 271.679 192.66 272.299 192.86C272.939 193.04 273.449 193.26 273.829 193.52C274.129 193.2 274.429 192.92 274.729 192.68C275.029 192.42 275.349 192.22 275.689 192.08C276.049 191.94 276.439 191.87 276.859 191.87C277.539 191.87 278.039 192.04 278.359 192.38C278.699 192.7 278.869 193.08 278.869 193.52C278.869 193.94 278.729 194.32 278.449 194.66C278.169 195 277.669 195.17 276.949 195.17C276.949 194.83 276.849 194.55 276.649 194.33C276.449 194.11 276.189 194 275.869 194C275.669 194 275.469 194.03 275.269 194.09C275.069 194.15 274.899 194.23 274.759 194.33C275.139 194.77 275.459 195.31 275.719 195.95C275.979 196.59 276.109 197.3 276.109 198.08C276.109 199.58 275.639 200.83 274.699 201.83C273.759 202.81 272.289 203.3 270.289 203.3C270.069 203.3 269.779 203.29 269.419 203.27C269.079 203.23 268.809 203.2 268.609 203.18C268.289 203.34 268.009 203.56 267.769 203.84C267.529 204.12 267.409 204.46 267.409 204.86C267.409 205.18 267.529 205.43 267.769 205.61C268.029 205.79 268.439 205.88 268.999 205.88H272.539C273.819 205.88 274.859 206.07 275.659 206.45C276.459 206.81 277.049 207.33 277.429 208.01C277.809 208.69 277.999 209.49 277.999 210.41C277.999 212.21 277.309 213.62 275.929 214.64C274.569 215.68 272.449 216.2 269.569 216.2ZM269.629 214.52C270.909 214.52 271.929 214.39 272.689 214.13C273.449 213.87 273.989 213.5 274.309 213.02C274.649 212.54 274.819 211.96 274.819 211.28C274.819 210.54 274.589 210.03 274.129 209.75C273.689 209.49 273.029 209.36 272.149 209.36H268.879C268.419 209.36 267.959 209.42 267.499 209.54C267.059 209.66 266.689 209.89 266.389 210.23C266.109 210.59 265.969 211.13 265.969 211.85C265.969 212.41 266.089 212.89 266.329 213.29C266.589 213.69 266.989 213.99 267.529 214.19C268.069 214.41 268.769 214.52 269.629 214.52ZM270.199 201.65C270.799 201.65 271.259 201.52 271.579 201.26C271.919 200.98 272.149 200.57 272.269 200.03C272.409 199.49 272.479 198.83 272.479 198.05C272.479 197.25 272.409 196.57 272.269 196.01C272.129 195.43 271.889 194.99 271.549 194.69C271.229 194.39 270.769 194.24 270.169 194.24C269.609 194.24 269.159 194.4 268.819 194.72C268.479 195.02 268.239 195.46 268.099 196.04C267.959 196.6 267.889 197.28 267.889 198.08C267.889 198.84 267.959 199.49 268.099 200.03C268.259 200.55 268.509 200.95 268.849 201.23C269.189 201.51 269.639 201.65 270.199 201.65ZM288.072 209.3C285.672 209.3 283.822 208.58 282.522 207.14C281.242 205.68 280.602 203.65 280.602 201.05C280.602 198.25 281.222 196.14 282.462 194.72C283.722 193.28 285.482 192.56 287.742 192.56C289.842 192.56 291.482 193.17 292.662 194.39C293.862 195.59 294.462 197.38 294.462 199.76V201.23H284.562C284.602 202.63 284.782 203.77 285.102 204.65C285.442 205.51 285.912 206.15 286.512 206.57C287.132 206.99 287.882 207.2 288.762 207.2C289.462 207.2 290.082 207.1 290.622 206.9C291.182 206.68 291.662 206.4 292.062 206.06C292.462 205.7 292.782 205.31 293.022 204.89C293.242 204.99 293.412 205.16 293.532 205.4C293.672 205.62 293.742 205.88 293.742 206.18C293.742 206.68 293.532 207.17 293.112 207.65C292.712 208.13 292.092 208.53 291.252 208.85C290.432 209.15 289.372 209.3 288.072 209.3ZM290.472 199.43C290.472 198.41 290.382 197.52 290.202 196.76C290.022 196 289.732 195.42 289.332 195.02C288.952 194.6 288.432 194.39 287.772 194.39C287.132 194.39 286.582 194.58 286.122 194.96C285.682 195.34 285.332 195.91 285.072 196.67C284.832 197.41 284.682 198.33 284.622 199.43H290.472ZM296.551 209V207.53H296.641C297.101 207.53 297.501 207.48 297.841 207.38C298.201 207.28 298.481 207.08 298.681 206.78C298.901 206.46 299.011 205.99 299.011 205.37V196.43C299.011 195.83 298.911 195.39 298.711 195.11C298.511 194.81 298.241 194.62 297.901 194.54C297.561 194.44 297.171 194.39 296.731 194.39H296.641V192.92H302.161L302.731 195.5H302.881C303.141 194.9 303.431 194.38 303.751 193.94C304.091 193.5 304.521 193.17 305.041 192.95C305.561 192.71 306.241 192.59 307.081 192.59C308.221 192.59 309.061 192.79 309.601 193.19C310.161 193.59 310.441 194.17 310.441 194.93C310.441 195.73 310.151 196.37 309.571 196.85C308.991 197.31 308.141 197.54 307.021 197.54C307.021 196.98 306.971 196.53 306.871 196.19C306.791 195.83 306.641 195.56 306.421 195.38C306.201 195.2 305.901 195.11 305.521 195.11C304.981 195.11 304.541 195.31 304.201 195.71C303.861 196.09 303.591 196.57 303.391 197.15C303.211 197.73 303.081 198.33 303.001 198.95C302.941 199.57 302.911 200.09 302.911 200.51V205.52C302.911 206.1 303.011 206.54 303.211 206.84C303.411 207.12 303.681 207.31 304.021 207.41C304.361 207.49 304.731 207.53 305.131 207.53H306.061V209H296.551Z" fill="#2A13B8"/>
<path d="M149.641 255V252.942H150.943C151.419 252.942 151.853 252.886 152.245 252.774C152.665 252.634 152.987 252.368 153.211 251.976C153.463 251.556 153.589 250.94 153.589 250.128V229.716C153.589 228.932 153.463 228.358 153.211 227.994C152.959 227.602 152.637 227.35 152.245 227.238C151.853 227.126 151.419 227.07 150.943 227.07H149.641V225.012H163.249V227.07H161.947C161.471 227.07 161.023 227.14 160.603 227.28C160.211 227.392 159.889 227.644 159.637 228.036C159.413 228.428 159.301 229.044 159.301 229.884V238.158H171.271V229.884C171.271 229.044 171.145 228.428 170.893 228.036C170.669 227.644 170.361 227.392 169.969 227.28C169.577 227.14 169.129 227.07 168.625 227.07H167.323V225.012H180.931V227.07H179.629C179.181 227.07 178.747 227.14 178.327 227.28C177.907 227.392 177.585 227.644 177.361 228.036C177.137 228.428 177.025 229.044 177.025 229.884V250.338C177.025 251.094 177.137 251.668 177.361 252.06C177.613 252.424 177.935 252.662 178.327 252.774C178.747 252.886 179.181 252.942 179.629 252.942H180.931V255H167.323V252.942H168.625C169.129 252.942 169.577 252.886 169.969 252.774C170.361 252.634 170.669 252.368 170.893 251.976C171.145 251.556 171.271 250.94 171.271 250.128V240.552H159.301V250.128C159.301 250.94 159.413 251.556 159.637 251.976C159.889 252.368 160.211 252.634 160.603 252.774C161.023 252.886 161.471 252.942 161.947 252.942H163.249V255H149.641ZM193.346 255.42C191.134 255.42 189.44 254.762 188.264 253.446C187.088 252.102 186.5 250.002 186.5 247.146V237.486C186.5 236.646 186.374 236.016 186.122 235.596C185.87 235.176 185.506 234.896 185.03 234.756C184.582 234.616 184.036 234.546 183.392 234.546H183.308V232.488H191.96V246.306C191.96 247.538 192.058 248.588 192.254 249.456C192.478 250.324 192.856 250.996 193.388 251.472C193.92 251.948 194.648 252.186 195.572 252.186C196.608 252.186 197.448 251.92 198.092 251.388C198.736 250.828 199.212 250.058 199.52 249.078C199.828 248.098 199.982 246.95 199.982 245.634V237.36C199.982 236.52 199.828 235.904 199.52 235.512C199.24 235.12 198.862 234.868 198.386 234.756C197.91 234.616 197.378 234.546 196.79 234.546H196.664V232.488H205.442V250.254C205.442 251.066 205.568 251.668 205.82 252.06C206.1 252.424 206.478 252.662 206.954 252.774C207.43 252.886 207.948 252.942 208.508 252.942H208.76V255H201.032L200.234 251.85H200.024C199.604 252.606 199.142 253.222 198.638 253.698C198.134 254.146 197.602 254.496 197.042 254.748C196.482 255 195.894 255.168 195.278 255.252C194.662 255.364 194.018 255.42 193.346 255.42ZM210.745 255V252.942H210.913C211.557 252.942 212.131 252.872 212.635 252.732C213.139 252.592 213.531 252.312 213.811 251.892C214.119 251.472 214.273 250.842 214.273 250.002V237.318C214.273 236.506 214.133 235.904 213.853 235.512C213.573 235.12 213.195 234.868 212.719 234.756C212.271 234.616 211.739 234.546 211.123 234.546H210.955V232.488H219.019L219.565 235.638H219.775C220.335 234.574 220.937 233.79 221.581 233.286C222.253 232.754 222.967 232.404 223.723 232.236C224.507 232.068 225.347 231.984 226.243 231.984C228.427 231.984 230.135 232.628 231.367 233.916C232.599 235.204 233.215 237.276 233.215 240.132V249.96C233.215 250.828 233.327 251.472 233.551 251.892C233.803 252.312 234.139 252.592 234.559 252.732C235.007 252.872 235.539 252.942 236.155 252.942H236.323V255H227.755V240.93C227.755 239.11 227.461 237.71 226.873 236.73C226.313 235.722 225.333 235.218 223.933 235.218C222.869 235.218 222.029 235.526 221.413 236.142C220.825 236.758 220.391 237.57 220.111 238.578C219.859 239.586 219.733 240.678 219.733 241.854V250.17C219.733 250.982 219.859 251.584 220.111 251.976C220.391 252.368 220.769 252.634 221.245 252.774C221.721 252.886 222.267 252.942 222.883 252.942H223.051V255H210.745ZM238.431 255V252.942H238.599C239.243 252.942 239.817 252.872 240.321 252.732C240.825 252.592 241.217 252.312 241.497 251.892C241.805 251.472 241.959 250.842 241.959 250.002V237.318C241.959 236.506 241.819 235.904 241.539 235.512C241.259 235.12 240.881 234.868 240.405 234.756C239.957 234.616 239.425 234.546 238.809 234.546H238.641V232.488H246.705L247.251 235.638H247.461C248.021 234.574 248.623 233.79 249.267 233.286C249.939 232.754 250.653 232.404 251.409 232.236C252.193 232.068 253.033 231.984 253.929 231.984C256.113 231.984 257.821 232.628 259.053 233.916C260.285 235.204 260.901 237.276 260.901 240.132V249.96C260.901 250.828 261.013 251.472 261.237 251.892C261.489 252.312 261.825 252.592 262.245 252.732C262.693 252.872 263.225 252.942 263.841 252.942H264.009V255H255.441V240.93C255.441 239.11 255.147 237.71 254.559 236.73C253.999 235.722 253.019 235.218 251.619 235.218C250.555 235.218 249.715 235.526 249.099 236.142C248.511 236.758 248.077 237.57 247.797 238.578C247.545 239.586 247.419 240.678 247.419 241.854V250.17C247.419 250.982 247.545 251.584 247.797 251.976C248.077 252.368 248.455 252.634 248.931 252.774C249.407 252.886 249.953 252.942 250.569 252.942H250.737V255H238.431ZM277.708 255.42C274.348 255.42 271.758 254.412 269.938 252.396C268.146 250.352 267.25 247.51 267.25 243.87C267.25 239.95 268.118 236.996 269.854 235.008C271.618 232.992 274.082 231.984 277.246 231.984C280.186 231.984 282.482 232.838 284.134 234.546C285.814 236.226 286.654 238.732 286.654 242.064V244.122H272.794C272.85 246.082 273.102 247.678 273.55 248.91C274.026 250.114 274.684 251.01 275.524 251.598C276.392 252.186 277.442 252.48 278.674 252.48C279.654 252.48 280.522 252.34 281.278 252.06C282.062 251.752 282.734 251.36 283.294 250.884C283.854 250.38 284.302 249.834 284.638 249.246C284.946 249.386 285.184 249.624 285.352 249.96C285.548 250.268 285.646 250.632 285.646 251.052C285.646 251.752 285.352 252.438 284.764 253.11C284.204 253.782 283.336 254.342 282.16 254.79C281.012 255.21 279.528 255.42 277.708 255.42ZM281.068 241.602C281.068 240.174 280.942 238.928 280.69 237.864C280.438 236.8 280.032 235.988 279.472 235.428C278.94 234.84 278.212 234.546 277.288 234.546C276.392 234.546 275.622 234.812 274.978 235.344C274.362 235.876 273.872 236.674 273.508 237.738C273.172 238.774 272.962 240.062 272.878 241.602H281.068ZM298.357 265.08C295.193 265.08 292.827 264.562 291.259 263.526C289.719 262.518 288.949 261.048 288.949 259.116C288.949 258.08 289.173 257.212 289.621 256.512C290.069 255.812 290.713 255.266 291.553 254.874C292.393 254.454 293.359 254.188 294.451 254.076C293.779 253.796 293.149 253.362 292.561 252.774C291.973 252.158 291.679 251.374 291.679 250.422C291.679 249.554 291.973 248.784 292.561 248.112C293.177 247.44 294.003 246.81 295.039 246.222C293.807 245.746 292.813 244.948 292.057 243.828C291.301 242.708 290.923 241.35 290.923 239.754C290.923 237.318 291.609 235.414 292.981 234.042C294.381 232.67 296.509 231.984 299.365 231.984C300.373 231.984 301.311 232.124 302.179 232.404C303.075 232.656 303.789 232.964 304.321 233.328C304.741 232.88 305.161 232.488 305.581 232.152C306.001 231.788 306.449 231.508 306.925 231.312C307.429 231.116 307.975 231.018 308.563 231.018C309.515 231.018 310.215 231.256 310.663 231.732C311.139 232.18 311.377 232.712 311.377 233.328C311.377 233.916 311.181 234.448 310.789 234.924C310.397 235.4 309.697 235.638 308.689 235.638C308.689 235.162 308.549 234.77 308.269 234.462C307.989 234.154 307.625 234 307.177 234C306.897 234 306.617 234.042 306.337 234.126C306.057 234.21 305.819 234.322 305.623 234.462C306.155 235.078 306.603 235.834 306.967 236.73C307.331 237.626 307.513 238.62 307.513 239.712C307.513 241.812 306.855 243.562 305.539 244.962C304.223 246.334 302.165 247.02 299.365 247.02C299.057 247.02 298.651 247.006 298.147 246.978C297.671 246.922 297.293 246.88 297.013 246.852C296.565 247.076 296.173 247.384 295.837 247.776C295.501 248.168 295.333 248.644 295.333 249.204C295.333 249.652 295.501 250.002 295.837 250.254C296.201 250.506 296.775 250.632 297.559 250.632H302.515C304.307 250.632 305.763 250.898 306.883 251.43C308.003 251.934 308.829 252.662 309.361 253.614C309.893 254.566 310.159 255.686 310.159 256.974C310.159 259.494 309.193 261.468 307.261 262.896C305.357 264.352 302.389 265.08 298.357 265.08ZM298.441 262.728C300.233 262.728 301.661 262.546 302.725 262.182C303.789 261.818 304.545 261.3 304.993 260.628C305.469 259.956 305.707 259.144 305.707 258.192C305.707 257.156 305.385 256.442 304.741 256.05C304.125 255.686 303.201 255.504 301.969 255.504H297.391C296.747 255.504 296.103 255.588 295.459 255.756C294.843 255.924 294.325 256.246 293.905 256.722C293.513 257.226 293.317 257.982 293.317 258.99C293.317 259.774 293.485 260.446 293.821 261.006C294.185 261.566 294.745 261.986 295.501 262.266C296.257 262.574 297.237 262.728 298.441 262.728ZM299.239 244.71C300.079 244.71 300.723 244.528 301.171 244.164C301.647 243.772 301.969 243.198 302.137 242.442C302.333 241.686 302.431 240.762 302.431 239.67C302.431 238.55 302.333 237.598 302.137 236.814C301.941 236.002 301.605 235.386 301.129 234.966C300.681 234.546 300.037 234.336 299.197 234.336C298.413 234.336 297.783 234.56 297.307 235.008C296.831 235.428 296.495 236.044 296.299 236.856C296.103 237.64 296.005 238.592 296.005 239.712C296.005 240.776 296.103 241.686 296.299 242.442C296.523 243.17 296.873 243.73 297.349 244.122C297.825 244.514 298.455 244.71 299.239 244.71Z" fill="#CA0606"/>
<path d="M217.081 364.13C216.483 364.13 215.994 364.061 215.612 363.922C215.24 363.783 214.967 363.601 214.793 363.376C214.62 363.151 214.533 362.912 214.533 362.661C214.533 362.375 214.616 362.158 214.78 362.011C214.954 361.855 215.17 361.777 215.43 361.777C215.43 362.098 215.495 362.379 215.625 362.622C215.755 362.856 215.942 363.042 216.184 363.181C216.436 363.311 216.73 363.376 217.068 363.376C217.398 363.376 217.701 363.311 217.978 363.181C218.256 363.051 218.481 362.839 218.654 362.544C218.828 362.249 218.914 361.842 218.914 361.322C218.914 360.975 218.823 360.668 218.641 360.399C218.459 360.13 218.199 359.922 217.861 359.775C217.523 359.628 217.12 359.554 216.652 359.554H216.119V358.852H216.665C217.047 358.852 217.38 358.77 217.666 358.605C217.952 358.44 218.178 358.211 218.342 357.916C218.516 357.613 218.602 357.262 218.602 356.863C218.602 356.36 218.498 355.97 218.29 355.693C218.082 355.416 217.749 355.277 217.289 355.277C216.925 355.277 216.644 355.372 216.444 355.563C216.254 355.745 216.124 355.983 216.054 356.278C215.985 356.573 215.95 356.893 215.95 357.24C215.578 357.24 215.27 357.171 215.027 357.032C214.793 356.893 214.676 356.651 214.676 356.304C214.676 355.975 214.772 355.684 214.962 355.433C215.162 355.173 215.456 354.969 215.846 354.822C216.245 354.666 216.735 354.588 217.315 354.588C218.165 354.588 218.841 354.77 219.343 355.134C219.855 355.498 220.11 356.009 220.11 356.668C220.11 357.058 220.019 357.413 219.837 357.734C219.664 358.055 219.421 358.328 219.109 358.553C218.806 358.778 218.455 358.943 218.056 359.047C218.308 359.082 218.572 359.142 218.849 359.229C219.127 359.316 219.382 359.446 219.616 359.619C219.859 359.792 220.054 360.018 220.201 360.295C220.357 360.572 220.435 360.919 220.435 361.335C220.435 361.864 220.336 362.31 220.136 362.674C219.946 363.029 219.681 363.315 219.343 363.532C219.014 363.74 218.65 363.892 218.251 363.987C217.861 364.082 217.471 364.13 217.081 364.13ZM223.251 364L226.423 355.862H223.277C223.052 355.862 222.874 355.918 222.744 356.031C222.623 356.144 222.549 356.308 222.523 356.525L222.471 357.175H221.86L221.925 354.718H227.84V355.173L224.538 364H223.251ZM231.579 364.13C230.937 364.13 230.435 364.061 230.071 363.922C229.707 363.775 229.447 363.597 229.291 363.389C229.143 363.172 229.07 362.956 229.07 362.739C229.07 362.488 229.143 362.293 229.291 362.154C229.438 362.015 229.659 361.946 229.954 361.946C229.954 362.189 230.006 362.414 230.11 362.622C230.222 362.83 230.391 362.999 230.617 363.129C230.842 363.259 231.132 363.324 231.488 363.324C231.817 363.324 232.116 363.259 232.385 363.129C232.662 362.99 232.879 362.765 233.035 362.453C233.191 362.132 233.269 361.699 233.269 361.153C233.269 360.702 233.191 360.33 233.035 360.035C232.879 359.74 232.658 359.524 232.372 359.385C232.086 359.238 231.743 359.164 231.345 359.164C231.076 359.164 230.846 359.177 230.656 359.203C230.465 359.22 230.3 359.251 230.162 359.294C230.032 359.337 229.91 359.385 229.798 359.437L229.408 359.307L229.824 354.718H234.322L234.387 356.798H233.789L233.724 356.382C233.698 356.269 233.663 356.174 233.62 356.096C233.585 356.018 233.52 355.962 233.425 355.927C233.338 355.884 233.212 355.862 233.048 355.862H230.474L230.24 358.605C230.326 358.57 230.439 358.54 230.578 358.514C230.725 358.479 230.894 358.453 231.085 358.436C231.284 358.419 231.501 358.41 231.735 358.41C232.324 358.41 232.848 358.514 233.308 358.722C233.776 358.921 234.14 359.225 234.4 359.632C234.668 360.031 234.803 360.538 234.803 361.153C234.803 361.534 234.751 361.881 234.647 362.193C234.543 362.505 234.395 362.782 234.205 363.025C234.014 363.268 233.784 363.471 233.516 363.636C233.256 363.801 232.961 363.922 232.632 364C232.311 364.087 231.96 364.13 231.579 364.13ZM242.061 367.12C241.134 367.12 240.436 366.955 239.968 366.626C239.5 366.305 239.266 365.846 239.266 365.248C239.266 364.919 239.34 364.641 239.487 364.416C239.635 364.191 239.834 364.013 240.085 363.883C240.337 363.753 240.618 363.666 240.93 363.623C240.74 363.545 240.562 363.415 240.397 363.233C240.233 363.051 240.15 362.817 240.15 362.531C240.15 362.262 240.228 362.033 240.384 361.842C240.54 361.643 240.774 361.452 241.086 361.27C240.705 361.123 240.406 360.871 240.189 360.516C239.973 360.161 239.864 359.753 239.864 359.294C239.864 358.549 240.072 357.964 240.488 357.539C240.913 357.106 241.546 356.889 242.386 356.889C242.698 356.889 242.989 356.932 243.257 357.019C243.535 357.106 243.743 357.205 243.881 357.318C243.994 357.197 244.111 357.084 244.232 356.98C244.362 356.867 244.505 356.776 244.661 356.707C244.817 356.638 244.986 356.603 245.168 356.603C245.446 356.603 245.649 356.672 245.779 356.811C245.918 356.95 245.987 357.11 245.987 357.292C245.987 357.483 245.931 357.647 245.818 357.786C245.706 357.925 245.511 357.994 245.233 357.994C245.233 357.873 245.199 357.764 245.129 357.669C245.06 357.574 244.947 357.526 244.791 357.526C244.687 357.526 244.592 357.539 244.505 357.565C244.419 357.591 244.336 357.626 244.258 357.669C244.414 357.86 244.544 358.085 244.648 358.345C244.752 358.605 244.804 358.913 244.804 359.268C244.804 359.918 244.605 360.455 244.206 360.88C243.816 361.305 243.21 361.517 242.386 361.517C242.282 361.517 242.157 361.513 242.009 361.504C241.871 361.487 241.762 361.469 241.684 361.452C241.528 361.53 241.394 361.634 241.281 361.764C241.169 361.885 241.112 362.041 241.112 362.232C241.112 362.388 241.164 362.505 241.268 362.583C241.372 362.661 241.572 362.7 241.866 362.7H243.361C243.899 362.7 244.328 362.787 244.648 362.96C244.978 363.125 245.216 363.354 245.363 363.649C245.519 363.935 245.597 364.273 245.597 364.663C245.597 365.417 245.311 366.015 244.739 366.457C244.167 366.899 243.275 367.12 242.061 367.12ZM242.087 366.444C242.685 366.444 243.149 366.379 243.478 366.249C243.816 366.128 244.055 365.954 244.193 365.729C244.332 365.504 244.401 365.244 244.401 364.949C244.401 364.585 244.293 364.338 244.076 364.208C243.868 364.078 243.561 364.013 243.153 364.013H241.814C241.589 364.013 241.372 364.043 241.164 364.104C240.956 364.165 240.783 364.277 240.644 364.442C240.514 364.607 240.449 364.854 240.449 365.183C240.449 365.426 240.501 365.642 240.605 365.833C240.709 366.024 240.878 366.171 241.112 366.275C241.355 366.388 241.68 366.444 242.087 366.444ZM242.347 360.854C242.616 360.854 242.828 360.798 242.984 360.685C243.149 360.564 243.262 360.386 243.322 360.152C243.392 359.909 243.426 359.61 243.426 359.255C243.426 358.882 243.392 358.57 243.322 358.319C243.253 358.068 243.136 357.881 242.971 357.76C242.815 357.63 242.603 357.565 242.334 357.565C242.074 357.565 241.862 357.63 241.697 357.76C241.541 357.89 241.424 358.081 241.346 358.332C241.277 358.583 241.242 358.895 241.242 359.268C241.242 359.615 241.277 359.905 241.346 360.139C241.424 360.373 241.546 360.551 241.71 360.672C241.875 360.793 242.087 360.854 242.347 360.854Z" fill="black"/>
<path d="M148.556 284V283.505H148.787C148.941 283.505 149.077 283.487 149.194 283.45C149.319 283.413 149.418 283.34 149.491 283.23C149.565 283.12 149.601 282.955 149.601 282.735V277.367C149.601 277.154 149.561 276.997 149.48 276.894C149.407 276.791 149.308 276.725 149.183 276.696C149.066 276.659 148.934 276.641 148.787 276.641H148.556V276.146H151.922V276.641H151.691C151.545 276.641 151.409 276.659 151.284 276.696C151.16 276.733 151.061 276.806 150.987 276.916C150.914 277.019 150.877 277.184 150.877 277.411V279.611H154.265V277.411C154.265 277.184 154.229 277.019 154.155 276.916C154.082 276.806 153.983 276.733 153.858 276.696C153.741 276.659 153.605 276.641 153.451 276.641H153.22V276.146H156.586V276.641H156.355C156.209 276.641 156.073 276.659 155.948 276.696C155.824 276.733 155.725 276.806 155.651 276.916C155.578 277.019 155.541 277.184 155.541 277.411V282.79C155.541 282.995 155.578 283.149 155.651 283.252C155.732 283.355 155.831 283.424 155.948 283.461C156.073 283.49 156.209 283.505 156.355 283.505H156.586V284H153.22V283.505H153.451C153.605 283.505 153.741 283.487 153.858 283.45C153.983 283.413 154.082 283.34 154.155 283.23C154.229 283.12 154.265 282.955 154.265 282.735V280.194H150.877V282.735C150.877 282.955 150.914 283.12 150.987 283.23C151.061 283.34 151.16 283.413 151.284 283.45C151.409 283.487 151.545 283.505 151.691 283.505H151.922V284H148.556ZM160.181 284.11C159.367 284.11 158.726 283.857 158.256 283.351C157.787 282.845 157.552 282.075 157.552 281.041C157.552 280.007 157.776 279.241 158.223 278.742C158.671 278.236 159.334 277.983 160.214 277.983C161.028 277.983 161.67 278.236 162.139 278.742C162.609 279.241 162.843 280.007 162.843 281.041C162.843 282.075 162.616 282.845 162.161 283.351C161.714 283.857 161.054 284.11 160.181 284.11ZM160.203 283.505C160.548 283.505 160.823 283.413 161.028 283.23C161.234 283.047 161.38 282.772 161.468 282.405C161.556 282.031 161.6 281.576 161.6 281.041C161.6 280.498 161.553 280.047 161.457 279.688C161.369 279.329 161.223 279.057 161.017 278.874C160.812 278.691 160.537 278.599 160.192 278.599C159.848 278.599 159.573 278.691 159.367 278.874C159.162 279.057 159.015 279.329 158.927 279.688C158.839 280.047 158.795 280.498 158.795 281.041C158.795 281.576 158.839 282.031 158.927 282.405C159.023 282.772 159.173 283.047 159.378 283.23C159.584 283.413 159.859 283.505 160.203 283.505ZM163.711 284V283.505H163.777C163.946 283.505 164.096 283.487 164.228 283.45C164.368 283.413 164.474 283.34 164.547 283.23C164.628 283.113 164.668 282.944 164.668 282.724V279.336C164.668 279.123 164.628 278.966 164.547 278.863C164.474 278.753 164.371 278.683 164.239 278.654C164.115 278.617 163.972 278.599 163.81 278.599H163.766V278.104H165.691L165.834 278.962H165.889C166.043 278.683 166.205 278.474 166.373 278.335C166.549 278.196 166.736 278.104 166.934 278.06C167.14 278.009 167.36 277.983 167.594 277.983C168.174 277.983 168.625 278.155 168.947 278.5C169.27 278.837 169.431 279.38 169.431 280.128V282.713C169.431 282.94 169.464 283.113 169.53 283.23C169.596 283.34 169.688 283.413 169.805 283.45C169.93 283.487 170.073 283.505 170.234 283.505H170.289V284H168.221V280.249C168.221 279.772 168.137 279.406 167.968 279.149C167.807 278.885 167.521 278.753 167.11 278.753C166.802 278.753 166.557 278.834 166.373 278.995C166.197 279.156 166.069 279.373 165.988 279.644C165.915 279.915 165.878 280.205 165.878 280.513V282.779C165.878 282.984 165.915 283.142 165.988 283.252C166.069 283.355 166.172 283.424 166.296 283.461C166.428 283.49 166.575 283.505 166.736 283.505H166.78V284H163.711ZM170.821 284V283.505H170.964C171.111 283.505 171.25 283.49 171.382 283.461C171.514 283.424 171.621 283.355 171.701 283.252C171.789 283.142 171.833 282.984 171.833 282.779V279.325C171.833 279.112 171.789 278.955 171.701 278.852C171.621 278.749 171.514 278.683 171.382 278.654C171.25 278.617 171.111 278.599 170.964 278.599H170.909V278.104H173.043V282.735C173.043 282.955 173.084 283.12 173.164 283.23C173.245 283.34 173.351 283.413 173.483 283.45C173.623 283.487 173.766 283.505 173.912 283.505H174.055V284H170.821ZM172.394 277.037C172.189 277.037 172.017 276.982 171.877 276.872C171.745 276.762 171.679 276.579 171.679 276.322C171.679 276.058 171.749 275.875 171.888 275.772C172.028 275.662 172.196 275.607 172.394 275.607C172.585 275.607 172.75 275.662 172.889 275.772C173.036 275.875 173.109 276.058 173.109 276.322C173.109 276.579 173.036 276.762 172.889 276.872C172.75 276.982 172.585 277.037 172.394 277.037ZM174.496 284V283.505H174.562C174.731 283.505 174.881 283.487 175.013 283.45C175.153 283.413 175.259 283.34 175.332 283.23C175.413 283.113 175.453 282.944 175.453 282.724V279.336C175.453 279.123 175.413 278.966 175.332 278.863C175.259 278.753 175.156 278.683 175.024 278.654C174.9 278.617 174.757 278.599 174.595 278.599H174.551V278.104H176.476L176.619 278.962H176.674C176.828 278.683 176.99 278.474 177.158 278.335C177.334 278.196 177.521 278.104 177.719 278.06C177.925 278.009 178.145 277.983 178.379 277.983C178.959 277.983 179.41 278.155 179.732 278.5C180.055 278.837 180.216 279.38 180.216 280.128V282.713C180.216 282.94 180.249 283.113 180.315 283.23C180.381 283.34 180.473 283.413 180.59 283.45C180.715 283.487 180.858 283.505 181.019 283.505H181.074V284H179.006V280.249C179.006 279.772 178.922 279.406 178.753 279.149C178.592 278.885 178.306 278.753 177.895 278.753C177.587 278.753 177.342 278.834 177.158 278.995C176.982 279.156 176.854 279.373 176.773 279.644C176.7 279.915 176.663 280.205 176.663 280.513V282.779C176.663 282.984 176.7 283.142 176.773 283.252C176.854 283.355 176.957 283.424 177.081 283.461C177.213 283.49 177.36 283.505 177.521 283.505H177.565V284H174.496ZM183.927 286.64C183.143 286.64 182.552 286.501 182.156 286.222C181.76 285.951 181.562 285.562 181.562 285.056C181.562 284.777 181.625 284.543 181.749 284.352C181.874 284.161 182.043 284.011 182.255 283.901C182.468 283.791 182.706 283.718 182.97 283.681C182.809 283.615 182.659 283.505 182.519 283.351C182.38 283.197 182.31 282.999 182.31 282.757C182.31 282.53 182.376 282.335 182.508 282.174C182.64 282.005 182.838 281.844 183.102 281.69C182.78 281.565 182.527 281.353 182.343 281.052C182.16 280.751 182.068 280.407 182.068 280.018C182.068 279.387 182.244 278.892 182.596 278.533C182.956 278.166 183.491 277.983 184.202 277.983C184.466 277.983 184.712 278.02 184.939 278.093C185.174 278.166 185.35 278.251 185.467 278.346C185.563 278.243 185.662 278.148 185.764 278.06C185.874 277.965 185.995 277.888 186.127 277.829C186.259 277.77 186.402 277.741 186.556 277.741C186.791 277.741 186.963 277.8 187.073 277.917C187.191 278.034 187.249 278.17 187.249 278.324C187.249 278.485 187.202 278.625 187.106 278.742C187.011 278.859 186.846 278.918 186.611 278.918C186.611 278.815 186.582 278.724 186.523 278.643C186.465 278.562 186.369 278.522 186.237 278.522C186.149 278.522 186.069 278.533 185.995 278.555C185.922 278.577 185.852 278.606 185.786 278.643C185.918 278.804 186.028 278.995 186.116 279.215C186.204 279.435 186.248 279.695 186.248 279.996C186.248 280.546 186.08 281.001 185.742 281.36C185.412 281.719 184.899 281.899 184.202 281.899C184.114 281.899 184.008 281.895 183.883 281.888C183.766 281.873 183.674 281.859 183.608 281.844C183.476 281.91 183.363 281.998 183.267 282.108C183.172 282.211 183.124 282.343 183.124 282.504C183.124 282.636 183.168 282.735 183.256 282.801C183.344 282.867 183.513 282.9 183.762 282.9H185.027C185.482 282.9 185.845 282.973 186.116 283.12C186.395 283.259 186.597 283.454 186.721 283.703C186.853 283.945 186.919 284.231 186.919 284.561C186.919 285.199 186.677 285.705 186.193 286.079C185.709 286.453 184.954 286.64 183.927 286.64ZM183.949 286.068C184.455 286.068 184.848 286.013 185.126 285.903C185.412 285.8 185.614 285.654 185.731 285.463C185.849 285.272 185.907 285.052 185.907 284.803C185.907 284.495 185.816 284.286 185.632 284.176C185.456 284.066 185.196 284.011 184.851 284.011H183.718C183.528 284.011 183.344 284.037 183.168 284.088C182.992 284.139 182.846 284.235 182.728 284.374C182.618 284.513 182.563 284.722 182.563 285.001C182.563 285.206 182.607 285.39 182.695 285.551C182.783 285.712 182.926 285.837 183.124 285.925C183.33 286.02 183.605 286.068 183.949 286.068ZM184.169 281.338C184.397 281.338 184.576 281.29 184.708 281.195C184.848 281.092 184.943 280.942 184.994 280.744C185.053 280.539 185.082 280.286 185.082 279.985C185.082 279.67 185.053 279.406 184.994 279.193C184.936 278.98 184.837 278.823 184.697 278.72C184.565 278.61 184.386 278.555 184.158 278.555C183.938 278.555 183.759 278.61 183.619 278.72C183.487 278.83 183.388 278.991 183.322 279.204C183.264 279.417 183.234 279.681 183.234 279.996C183.234 280.289 183.264 280.535 183.322 280.733C183.388 280.931 183.491 281.081 183.63 281.184C183.77 281.287 183.949 281.338 184.169 281.338ZM193.175 284.11C192.596 284.11 192.149 283.938 191.833 283.593C191.525 283.248 191.371 282.698 191.371 281.943V279.358C191.371 279.138 191.331 278.977 191.25 278.874C191.177 278.764 191.074 278.691 190.942 278.654C190.818 278.617 190.675 278.599 190.513 278.599H190.48V278.104H192.581V281.822C192.581 282.137 192.611 282.409 192.669 282.636C192.735 282.863 192.845 283.039 192.999 283.164C193.161 283.281 193.377 283.34 193.648 283.34C193.942 283.34 194.184 283.267 194.374 283.12C194.565 282.973 194.704 282.768 194.792 282.504C194.88 282.24 194.924 281.936 194.924 281.591V279.369C194.924 279.142 194.884 278.973 194.803 278.863C194.73 278.753 194.627 278.683 194.495 278.654C194.363 278.617 194.217 278.599 194.055 278.599H194.022V278.104H196.134V282.779C196.134 282.992 196.171 283.153 196.244 283.263C196.325 283.366 196.431 283.432 196.563 283.461C196.695 283.49 196.838 283.505 196.992 283.505H197.036V284H195.166L195.001 283.142H194.946C194.836 283.34 194.712 283.505 194.572 283.637C194.44 283.762 194.301 283.861 194.154 283.934C194.008 284 193.85 284.044 193.681 284.066C193.52 284.095 193.351 284.11 193.175 284.11ZM197.526 284V283.505H197.669C197.816 283.505 197.955 283.49 198.087 283.461C198.219 283.424 198.326 283.355 198.406 283.252C198.494 283.142 198.538 282.984 198.538 282.779V279.325C198.538 279.112 198.494 278.955 198.406 278.852C198.326 278.749 198.219 278.683 198.087 278.654C197.955 278.617 197.816 278.599 197.669 278.599H197.614V278.104H199.748V282.735C199.748 282.955 199.789 283.12 199.869 283.23C199.95 283.34 200.056 283.413 200.188 283.45C200.328 283.487 200.471 283.505 200.617 283.505H200.76V284H197.526ZM199.099 277.037C198.894 277.037 198.722 276.982 198.582 276.872C198.45 276.762 198.384 276.579 198.384 276.322C198.384 276.058 198.454 275.875 198.593 275.772C198.733 275.662 198.901 275.607 199.099 275.607C199.29 275.607 199.455 275.662 199.594 275.772C199.741 275.875 199.814 276.058 199.814 276.322C199.814 276.579 199.741 276.762 199.594 276.872C199.455 276.982 199.29 277.037 199.099 277.037ZM203.567 284.11C203.024 284.11 202.621 283.985 202.357 283.736C202.093 283.479 201.961 283.032 201.961 282.394V278.764H201.136V278.291C201.29 278.291 201.451 278.258 201.62 278.192C201.788 278.126 201.931 278.031 202.049 277.906C202.173 277.781 202.276 277.627 202.357 277.444C202.437 277.253 202.503 277.022 202.555 276.751H203.171V278.104H204.601V278.764H203.171V282.394C203.171 282.753 203.24 283.017 203.38 283.186C203.526 283.355 203.728 283.439 203.985 283.439C204.117 283.439 204.238 283.432 204.348 283.417C204.465 283.402 204.582 283.384 204.7 283.362V283.912C204.604 283.956 204.45 284 204.238 284.044C204.025 284.088 203.801 284.11 203.567 284.11ZM208.021 284V283.505H208.087C208.256 283.505 208.406 283.487 208.538 283.45C208.67 283.413 208.776 283.34 208.857 283.23C208.938 283.113 208.978 282.944 208.978 282.724V276.861C208.978 276.648 208.934 276.491 208.846 276.388C208.765 276.285 208.659 276.219 208.527 276.19C208.395 276.153 208.256 276.135 208.109 276.135H208.01V275.64H210.188V277.895C210.188 278.042 210.181 278.196 210.166 278.357C210.159 278.518 210.151 278.658 210.144 278.775C210.137 278.892 210.133 278.951 210.133 278.951H210.199C210.316 278.716 210.456 278.529 210.617 278.39C210.778 278.243 210.958 278.141 211.156 278.082C211.361 278.016 211.585 277.983 211.827 277.983C212.443 277.983 212.916 278.155 213.246 278.5C213.576 278.837 213.741 279.38 213.741 280.128V282.713C213.741 282.94 213.774 283.113 213.84 283.23C213.913 283.34 214.009 283.413 214.126 283.45C214.251 283.487 214.394 283.505 214.555 283.505H214.588V284H212.531V280.249C212.531 279.772 212.447 279.406 212.278 279.149C212.117 278.885 211.827 278.753 211.409 278.753C211.13 278.753 210.899 278.83 210.716 278.984C210.533 279.131 210.397 279.336 210.309 279.6C210.228 279.864 210.188 280.168 210.188 280.513V282.779C210.188 282.984 210.225 283.142 210.298 283.252C210.379 283.355 210.485 283.424 210.617 283.461C210.749 283.49 210.896 283.505 211.057 283.505H211.09V284H208.021ZM218.103 284.11C217.267 284.11 216.618 283.846 216.156 283.318C215.701 282.79 215.474 282.049 215.474 281.096C215.474 280.062 215.694 279.285 216.134 278.764C216.574 278.243 217.194 277.983 217.993 277.983C218.726 277.983 219.302 278.207 219.72 278.654C220.145 279.094 220.358 279.75 220.358 280.623V281.14H216.717C216.732 281.661 216.798 282.09 216.915 282.427C217.04 282.757 217.216 282.999 217.443 283.153C217.678 283.307 217.964 283.384 218.301 283.384C218.558 283.384 218.785 283.347 218.983 283.274C219.188 283.193 219.364 283.094 219.511 282.977C219.665 282.852 219.786 282.72 219.874 282.581C219.94 282.61 219.995 282.662 220.039 282.735C220.083 282.808 220.105 282.896 220.105 282.999C220.105 283.16 220.032 283.329 219.885 283.505C219.746 283.674 219.526 283.817 219.225 283.934C218.932 284.051 218.558 284.11 218.103 284.11ZM219.093 280.513C219.093 280.132 219.056 279.798 218.983 279.512C218.91 279.226 218.792 279.006 218.631 278.852C218.47 278.691 218.253 278.61 217.982 278.61C217.733 278.61 217.516 278.683 217.333 278.83C217.157 278.977 217.018 279.193 216.915 279.479C216.82 279.758 216.761 280.102 216.739 280.513H219.093ZM223.536 284.11C222.994 284.11 222.59 283.985 222.326 283.736C222.062 283.479 221.93 283.032 221.93 282.394V278.764H221.105V278.291C221.259 278.291 221.421 278.258 221.589 278.192C221.758 278.126 221.901 278.031 222.018 277.906C222.143 277.781 222.246 277.627 222.326 277.444C222.407 277.253 222.473 277.022 222.524 276.751H223.14V278.104H224.57V278.764H223.14V282.394C223.14 282.753 223.21 283.017 223.349 283.186C223.496 283.355 223.698 283.439 223.954 283.439C224.086 283.439 224.207 283.432 224.317 283.417C224.435 283.402 224.552 283.384 224.669 283.362V283.912C224.574 283.956 224.42 284 224.207 284.044C223.995 284.088 223.771 284.11 223.536 284.11ZM228.783 277.224C228.739 277.07 228.68 276.953 228.607 276.872C228.541 276.784 228.46 276.725 228.365 276.696C228.269 276.659 228.148 276.641 228.002 276.641H227.859V276.146H231.06V276.641H230.807C230.587 276.641 230.422 276.685 230.312 276.773C230.202 276.854 230.147 276.986 230.147 277.169C230.147 277.206 230.15 277.25 230.158 277.301C230.165 277.352 230.176 277.404 230.191 277.455C230.205 277.506 230.22 277.565 230.235 277.631L231.17 280.876C231.236 281.089 231.294 281.305 231.346 281.525C231.404 281.738 231.459 281.95 231.511 282.163C231.562 282.368 231.602 282.559 231.632 282.735C231.69 282.464 231.753 282.174 231.819 281.866C231.892 281.558 231.973 281.25 232.061 280.942L233.403 276.223H234.206L235.614 280.832C235.694 281.067 235.764 281.301 235.823 281.536C235.889 281.771 235.944 281.991 235.988 282.196C236.039 282.401 236.079 282.581 236.109 282.735C236.145 282.559 236.186 282.372 236.23 282.174C236.274 281.976 236.321 281.767 236.373 281.547C236.424 281.327 236.483 281.1 236.549 280.865L237.407 277.752C237.429 277.664 237.454 277.561 237.484 277.444C237.513 277.319 237.528 277.228 237.528 277.169C237.528 276.978 237.465 276.843 237.341 276.762C237.223 276.681 237.044 276.641 236.802 276.641H236.549V276.146H239.288V276.641H239.079C238.939 276.641 238.818 276.663 238.716 276.707C238.62 276.744 238.536 276.824 238.463 276.949C238.389 277.074 238.316 277.257 238.243 277.499L236.428 284H235.361L233.557 278.115L231.896 284H230.796L228.783 277.224ZM241.919 284.11C241.083 284.11 240.434 283.846 239.972 283.318C239.517 282.79 239.29 282.049 239.29 281.096C239.29 280.062 239.51 279.285 239.95 278.764C240.39 278.243 241.009 277.983 241.809 277.983C242.542 277.983 243.118 278.207 243.536 278.654C243.961 279.094 244.174 279.75 244.174 280.623V281.14H240.533C240.547 281.661 240.613 282.09 240.731 282.427C240.855 282.757 241.031 282.999 241.259 283.153C241.493 283.307 241.779 283.384 242.117 283.384C242.373 283.384 242.601 283.347 242.799 283.274C243.004 283.193 243.18 283.094 243.327 282.977C243.481 282.852 243.602 282.72 243.69 282.581C243.756 282.61 243.811 282.662 243.855 282.735C243.899 282.808 243.921 282.896 243.921 282.999C243.921 283.16 243.847 283.329 243.701 283.505C243.561 283.674 243.341 283.817 243.041 283.934C242.747 284.051 242.373 284.11 241.919 284.11ZM242.909 280.513C242.909 280.132 242.872 279.798 242.799 279.512C242.725 279.226 242.608 279.006 242.447 278.852C242.285 278.691 242.069 278.61 241.798 278.61C241.548 278.61 241.332 278.683 241.149 278.83C240.973 278.977 240.833 279.193 240.731 279.479C240.635 279.758 240.577 280.102 240.555 280.513H242.909ZM247.077 284.11C246.666 284.11 246.318 284.062 246.032 283.967C245.746 283.872 245.526 283.736 245.372 283.56C245.225 283.377 245.152 283.16 245.152 282.911C245.152 282.698 245.196 282.537 245.284 282.427C245.379 282.317 245.485 282.24 245.603 282.196C245.727 282.152 245.837 282.13 245.933 282.13C245.933 282.401 245.973 282.647 246.054 282.867C246.134 283.08 246.263 283.248 246.439 283.373C246.615 283.49 246.842 283.549 247.121 283.549C247.509 283.549 247.803 283.461 248.001 283.285C248.199 283.109 248.298 282.885 248.298 282.614C248.298 282.438 248.257 282.291 248.177 282.174C248.103 282.057 247.968 281.943 247.77 281.833C247.579 281.716 247.304 281.587 246.945 281.448C246.563 281.287 246.244 281.125 245.988 280.964C245.738 280.803 245.551 280.616 245.427 280.403C245.302 280.19 245.24 279.923 245.24 279.6C245.24 279.079 245.434 278.683 245.823 278.412C246.219 278.133 246.739 277.994 247.385 277.994C247.766 277.994 248.081 278.042 248.331 278.137C248.587 278.232 248.774 278.357 248.892 278.511C249.016 278.665 249.079 278.83 249.079 279.006C249.079 279.219 249.005 279.387 248.859 279.512C248.712 279.637 248.492 279.699 248.199 279.699C248.199 279.332 248.118 279.046 247.957 278.841C247.803 278.636 247.564 278.533 247.242 278.533C247.022 278.533 246.835 278.57 246.681 278.643C246.534 278.709 246.424 278.804 246.351 278.929C246.277 279.046 246.241 279.189 246.241 279.358C246.241 279.534 246.285 279.684 246.373 279.809C246.468 279.934 246.618 280.051 246.824 280.161C247.029 280.264 247.304 280.381 247.649 280.513C248.023 280.66 248.331 280.814 248.573 280.975C248.815 281.136 248.994 281.327 249.112 281.547C249.236 281.76 249.299 282.02 249.299 282.328C249.299 282.907 249.097 283.351 248.694 283.659C248.298 283.96 247.759 284.11 247.077 284.11ZM252.422 284.11C251.879 284.11 251.476 283.985 251.212 283.736C250.948 283.479 250.816 283.032 250.816 282.394V278.764H249.991V278.291C250.145 278.291 250.306 278.258 250.475 278.192C250.644 278.126 250.787 278.031 250.904 277.906C251.029 277.781 251.131 277.627 251.212 277.444C251.293 277.253 251.359 277.022 251.41 276.751H252.026V278.104H253.456V278.764H252.026V282.394C252.026 282.753 252.096 283.017 252.235 283.186C252.382 283.355 252.583 283.439 252.84 283.439C252.972 283.439 253.093 283.432 253.203 283.417C253.32 283.402 253.438 283.384 253.555 283.362V283.912C253.46 283.956 253.306 284 253.093 284.044C252.88 284.088 252.657 284.11 252.422 284.11ZM257.022 284.11C256.186 284.11 255.537 283.846 255.075 283.318C254.62 282.79 254.393 282.049 254.393 281.096C254.393 280.062 254.613 279.285 255.053 278.764C255.493 278.243 256.113 277.983 256.912 277.983C257.645 277.983 258.221 278.207 258.639 278.654C259.064 279.094 259.277 279.75 259.277 280.623V281.14H255.636C255.651 281.661 255.717 282.09 255.834 282.427C255.959 282.757 256.135 282.999 256.362 283.153C256.597 283.307 256.883 283.384 257.22 283.384C257.477 283.384 257.704 283.347 257.902 283.274C258.107 283.193 258.283 283.094 258.43 282.977C258.584 282.852 258.705 282.72 258.793 282.581C258.859 282.61 258.914 282.662 258.958 282.735C259.002 282.808 259.024 282.896 259.024 282.999C259.024 283.16 258.951 283.329 258.804 283.505C258.665 283.674 258.445 283.817 258.144 283.934C257.851 284.051 257.477 284.11 257.022 284.11ZM258.012 280.513C258.012 280.132 257.975 279.798 257.902 279.512C257.829 279.226 257.711 279.006 257.55 278.852C257.389 278.691 257.172 278.61 256.901 278.61C256.652 278.61 256.435 278.683 256.252 278.83C256.076 278.977 255.937 279.193 255.834 279.479C255.739 279.758 255.68 280.102 255.658 280.513H258.012ZM260.123 284V283.505H260.156C260.325 283.505 260.475 283.487 260.607 283.45C260.747 283.413 260.853 283.34 260.926 283.23C261.007 283.113 261.047 282.94 261.047 282.713V279.347C261.047 279.127 261.007 278.966 260.926 278.863C260.846 278.753 260.739 278.683 260.607 278.654C260.483 278.617 260.34 278.599 260.178 278.599H260.145V278.104H261.982L262.191 279.127H262.246C262.342 278.907 262.444 278.713 262.554 278.544C262.672 278.368 262.822 278.232 263.005 278.137C263.196 278.034 263.449 277.983 263.764 277.983C264.175 277.983 264.479 278.056 264.677 278.203C264.875 278.35 264.974 278.555 264.974 278.819C264.974 279.076 264.883 279.285 264.699 279.446C264.523 279.6 264.241 279.677 263.852 279.677C263.852 279.472 263.834 279.307 263.797 279.182C263.761 279.05 263.702 278.955 263.621 278.896C263.541 278.83 263.427 278.797 263.28 278.797C263.082 278.797 262.914 278.874 262.774 279.028C262.642 279.182 262.54 279.376 262.466 279.611C262.393 279.846 262.338 280.088 262.301 280.337C262.272 280.586 262.257 280.806 262.257 280.997V282.768C262.257 282.981 262.298 283.142 262.378 283.252C262.459 283.355 262.562 283.424 262.686 283.461C262.818 283.49 262.965 283.505 263.126 283.505H263.445V284H260.123ZM265.341 284V283.505H265.44C265.594 283.505 265.737 283.487 265.869 283.45C266.001 283.413 266.107 283.34 266.188 283.23C266.269 283.12 266.309 282.955 266.309 282.735V276.861C266.309 276.648 266.265 276.491 266.177 276.388C266.096 276.285 265.99 276.219 265.858 276.19C265.726 276.153 265.587 276.135 265.44 276.135H265.341V275.64H267.519V279.886C267.519 279.981 267.515 280.102 267.508 280.249C267.508 280.396 267.504 280.542 267.497 280.689C267.49 280.836 267.482 280.96 267.475 281.063C267.475 281.158 267.475 281.206 267.475 281.206L268.85 279.688C268.989 279.534 269.096 279.406 269.169 279.303C269.242 279.193 269.294 279.101 269.323 279.028C269.352 278.955 269.367 278.889 269.367 278.83C269.367 278.735 269.319 278.672 269.224 278.643C269.136 278.606 269 278.588 268.817 278.588V278.104H271.347V278.588C271.222 278.588 271.098 278.61 270.973 278.654C270.848 278.698 270.724 278.764 270.599 278.852C270.474 278.933 270.346 279.035 270.214 279.16C270.082 279.285 269.943 279.428 269.796 279.589L269.048 280.436L270.511 282.614C270.643 282.805 270.768 282.97 270.885 283.109C271.01 283.241 271.138 283.34 271.27 283.406C271.409 283.472 271.556 283.505 271.71 283.505H271.743V284H271.589C271.244 284 270.958 283.989 270.731 283.967C270.504 283.945 270.309 283.901 270.148 283.835C269.994 283.769 269.851 283.666 269.719 283.527C269.587 283.388 269.444 283.197 269.29 282.955L268.223 281.283L267.519 281.811V282.779C267.519 282.984 267.559 283.142 267.64 283.252C267.728 283.355 267.838 283.424 267.97 283.461C268.102 283.49 268.241 283.505 268.388 283.505H268.443V284H265.341ZM272.542 279.182C272.491 279.028 272.428 278.911 272.355 278.83C272.289 278.742 272.208 278.683 272.113 278.654C272.025 278.617 271.908 278.599 271.761 278.599H271.728V278.104H274.588V278.599H274.445C274.225 278.599 274.06 278.632 273.95 278.698C273.84 278.757 273.785 278.878 273.785 279.061C273.785 279.12 273.792 279.193 273.807 279.281C273.829 279.369 273.851 279.453 273.873 279.534L274.357 281.272C274.408 281.448 274.456 281.639 274.5 281.844C274.544 282.049 274.584 282.247 274.621 282.438C274.665 282.621 274.698 282.775 274.72 282.9H274.753C274.775 282.775 274.808 282.632 274.852 282.471C274.896 282.31 274.947 282.137 275.006 281.954C275.065 281.771 275.123 281.591 275.182 281.415L276.315 278.148H277.019L278.108 281.393C278.152 281.525 278.196 281.661 278.24 281.8C278.284 281.939 278.324 282.079 278.361 282.218C278.405 282.357 278.442 282.486 278.471 282.603C278.5 282.72 278.522 282.819 278.537 282.9H278.57C278.592 282.775 278.621 282.643 278.658 282.504C278.695 282.357 278.735 282.196 278.779 282.02C278.83 281.837 278.889 281.635 278.955 281.415L279.494 279.688C279.523 279.593 279.545 279.494 279.56 279.391C279.582 279.281 279.593 279.197 279.593 279.138C279.593 278.947 279.531 278.812 279.406 278.731C279.289 278.643 279.109 278.599 278.867 278.599H278.79V278.104H281.188V278.599H281.045C280.906 278.599 280.788 278.621 280.693 278.665C280.598 278.702 280.513 278.782 280.44 278.907C280.367 279.032 280.293 279.215 280.22 279.457L278.801 284H277.833L276.414 279.666L274.929 284H273.972L272.542 279.182ZM283.436 284.11C283.113 284.11 282.82 284.048 282.556 283.923C282.299 283.791 282.098 283.597 281.951 283.34C281.804 283.076 281.731 282.742 281.731 282.339C281.731 281.752 281.936 281.32 282.347 281.041C282.758 280.755 283.385 280.597 284.228 280.568L285.13 280.535V279.897C285.13 279.633 285.108 279.402 285.064 279.204C285.027 279.006 284.943 278.852 284.811 278.742C284.679 278.625 284.477 278.566 284.206 278.566C283.949 278.566 283.751 278.617 283.612 278.72C283.48 278.823 283.388 278.966 283.337 279.149C283.293 279.325 283.271 279.53 283.271 279.765C282.919 279.765 282.651 279.714 282.468 279.611C282.285 279.501 282.193 279.318 282.193 279.061C282.193 278.797 282.285 278.588 282.468 278.434C282.659 278.28 282.908 278.166 283.216 278.093C283.531 278.02 283.876 277.983 284.25 277.983C284.947 277.983 285.467 278.126 285.812 278.412C286.164 278.698 286.34 279.186 286.34 279.875V282.713C286.34 282.918 286.362 283.08 286.406 283.197C286.45 283.307 286.523 283.388 286.626 283.439C286.729 283.483 286.861 283.505 287.022 283.505H287.055V284H285.416L285.229 283.109H285.13C284.976 283.307 284.826 283.483 284.679 283.637C284.532 283.784 284.364 283.901 284.173 283.989C283.982 284.07 283.737 284.11 283.436 284.11ZM283.788 283.395C284.067 283.395 284.305 283.336 284.503 283.219C284.701 283.094 284.855 282.918 284.965 282.691C285.075 282.464 285.13 282.2 285.13 281.899V281.03L284.481 281.063C284.1 281.078 283.799 281.14 283.579 281.25C283.359 281.353 283.201 281.499 283.106 281.69C283.018 281.881 282.974 282.115 282.974 282.394C282.974 282.614 283.003 282.801 283.062 282.955C283.121 283.102 283.209 283.212 283.326 283.285C283.451 283.358 283.605 283.395 283.788 283.395ZM287.817 284V283.505H287.85C288.018 283.505 288.169 283.487 288.301 283.45C288.44 283.413 288.546 283.34 288.62 283.23C288.7 283.113 288.741 282.94 288.741 282.713V279.347C288.741 279.127 288.7 278.966 288.62 278.863C288.539 278.753 288.433 278.683 288.301 278.654C288.176 278.617 288.033 278.599 287.872 278.599H287.839V278.104H289.676L289.885 279.127H289.94C290.035 278.907 290.138 278.713 290.248 278.544C290.365 278.368 290.515 278.232 290.699 278.137C290.889 278.034 291.142 277.983 291.458 277.983C291.868 277.983 292.173 278.056 292.371 278.203C292.569 278.35 292.668 278.555 292.668 278.819C292.668 279.076 292.576 279.285 292.393 279.446C292.217 279.6 291.934 279.677 291.546 279.677C291.546 279.472 291.527 279.307 291.491 279.182C291.454 279.05 291.395 278.955 291.315 278.896C291.234 278.83 291.12 278.797 290.974 278.797C290.776 278.797 290.607 278.874 290.468 279.028C290.336 279.182 290.233 279.376 290.16 279.611C290.086 279.846 290.031 280.088 289.995 280.337C289.965 280.586 289.951 280.806 289.951 280.997V282.768C289.951 282.981 289.991 283.142 290.072 283.252C290.152 283.355 290.255 283.424 290.38 283.461C290.512 283.49 290.658 283.505 290.82 283.505H291.139V284H287.817ZM295.487 284.11C294.945 284.11 294.541 283.985 294.277 283.736C294.013 283.479 293.881 283.032 293.881 282.394V278.764H293.056V278.291C293.21 278.291 293.372 278.258 293.54 278.192C293.709 278.126 293.852 278.031 293.969 277.906C294.094 277.781 294.197 277.627 294.277 277.444C294.358 277.253 294.424 277.022 294.475 276.751H295.091V278.104H296.521V278.764H295.091V282.394C295.091 282.753 295.161 283.017 295.3 283.186C295.447 283.355 295.649 283.439 295.905 283.439C296.037 283.439 296.158 283.432 296.268 283.417C296.386 283.402 296.503 283.384 296.62 283.362V283.912C296.525 283.956 296.371 284 296.158 284.044C295.946 284.088 295.722 284.11 295.487 284.11ZM297.106 284V283.505H297.249C297.396 283.505 297.535 283.49 297.667 283.461C297.799 283.424 297.906 283.355 297.986 283.252C298.074 283.142 298.118 282.984 298.118 282.779V279.325C298.118 279.112 298.074 278.955 297.986 278.852C297.906 278.749 297.799 278.683 297.667 278.654C297.535 278.617 297.396 278.599 297.249 278.599H297.194V278.104H299.328V282.735C299.328 282.955 299.369 283.12 299.449 283.23C299.53 283.34 299.636 283.413 299.768 283.45C299.908 283.487 300.051 283.505 300.197 283.505H300.34V284H297.106ZM298.679 277.037C298.474 277.037 298.302 276.982 298.162 276.872C298.03 276.762 297.964 276.579 297.964 276.322C297.964 276.058 298.034 275.875 298.173 275.772C298.313 275.662 298.481 275.607 298.679 275.607C298.87 275.607 299.035 275.662 299.174 275.772C299.321 275.875 299.394 276.058 299.394 276.322C299.394 276.579 299.321 276.762 299.174 276.872C299.035 276.982 298.87 277.037 298.679 277.037ZM303.708 284.11C302.872 284.11 302.223 283.846 301.761 283.318C301.306 282.79 301.079 282.049 301.079 281.096C301.079 280.062 301.299 279.285 301.739 278.764C302.179 278.243 302.798 277.983 303.598 277.983C304.331 277.983 304.907 278.207 305.325 278.654C305.75 279.094 305.963 279.75 305.963 280.623V281.14H302.322C302.336 281.661 302.402 282.09 302.52 282.427C302.644 282.757 302.82 282.999 303.048 283.153C303.282 283.307 303.568 283.384 303.906 283.384C304.162 283.384 304.39 283.347 304.588 283.274C304.793 283.193 304.969 283.094 305.116 282.977C305.27 282.852 305.391 282.72 305.479 282.581C305.545 282.61 305.6 282.662 305.644 282.735C305.688 282.808 305.71 282.896 305.71 282.999C305.71 283.16 305.636 283.329 305.49 283.505C305.35 283.674 305.13 283.817 304.83 283.934C304.536 284.051 304.162 284.11 303.708 284.11ZM304.698 280.513C304.698 280.132 304.661 279.798 304.588 279.512C304.514 279.226 304.397 279.006 304.236 278.852C304.074 278.691 303.858 278.61 303.587 278.61C303.337 278.61 303.121 278.683 302.938 278.83C302.762 278.977 302.622 279.193 302.52 279.479C302.424 279.758 302.366 280.102 302.344 280.513H304.698ZM306.809 284V283.505H306.842C307.01 283.505 307.161 283.487 307.293 283.45C307.432 283.413 307.538 283.34 307.612 283.23C307.692 283.113 307.733 282.94 307.733 282.713V279.347C307.733 279.127 307.692 278.966 307.612 278.863C307.531 278.753 307.425 278.683 307.293 278.654C307.168 278.617 307.025 278.599 306.864 278.599H306.831V278.104H308.668L308.877 279.127H308.932C309.027 278.907 309.13 278.713 309.24 278.544C309.357 278.368 309.507 278.232 309.691 278.137C309.881 278.034 310.134 277.983 310.45 277.983C310.86 277.983 311.165 278.056 311.363 278.203C311.561 278.35 311.66 278.555 311.66 278.819C311.66 279.076 311.568 279.285 311.385 279.446C311.209 279.6 310.926 279.677 310.538 279.677C310.538 279.472 310.519 279.307 310.483 279.182C310.446 279.05 310.387 278.955 310.307 278.896C310.226 278.83 310.112 278.797 309.966 278.797C309.768 278.797 309.599 278.874 309.46 279.028C309.328 279.182 309.225 279.376 309.152 279.611C309.078 279.846 309.023 280.088 308.987 280.337C308.957 280.586 308.943 280.806 308.943 280.997V282.768C308.943 282.981 308.983 283.142 309.064 283.252C309.144 283.355 309.247 283.424 309.372 283.461C309.504 283.49 309.65 283.505 309.812 283.505H310.131V284H306.809Z" fill="black"/>
<path d="M204.268 326V323.792L207.988 319.784C208.692 319.048 209.276 318.376 209.74 317.768C210.204 317.16 210.564 316.592 210.82 316.064C211.092 315.52 211.284 314.984 211.396 314.456C211.524 313.928 211.588 313.368 211.588 312.776C211.588 312.168 211.5 311.656 211.324 311.24C211.164 310.824 210.932 310.512 210.628 310.304C210.324 310.096 209.94 309.992 209.476 309.992C208.868 309.992 208.388 310.152 208.036 310.472C207.7 310.792 207.46 311.248 207.316 311.84C207.188 312.416 207.124 313.112 207.124 313.928C206.596 313.928 206.124 313.864 205.708 313.736C205.308 313.592 204.996 313.368 204.771 313.064C204.548 312.76 204.436 312.36 204.436 311.864C204.436 311.256 204.62 310.712 204.988 310.232C205.372 309.736 205.94 309.344 206.692 309.056C207.444 308.768 208.372 308.624 209.476 308.624C210.612 308.624 211.572 308.784 212.356 309.104C213.14 309.424 213.732 309.888 214.132 310.496C214.548 311.088 214.756 311.792 214.756 312.608C214.756 313.056 214.692 313.496 214.564 313.928C214.436 314.36 214.244 314.8 213.988 315.248C213.732 315.696 213.396 316.184 212.98 316.712C212.564 317.224 212.052 317.792 211.444 318.416C210.852 319.04 210.164 319.736 209.38 320.504L206.355 323.624H211.924C212.5 323.624 212.94 323.472 213.244 323.168C213.564 322.848 213.796 322.432 213.94 321.92L214.084 321.296H215.356L215.236 326H204.268ZM223.314 326.24C221.906 326.24 220.778 325.872 219.93 325.136C219.082 324.4 218.466 323.368 218.082 322.04C217.698 320.712 217.506 319.16 217.506 317.384C217.506 315.608 217.698 314.064 218.082 312.752C218.466 311.44 219.082 310.424 219.93 309.704C220.778 308.984 221.914 308.624 223.338 308.624C224.682 308.624 225.77 308.984 226.602 309.704C227.45 310.424 228.074 311.448 228.474 312.776C228.89 314.088 229.098 315.632 229.098 317.408C229.098 319.184 228.89 320.736 228.474 322.064C228.074 323.376 227.45 324.4 226.602 325.136C225.754 325.872 224.658 326.24 223.314 326.24ZM223.314 324.776C223.81 324.776 224.218 324.616 224.538 324.296C224.874 323.96 225.13 323.48 225.306 322.856C225.498 322.216 225.634 321.44 225.714 320.528C225.794 319.616 225.834 318.576 225.834 317.408C225.834 316.24 225.794 315.208 225.714 314.312C225.65 313.4 225.522 312.632 225.33 312.008C225.138 311.384 224.874 310.912 224.538 310.592C224.218 310.256 223.818 310.088 223.338 310.088C222.842 310.088 222.426 310.256 222.09 310.592C221.754 310.912 221.49 311.384 221.298 312.008C221.106 312.632 220.97 313.4 220.89 314.312C220.81 315.208 220.77 316.24 220.77 317.408C220.77 318.576 220.81 319.616 220.89 320.528C220.97 321.44 221.106 322.216 221.298 322.856C221.49 323.48 221.746 323.96 222.066 324.296C222.402 324.616 222.818 324.776 223.314 324.776ZM231.08 326V323.792L234.8 319.784C235.504 319.048 236.088 318.376 236.552 317.768C237.016 317.16 237.376 316.592 237.632 316.064C237.904 315.52 238.096 314.984 238.208 314.456C238.336 313.928 238.4 313.368 238.4 312.776C238.4 312.168 238.312 311.656 238.136 311.24C237.976 310.824 237.744 310.512 237.44 310.304C237.136 310.096 236.752 309.992 236.288 309.992C235.68 309.992 235.2 310.152 234.848 310.472C234.512 310.792 234.272 311.248 234.128 311.84C234 312.416 233.936 313.112 233.936 313.928C233.408 313.928 232.936 313.864 232.52 313.736C232.12 313.592 231.808 313.368 231.584 313.064C231.36 312.76 231.248 312.36 231.248 311.864C231.248 311.256 231.432 310.712 231.8 310.232C232.184 309.736 232.752 309.344 233.504 309.056C234.256 308.768 235.184 308.624 236.288 308.624C237.424 308.624 238.384 308.784 239.168 309.104C239.952 309.424 240.544 309.888 240.944 310.496C241.36 311.088 241.568 311.792 241.568 312.608C241.568 313.056 241.504 313.496 241.376 313.928C241.248 314.36 241.056 314.8 240.8 315.248C240.544 315.696 240.208 316.184 239.792 316.712C239.376 317.224 238.864 317.792 238.256 318.416C237.664 319.04 236.976 319.736 236.192 320.504L233.168 323.624H238.736C239.312 323.624 239.752 323.472 240.056 323.168C240.376 322.848 240.608 322.432 240.752 321.92L240.896 321.296H242.168L242.048 326H231.08ZM249.286 326.24C248.086 326.24 247.134 326.104 246.43 325.832C245.742 325.56 245.246 325.216 244.942 324.8C244.654 324.384 244.51 323.96 244.51 323.528C244.51 323 244.662 322.608 244.966 322.352C245.286 322.08 245.718 321.944 246.262 321.944C246.262 322.392 246.358 322.832 246.55 323.264C246.742 323.68 247.038 324.016 247.438 324.272C247.838 324.528 248.358 324.656 248.998 324.656C249.574 324.656 250.102 324.536 250.582 324.296C251.062 324.056 251.438 323.656 251.71 323.096C251.998 322.52 252.142 321.736 252.142 320.744C252.142 319.928 252.006 319.248 251.734 318.704C251.462 318.16 251.07 317.76 250.558 317.504C250.046 317.248 249.438 317.12 248.734 317.12C248.286 317.12 247.894 317.144 247.558 317.192C247.222 317.224 246.926 317.28 246.67 317.36C246.43 317.424 246.19 317.496 245.95 317.576L245.062 317.24L245.83 308.864H254.494L254.614 312.944H253.39L253.222 312.176C253.19 311.968 253.134 311.8 253.054 311.672C252.99 311.528 252.878 311.424 252.718 311.36C252.558 311.28 252.334 311.24 252.046 311.24H247.198L246.766 315.992C246.942 315.928 247.166 315.872 247.438 315.824C247.71 315.76 248.022 315.712 248.374 315.68C248.742 315.648 249.11 315.632 249.478 315.632C250.646 315.632 251.67 315.824 252.55 316.208C253.446 316.576 254.134 317.136 254.614 317.888C255.11 318.64 255.358 319.592 255.358 320.744C255.358 321.512 255.246 322.192 255.022 322.784C254.814 323.376 254.518 323.888 254.134 324.32C253.766 324.752 253.318 325.112 252.79 325.4C252.278 325.688 251.718 325.896 251.11 326.024C250.518 326.168 249.91 326.24 249.286 326.24Z" fill="#0AB52F"/>
<rect x="130" y="411" width="200" height="2.44445" fill="black"/>
<rect x="130" y="415.889" width="200" height="6.11112" fill="black"/>
<rect x="130" y="122" width="200" height="6.11111" fill="black"/>
<rect x="130" y="130.556" width="200" height="2.44444" fill="black"/>
<rect x="69.075" y="118.313" width="61.8368" height="6.18921" transform="rotate(3.29554 69.075 118.313)" fill="black"/>
<rect x="68.5769" y="126.964" width="61.8368" height="2.47569" transform="rotate(3.29554 68.5769 126.964)" fill="black"/>
<rect width="61.8368" height="6.45738" transform="matrix(-0.998346 0.0574863 0.0574863 0.998346 390.735 118)" fill="black"/>
<rect width="61.8368" height="2.58295" transform="matrix(-0.998346 0.0574863 0.0574863 0.998346 391.254 127.025)" fill="black"/>
<rect width="66.755" height="6.18921" transform="matrix(0.967841 -0.251563 -0.251563 -0.967841 329.803 422.338)" fill="black"/>
<rect width="66.755" height="2.47569" transform="matrix(0.967841 -0.251563 -0.251563 -0.967841 327.623 413.952)" fill="black"/>
<rect width="66.215" height="6.45738" transform="matrix(0.967853 0.251517 0.251517 -0.967853 65.5381 405.83)" fill="black"/>
<rect width="66.215" height="2.58295" transform="matrix(0.967853 0.251517 0.251517 -0.967853 67.8119 397.081)" fill="black"/>
</g>
<defs>
<filter id="filter0_i_1_5" x="90" y="81.25" width="280" height="18.75" filterUnits="userSpaceOnUse" color-interpolation-filters="sRGB">
<feFlood flood-opacity="0" result="BackgroundImageFix"/>
<feBlend mode="normal" in="SourceGraphic" in2="BackgroundImageFix" result="shape"/>
<feColorMatrix in="SourceAlpha" type="matrix" values="0 0 0 0 0 0 0 0 0 0 0 0 0 0 0 0 0 0 127 0" result="hardAlpha"/>
<feOffset/>
<feGaussianBlur stdDeviation="2"/>
<feComposite in2="hardAlpha" operator="arithmetic" k2="-1" k3="1"/>
<feColorMatrix type="matrix" values="0 0 0 0 0 0 0 0 0 0 0 0 0 0 0 0 0 0 0.25 0"/>
<feBlend mode="normal" in2="shape" result="effect1_innerShadow_1_5"/>
</filter>
<filter id="filter1_i_1_5" x="90" y="75" width="280" height="10.25" filterUnits="userSpaceOnUse" color-interpolation-filters="sRGB">
<feFlood flood-opacity="0" result="BackgroundImageFix"/>
<feBlend mode="normal" in="SourceGraphic" in2="BackgroundImageFix" result="shape"/>
<feColorMatrix in="SourceAlpha" type="matrix" values="0 0 0 0 0 0 0 0 0 0 0 0 0 0 0 0 0 0 127 0" result="hardAlpha"/>
<feOffset dy="4"/>
<feGaussianBlur stdDeviation="2"/>
<feComposite in2="hardAlpha" operator="arithmetic" k2="-1" k3="1"/>
<feColorMatrix type="matrix" values="0 0 0 0 0 0 0 0 0 0 0 0 0 0 0 0 0 0 0.25 0"/>
<feBlend mode="normal" in2="shape" result="effect1_innerShadow_1_5"/>
</filter>
<filter id="filter2_i_1_5" x="50" y="25" width="360" height="54" filterUnits="userSpaceOnUse" color-interpolation-filters="sRGB">
<feFlood flood-opacity="0" result="BackgroundImageFix"/>
<feBlend mode="normal" in="SourceGraphic" in2="BackgroundImageFix" result="shape"/>
<feColorMatrix in="SourceAlpha" type="matrix" values="0 0 0 0 0 0 0 0 0 0 0 0 0 0 0 0 0 0 127 0" result="hardAlpha"/>
<feOffset dy="4"/>
<feGaussianBlur stdDeviation="2"/>
<feComposite in2="hardAlpha" operator="arithmetic" k2="-1" k3="1"/>
<feColorMatrix type="matrix" values="0 0 0 0 0 0 0 0 0 0 0 0 0 0 0 0 0 0 0.25 0"/>
<feBlend mode="normal" in2="shape" result="effect1_innerShadow_1_5"/>
</filter>
<filter id="filter3_i_1_5" x="130" y="90" width="200" height="360" filterUnits="userSpaceOnUse" color-interpolation-filters="sRGB">
<feFlood flood-opacity="0" result="BackgroundImageFix"/>
<feBlend mode="normal" in="SourceGraphic" in2="BackgroundImageFix" result="shape"/>
<feColorMatrix in="SourceAlpha" type="matrix" values="0 0 0 0 0 0 0 0 0 0 0 0 0 0 0 0 0 0 127 0" result="hardAlpha"/>
<feOffset/>
<feGaussianBlur stdDeviation="3"/>
<feComposite in2="hardAlpha" operator="arithmetic" k2="-1" k3="1"/>
<feColorMatrix type="matrix" values="0 0 0 0 0 0 0 0 0 0 0 0 0 0 0 0 0 0 0.25 0"/>
<feBlend mode="normal" in2="shape" result="effect1_innerShadow_1_5"/>
</filter>
<filter id="filter4_i_1_5" x="50" y="85.3865" width="80" height="364.614" filterUnits="userSpaceOnUse" color-interpolation-filters="sRGB">
<feFlood flood-opacity="0" result="BackgroundImageFix"/>
<feBlend mode="normal" in="SourceGraphic" in2="BackgroundImageFix" result="shape"/>
<feColorMatrix in="SourceAlpha" type="matrix" values="0 0 0 0 0 0 0 0 0 0 0 0 0 0 0 0 0 0 127 0" result="hardAlpha"/>
<feOffset/>
<feGaussianBlur stdDeviation="2"/>
<feComposite in2="hardAlpha" operator="arithmetic" k2="-1" k3="1"/>
<feColorMatrix type="matrix" values="0 0 0 0 0 0 0 0 0 0 0 0 0 0 0 0 0 0 0.25 0"/>
<feBlend mode="normal" in2="shape" result="effect1_innerShadow_1_5"/>
</filter>
<filter id="filter5_i_1_5" x="330" y="85.3865" width="80" height="364.614" filterUnits="userSpaceOnUse" color-interpolation-filters="sRGB">
<feFlood flood-opacity="0" result="BackgroundImageFix"/>
<feBlend mode="normal" in="SourceGraphic" in2="BackgroundImageFix" result="shape"/>
<feColorMatrix in="SourceAlpha" type="matrix" values="0 0 0 0 0 0 0 0 0 0 0 0 0 0 0 0 0 0 127 0" result="hardAlpha"/>
<feOffset/>
<feGaussianBlur stdDeviation="2"/>
<feComposite in2="hardAlpha" operator="arithmetic" k2="-1" k3="1"/>
<feColorMatrix type="matrix" values="0 0 0 0 0 0 0 0 0 0 0 0 0 0 0 0 0 0 0.25 0"/>
<feBlend mode="normal" in2="shape" result="effect1_innerShadow_1_5"/>
</filter>
<filter id="filter6_i_1_5" x="330" y="118.25" width="60" height="303.75" filterUnits="userSpaceOnUse" color-interpolation-filters="sRGB">
<feFlood flood-opacity="0" result="BackgroundImageFix"/>
<feBlend mode="normal" in="SourceGraphic" in2="BackgroundImageFix" result="shape"/>
<feColorMatrix in="SourceAlpha" type="matrix" values="0 0 0 0 0 0 0 0 0 0 0 0 0 0 0 0 0 0 127 0" result="hardAlpha"/>
<feOffset/>
<feGaussianBlur stdDeviation="1"/>
<feComposite in2="hardAlpha" operator="arithmetic" k2="-1" k3="1"/>
<feColorMatrix type="matrix" values="0 0 0 0 0 0 0 0 0 0 0 0 0 0 0 0 0 0 0.25 0"/>
<feBlend mode="normal" in2="shape" result="effect1_innerShadow_1_5"/>
</filter>
<filter id="filter7_i_1_5" x="70" y="118.25" width="60" height="303.75" filterUnits="userSpaceOnUse" color-interpolation-filters="sRGB">
<feFlood flood-opacity="0" result="BackgroundImageFix"/>
<feBlend mode="normal" in="SourceGraphic" in2="BackgroundImageFix" result="shape"/>
<feColorMatrix in="SourceAlpha" type="matrix" values="0 0 0 0 0 0 0 0 0 0 0 0 0 0 0 0 0 0 127 0" result="hardAlpha"/>
<feOffset/>
<feGaussianBlur stdDeviation="1"/>
<feComposite in2="hardAlpha" operator="arithmetic" k2="-1" k3="1"/>
<feColorMatrix type="matrix" values="0 0 0 0 0 0 0 0 0 0 0 0 0 0 0 0 0 0 0.25 0"/>
<feBlend mode="normal" in2="shape" result="effect1_innerShadow_1_5"/>
</filter>
</defs>
</svg>
