<svg width="460" height="460" viewBox="0 0 460 460" fill="none" xmlns="http://www.w3.org/2000/svg">
<g filter="url(#filter0_i_1_5)">
<rect x="90" y="81.25" width="280" height="18.75" fill="#E39F1F"/>
<rect x="90" y="81.25" width="280" height="18.75" fill="black" fill-opacity="0.1"/>
</g>
<g filter="url(#filter1_i_1_5)">
<rect x="90" y="75" width="280" height="6.25" fill="#D9D9D9"/>
</g>
<g filter="url(#filter2_i_1_5)">
<rect x="50" y="25" width="360" height="50" rx="4" fill="#3A3434"/>
</g>
<g filter="url(#filter3_i_1_5)">
<rect x="130" y="90" width="200" height="360" fill="#E39F1F"/>
</g>
<g filter="url(#filter4_i_1_5)">
<path d="M130 90L56.3743 85.3984C52.9201 85.1825 50 87.9258 50 91.3867V425.315C50 428.069 51.8738 430.468 54.5448 431.136L130 450V90Z" fill="#E39F1F"/>
<path d="M130 90L56.3743 85.3984C52.9201 85.1825 50 87.9258 50 91.3867V425.315C50 428.069 51.8738 430.468 54.5448 431.136L130 450V90Z" fill="black" fill-opacity="0.05"/>
</g>
<g filter="url(#filter5_i_1_5)">
<path d="M330 90L403.626 85.3984C407.08 85.1825 410 87.9258 410 91.3867V425.315C410 428.069 408.126 430.468 405.455 431.136L330 450V90Z" fill="#E39F1F"/>
<path d="M330 90L403.626 85.3984C407.08 85.1825 410 87.9258 410 91.3867V425.315C410 428.069 408.126 430.468 405.455 431.136L330 450V90Z" fill="black" fill-opacity="0.05"/>
</g>
<mask id="mask0_1_5" style="mask-type:alpha" maskUnits="userSpaceOnUse" x="70" y="118" width="320" height="304">
<path d="M330 122L390 118.25V407L330 422V122Z" fill="#FFD74B"/>
<path d="M330 122L390 118.25V407L330 422V122Z" fill="black" fill-opacity="0.05"/>
<path d="M130 122L70 118.25V407L130 422V122Z" fill="#FFD74B"/>
<path d="M130 122L70 118.25V407L130 422V122Z" fill="black" fill-opacity="0.05"/>
<path d="M130 122H330V422H130V122Z" fill="#FFD74B"/>
</mask>
<g mask="url(#mask0_1_5)">
<g filter="url(#filter6_i_1_5)">
<path d="M330 122L390 118.25V407L330 422V122Z" fill="#FFD74B"/>
<path d="M330 122L390 118.25V407L330 422V122Z" fill="black" fill-opacity="0.05"/>
</g>
<g filter="url(#filter7_i_1_5)">
<path d="M130 122L70 118.25V407L130 422V122Z" fill="#FFD74B"/>
<path d="M130 122L70 118.25V407L130 422V122Z" fill="black" fill-opacity="0.05"/>
</g>
<rect x="130" y="122" width="200" height="300" fill="#FFD74B"/>
<rect x="130" y="122" width="200" height="300" fill="white" fill-opacity="0.7"/>
<rect x="129.5" y="121.5" width="201" height="301" stroke="black" stroke-opacity="0.1"/>
<path d="M130 122.649L132.778 117.757H138.333L141.111 122.649L138.333 127.542H132.778L130 122.649Z" fill="#FFD74B"/>
<path d="M139.444 128.298L142.222 123.406H147.778L150.556 128.298L147.778 133.191H142.222L139.444 128.298Z" fill="#FFD74B"/>
<path d="M130 133.948L132.778 129.055H138.333L141.111 133.948L138.333 138.84H132.778L130 133.948Z" fill="#FFD74B"/>
<path d="M139.444 139.597L142.222 134.704H147.778L150.556 139.597L147.778 144.489H142.222L139.444 139.597Z" fill="#FFD74B"/>
<path d="M130 145.246L132.778 140.354H138.333L141.111 145.246L138.333 150.138H132.778L130 145.246Z" fill="#FFD74B"/>
<path d="M139.444 150.895L142.222 146.003H147.778L150.556 150.895L147.778 155.787H142.222L139.444 150.895Z" fill="#FFD74B"/>
<path d="M130 156.544L132.778 151.652H138.333L141.111 156.544L138.333 161.437H132.778L130 156.544Z" fill="#FFD74B"/>
<path d="M148.889 122.649L151.667 117.757H157.222L160 122.649L157.222 127.542H151.667L148.889 122.649Z" fill="#FFD74B"/>
<path d="M158.333 128.298L161.111 123.406H166.667L169.444 128.298L166.667 133.191H161.111L158.333 128.298Z" fill="#FFD74B"/>
<path d="M148.889 133.948L151.667 129.055H157.222L160 133.948L157.222 138.84H151.667L148.889 133.948Z" fill="#FFD74B"/>
<path d="M158.333 139.597L161.111 134.704H166.667L169.444 139.597L166.667 144.489H161.111L158.333 139.597Z" fill="#FFD74B"/>
<path d="M148.889 145.246L151.667 140.354H157.222L160 145.246L157.222 150.138H151.667L148.889 145.246Z" fill="#FFD74B"/>
<path d="M158.333 150.895L161.111 146.003H166.667L169.444 150.895L166.667 155.787H161.111L158.333 150.895Z" fill="#FFD74B"/>
<path d="M167.778 122.649L170.556 117.757H176.111L178.889 122.649L176.111 127.542H170.556L167.778 122.649Z" fill="#FFD74B"/>
<path d="M177.222 128.298L180 123.406H185.556L188.333 128.298L185.556 133.191H180L177.222 128.298Z" fill="#FFD74B"/>
<path d="M167.778 133.948L170.556 129.055H176.111L178.889 133.948L176.111 138.84H170.556L167.778 133.948Z" fill="#FFD74B"/>
<path d="M177.222 139.597L180 134.704H185.556L188.333 139.597L185.556 144.489H180L177.222 139.597Z" fill="#FFD74B"/>
<path d="M167.778 145.246L170.556 140.354H176.111L178.889 145.246L176.111 150.138H170.556L167.778 145.246Z" fill="#FFD74B"/>
<path d="M177.222 150.895L180 146.003H185.556L188.333 150.895L185.556 155.787H180L177.222 150.895Z" fill="#FFD74B"/>
<path d="M186.667 122.649L189.444 117.757H195L197.778 122.649L195 127.542H189.444L186.667 122.649Z" fill="#FFD74B"/>
<path d="M196.111 128.298L198.889 123.406H204.444L207.222 128.298L204.444 133.191H198.889L196.111 128.298Z" fill="#FFD74B"/>
<path d="M186.667 133.948L189.444 129.055H195L197.778 133.948L195 138.84H189.444L186.667 133.948Z" fill="#FFD74B"/>
<path d="M196.111 139.597L198.889 134.704H204.444L207.222 139.597L204.444 144.489H198.889L196.111 139.597Z" fill="#FFD74B"/>
<path d="M186.667 145.246L189.444 140.354H195L197.778 145.246L195 150.138H189.444L186.667 145.246Z" fill="#FFD74B"/>
<path d="M196.111 150.895L198.889 146.003H204.444L207.222 150.895L204.444 155.787H198.889L196.111 150.895Z" fill="#FFD74B"/>
<path d="M205.556 122.649L208.333 117.757H213.889L216.667 122.649L213.889 127.542H208.333L205.556 122.649Z" fill="#FFD74B"/>
<path d="M215 128.298L217.778 123.406H223.333L226.111 128.298L223.333 133.191H217.778L215 128.298Z" fill="#FFD74B"/>
<path d="M205.556 133.948L208.333 129.055H213.889L216.667 133.948L213.889 138.84H208.333L205.556 133.948Z" fill="#FFD74B"/>
<path d="M215 139.597L217.778 134.704H223.333L226.111 139.597L223.333 144.489H217.778L215 139.597Z" fill="#FFD74B"/>
<path d="M205.556 145.246L208.333 140.354H213.889L216.667 145.246L213.889 150.138H208.333L205.556 145.246Z" fill="#FFD74B"/>
<path d="M215 150.895L217.778 146.003H223.333L226.111 150.895L223.333 155.787H217.778L215 150.895Z" fill="#FFD74B"/>
<path d="M224.444 122.649L227.222 117.757H232.778L235.556 122.649L232.778 127.542H227.222L224.444 122.649Z" fill="#FFD74B"/>
<path d="M233.889 128.298L236.667 123.406H242.222L245 128.298L242.222 133.191H236.667L233.889 128.298Z" fill="#FFD74B"/>
<path d="M224.444 133.948L227.222 129.055H232.778L235.556 133.948L232.778 138.84H227.222L224.444 133.948Z" fill="#FFD74B"/>
<path d="M233.889 139.597L236.667 134.704H242.222L245 139.597L242.222 144.489H236.667L233.889 139.597Z" fill="#FFD74B"/>
<path d="M224.444 145.246L227.222 140.354H232.778L235.556 145.246L232.778 150.138H227.222L224.444 145.246Z" fill="#FFD74B"/>
<path d="M233.889 150.895L236.667 146.003H242.222L245 150.895L242.222 155.787H236.667L233.889 150.895Z" fill="#FFD74B"/>
<path d="M243.333 122.649L246.111 117.757H251.667L254.444 122.649L251.667 127.542H246.111L243.333 122.649Z" fill="#FFD74B"/>
<path d="M252.778 128.298L255.556 123.406H261.111L263.889 128.298L261.111 133.191H255.556L252.778 128.298Z" fill="#FFD74B"/>
<path d="M243.333 133.948L246.111 129.055H251.667L254.444 133.948L251.667 138.84H246.111L243.333 133.948Z" fill="#FFD74B"/>
<path d="M252.778 139.597L255.556 134.704H261.111L263.889 139.597L261.111 144.489H255.556L252.778 139.597Z" fill="#FFD74B"/>
<path d="M243.333 145.246L246.111 140.354H251.667L254.444 145.246L251.667 150.138H246.111L243.333 145.246Z" fill="#FFD74B"/>
<path d="M252.778 150.895L255.556 146.003H261.111L263.889 150.895L261.111 155.787H255.556L252.778 150.895Z" fill="#FFD74B"/>
<path d="M262.222 122.649L265 117.757H270.556L273.333 122.649L270.556 127.542H265L262.222 122.649Z" fill="#FFD74B"/>
<path d="M271.667 128.298L274.444 123.406H280L282.778 128.298L280 133.191H274.444L271.667 128.298Z" fill="#FFD74B"/>
<path d="M262.222 133.948L265 129.055H270.556L273.333 133.948L270.556 138.84H265L262.222 133.948Z" fill="#FFD74B"/>
<path d="M271.667 139.597L274.444 134.704H280L282.778 139.597L280 144.489H274.444L271.667 139.597Z" fill="#FFD74B"/>
<path d="M262.222 145.246L265 140.354H270.556L273.333 145.246L270.556 150.138H265L262.222 145.246Z" fill="#FFD74B"/>
<path d="M271.667 150.895L274.444 146.003H280L282.778 150.895L280 155.787H274.444L271.667 150.895Z" fill="#FFD74B"/>
<path d="M281.111 122.649L283.889 117.757H289.444L292.222 122.649L289.444 127.542H283.889L281.111 122.649Z" fill="#FFD74B"/>
<path d="M290.556 128.298L293.333 123.406H298.889L301.667 128.298L298.889 133.191H293.333L290.556 128.298Z" fill="#FFD74B"/>
<path d="M281.111 133.948L283.889 129.055H289.444L292.222 133.948L289.444 138.84H283.889L281.111 133.948Z" fill="#FFD74B"/>
<path d="M290.556 139.597L293.333 134.704H298.889L301.667 139.597L298.889 144.489H293.333L290.556 139.597Z" fill="#FFD74B"/>
<path d="M281.111 145.246L283.889 140.354H289.444L292.222 145.246L289.444 150.138H283.889L281.111 145.246Z" fill="#FFD74B"/>
<path d="M290.556 150.895L293.333 146.003H298.889L301.667 150.895L298.889 155.787H293.333L290.556 150.895Z" fill="#FFD74B"/>
<path d="M300 122.649L302.778 117.757H308.333L311.111 122.649L308.333 127.542H302.778L300 122.649Z" fill="#FFD74B"/>
<path d="M309.444 128.298L312.222 123.406H317.778L320.556 128.298L317.778 133.191H312.222L309.444 128.298Z" fill="#FFD74B"/>
<path d="M300 133.948L302.778 129.055H308.333L311.111 133.948L308.333 138.84H302.778L300 133.948Z" fill="#FFD74B"/>
<path d="M309.444 139.597L312.222 134.704H317.778L320.556 139.597L317.778 144.489H312.222L309.444 139.597Z" fill="#FFD74B"/>
<path d="M300 145.246L302.778 140.354H308.333L311.111 145.246L308.333 150.138H302.778L300 145.246Z" fill="#FFD74B"/>
<path d="M309.444 150.895L312.222 146.003H317.778L320.556 150.895L317.778 155.787H312.222L309.444 150.895Z" fill="#FFD74B"/>
<path d="M318.889 122.649L321.667 117.757H327.222L330 122.649L327.222 127.542H321.667L318.889 122.649Z" fill="#FFD74B"/>
<path d="M318.889 133.948L321.667 129.055H327.222L330 133.948L327.222 138.84H321.667L318.889 133.948Z" fill="#FFD74B"/>
<path d="M318.889 145.246L321.667 140.354H327.222L330 145.246L327.222 150.138H321.667L318.889 145.246Z" fill="#FFD74B"/>
<path d="M318.889 156.544L321.667 151.652H327.222L330 156.544L327.222 161.437H321.667L318.889 156.544Z" fill="#FFD74B"/>
<path d="M330 420.34L327.222 425.242H321.667L318.889 420.34L321.667 415.438H327.222L330 420.34Z" fill="#FFD74B"/>
<path d="M320.556 414.679L317.778 419.581H312.222L309.444 414.679L312.222 409.777H317.778L320.556 414.679Z" fill="#FFD74B"/>
<path d="M330 409.019L327.222 413.921H321.667L318.889 409.019L321.667 404.117H327.222L330 409.019Z" fill="#FFD74B"/>
<path d="M320.556 403.358L317.778 408.26H312.222L309.444 403.358L312.222 398.456H317.778L320.556 403.358Z" fill="#FFD74B"/>
<path d="M330 397.698L327.222 402.6H321.667L318.889 397.698L321.667 392.796H327.222L330 397.698Z" fill="#FFD74B"/>
<path d="M320.556 392.038L317.778 396.94H312.222L309.444 392.038L312.222 387.135H317.778L320.556 392.038Z" fill="#FFD74B"/>
<path d="M330 386.377L327.222 391.279H321.667L318.889 386.377L321.667 381.475H327.222L330 386.377Z" fill="#FFD74B"/>
<path d="M311.111 420.34L308.333 425.242H302.778L300 420.34L302.778 415.438H308.333L311.111 420.34Z" fill="#FFD74B"/>
<path d="M301.667 414.679L298.889 419.581H293.333L290.556 414.679L293.333 409.777H298.889L301.667 414.679Z" fill="#FFD74B"/>
<path d="M311.111 409.019L308.333 413.921H302.778L300 409.019L302.778 404.117H308.333L311.111 409.019Z" fill="#FFD74B"/>
<path d="M301.667 403.358L298.889 408.26H293.333L290.556 403.358L293.333 398.456H298.889L301.667 403.358Z" fill="#FFD74B"/>
<path d="M311.111 397.698L308.333 402.6H302.778L300 397.698L302.778 392.796H308.333L311.111 397.698Z" fill="#FFD74B"/>
<path d="M301.667 392.038L298.889 396.94H293.333L290.556 392.038L293.333 387.135H298.889L301.667 392.038Z" fill="#FFD74B"/>
<path d="M292.222 420.34L289.444 425.242H283.889L281.111 420.34L283.889 415.438H289.444L292.222 420.34Z" fill="#FFD74B"/>
<path d="M282.778 414.679L280 419.581H274.444L271.667 414.679L274.444 409.777H280L282.778 414.679Z" fill="#FFD74B"/>
<path d="M292.222 409.019L289.444 413.921H283.889L281.111 409.019L283.889 404.117H289.444L292.222 409.019Z" fill="#FFD74B"/>
<path d="M282.778 403.358L280 408.26H274.444L271.667 403.358L274.444 398.456H280L282.778 403.358Z" fill="#FFD74B"/>
<path d="M292.222 397.698L289.444 402.6H283.889L281.111 397.698L283.889 392.796H289.444L292.222 397.698Z" fill="#FFD74B"/>
<path d="M282.778 392.038L280 396.94H274.444L271.667 392.038L274.444 387.135H280L282.778 392.038Z" fill="#FFD74B"/>
<path d="M273.333 420.34L270.556 425.242H265L262.222 420.34L265 415.438H270.556L273.333 420.34Z" fill="#FFD74B"/>
<path d="M263.889 414.679L261.111 419.581H255.556L252.778 414.679L255.556 409.777H261.111L263.889 414.679Z" fill="#FFD74B"/>
<path d="M273.333 409.019L270.556 413.921H265L262.222 409.019L265 404.117H270.556L273.333 409.019Z" fill="#FFD74B"/>
<path d="M263.889 403.358L261.111 408.26H255.556L252.778 403.358L255.556 398.456H261.111L263.889 403.358Z" fill="#FFD74B"/>
<path d="M273.333 397.698L270.556 402.6H265L262.222 397.698L265 392.796H270.556L273.333 397.698Z" fill="#FFD74B"/>
<path d="M263.889 392.038L261.111 396.94H255.556L252.778 392.038L255.556 387.135H261.111L263.889 392.038Z" fill="#FFD74B"/>
<path d="M254.444 420.34L251.667 425.242H246.111L243.333 420.34L246.111 415.438H251.667L254.444 420.34Z" fill="#FFD74B"/>
<path d="M245 414.679L242.222 419.581H236.667L233.889 414.679L236.667 409.777H242.222L245 414.679Z" fill="#FFD74B"/>
<path d="M254.444 409.019L251.667 413.921H246.111L243.333 409.019L246.111 404.117H251.667L254.444 409.019Z" fill="#FFD74B"/>
<path d="M245 403.358L242.222 408.26H236.667L233.889 403.358L236.667 398.456H242.222L245 403.358Z" fill="#FFD74B"/>
<path d="M254.444 397.698L251.667 402.6H246.111L243.333 397.698L246.111 392.796H251.667L254.444 397.698Z" fill="#FFD74B"/>
<path d="M245 392.038L242.222 396.94H236.667L233.889 392.038L236.667 387.135H242.222L245 392.038Z" fill="#FFD74B"/>
<path d="M235.556 420.34L232.778 425.242H227.222L224.444 420.34L227.222 415.438H232.778L235.556 420.34Z" fill="#FFD74B"/>
<path d="M226.111 414.679L223.333 419.581H217.778L215 414.679L217.778 409.777H223.333L226.111 414.679Z" fill="#FFD74B"/>
<path d="M235.556 409.019L232.778 413.921H227.222L224.444 409.019L227.222 404.117H232.778L235.556 409.019Z" fill="#FFD74B"/>
<path d="M226.111 403.358L223.333 408.26H217.778L215 403.358L217.778 398.456H223.333L226.111 403.358Z" fill="#FFD74B"/>
<path d="M235.556 397.698L232.778 402.6H227.222L224.444 397.698L227.222 392.796H232.778L235.556 397.698Z" fill="#FFD74B"/>
<path d="M226.111 392.038L223.333 396.94H217.778L215 392.038L217.778 387.135H223.333L226.111 392.038Z" fill="#FFD74B"/>
<path d="M216.667 420.34L213.889 425.242H208.333L205.556 420.34L208.333 415.438H213.889L216.667 420.34Z" fill="#FFD74B"/>
<path d="M207.222 414.679L204.444 419.581H198.889L196.111 414.679L198.889 409.777H204.444L207.222 414.679Z" fill="#FFD74B"/>
<path d="M216.667 409.019L213.889 413.921H208.333L205.556 409.019L208.333 404.117H213.889L216.667 409.019Z" fill="#FFD74B"/>
<path d="M207.222 403.358L204.444 408.26H198.889L196.111 403.358L198.889 398.456H204.444L207.222 403.358Z" fill="#FFD74B"/>
<path d="M216.667 397.698L213.889 402.6H208.333L205.556 397.698L208.333 392.796H213.889L216.667 397.698Z" fill="#FFD74B"/>
<path d="M207.222 392.038L204.444 396.94H198.889L196.111 392.038L198.889 387.135H204.444L207.222 392.038Z" fill="#FFD74B"/>
<path d="M197.778 420.34L195 425.242H189.444L186.667 420.34L189.444 415.438H195L197.778 420.34Z" fill="#FFD74B"/>
<path d="M188.333 414.679L185.556 419.581H180L177.222 414.679L180 409.777H185.556L188.333 414.679Z" fill="#FFD74B"/>
<path d="M197.778 409.019L195 413.921H189.444L186.667 409.019L189.444 404.117H195L197.778 409.019Z" fill="#FFD74B"/>
<path d="M188.333 403.358L185.556 408.26H180L177.222 403.358L180 398.456H185.556L188.333 403.358Z" fill="#FFD74B"/>
<path d="M197.778 397.698L195 402.6H189.444L186.667 397.698L189.444 392.796H195L197.778 397.698Z" fill="#FFD74B"/>
<path d="M188.333 392.038L185.556 396.94H180L177.222 392.038L180 387.135H185.556L188.333 392.038Z" fill="#FFD74B"/>
<path d="M178.889 420.34L176.111 425.242H170.556L167.778 420.34L170.556 415.438H176.111L178.889 420.34Z" fill="#FFD74B"/>
<path d="M169.444 414.679L166.667 419.581H161.111L158.333 414.679L161.111 409.777H166.667L169.444 414.679Z" fill="#FFD74B"/>
<path d="M178.889 409.019L176.111 413.921H170.556L167.778 409.019L170.556 404.117H176.111L178.889 409.019Z" fill="#FFD74B"/>
<path d="M169.444 403.358L166.667 408.26H161.111L158.333 403.358L161.111 398.456H166.667L169.444 403.358Z" fill="#FFD74B"/>
<path d="M178.889 397.698L176.111 402.6H170.556L167.778 397.698L170.556 392.796H176.111L178.889 397.698Z" fill="#FFD74B"/>
<path d="M169.444 392.038L166.667 396.94H161.111L158.333 392.038L161.111 387.135H166.667L169.444 392.038Z" fill="#FFD74B"/>
<path d="M160 420.34L157.222 425.242H151.667L148.889 420.34L151.667 415.438H157.222L160 420.34Z" fill="#FFD74B"/>
<path d="M150.556 414.679L147.778 419.581H142.222L139.444 414.679L142.222 409.777H147.778L150.556 414.679Z" fill="#FFD74B"/>
<path d="M160 409.019L157.222 413.921H151.667L148.889 409.019L151.667 404.117H157.222L160 409.019Z" fill="#FFD74B"/>
<path d="M150.556 403.358L147.778 408.26H142.222L139.444 403.358L142.222 398.456H147.778L150.556 403.358Z" fill="#FFD74B"/>
<path d="M160 397.698L157.222 402.6H151.667L148.889 397.698L151.667 392.796H157.222L160 397.698Z" fill="#FFD74B"/>
<path d="M150.556 392.038L147.778 396.94H142.222L139.444 392.038L142.222 387.135H147.778L150.556 392.038Z" fill="#FFD74B"/>
<path d="M141.111 420.34L138.333 425.242H132.778L130 420.34L132.778 415.438H138.333L141.111 420.34Z" fill="#FFD74B"/>
<path d="M141.111 409.019L138.333 413.921H132.778L130 409.019L132.778 404.117H138.333L141.111 409.019Z" fill="#FFD74B"/>
<path d="M141.111 397.698L138.333 402.6H132.778L130 397.698L132.778 392.796H138.333L141.111 397.698Z" fill="#FFD74B"/>
<path d="M141.111 386.377L138.333 391.279H132.778L130 386.377L132.778 381.475H138.333L141.111 386.377Z" fill="#FFD74B"/>
<path d="M163.843 215.29C161.503 215.29 159.56 214.845 158.014 213.956C156.467 213.067 155.317 211.829 154.563 210.244C153.809 208.639 153.432 206.764 153.432 204.618C153.432 202.53 153.828 200.693 154.621 199.108C155.413 197.503 156.593 196.256 158.159 195.367C159.744 194.458 161.687 194.004 163.988 194.004C165.534 194.004 166.82 194.149 167.845 194.439C168.869 194.729 169.633 195.125 170.136 195.628C170.658 196.131 170.919 196.691 170.919 197.31C170.919 197.967 170.619 198.518 170.02 198.963C169.44 199.408 168.628 199.63 167.584 199.63C167.584 198.915 167.448 198.267 167.178 197.687C166.926 197.088 166.53 196.614 165.989 196.266C165.467 195.918 164.771 195.744 163.901 195.744C162.393 195.744 161.184 196.092 160.276 196.788C159.367 197.484 158.7 198.489 158.275 199.804C157.869 201.119 157.666 202.723 157.666 204.618C157.666 206.513 157.878 208.117 158.304 209.432C158.748 210.727 159.454 211.723 160.421 212.419C161.387 213.096 162.673 213.434 164.278 213.434C164.722 213.434 165.148 213.415 165.554 213.376C165.979 213.337 166.375 213.27 166.743 213.173V208.765C166.743 208.224 166.646 207.808 166.453 207.518C166.279 207.228 166.027 207.025 165.699 206.909C165.389 206.793 165.012 206.735 164.568 206.735H164.278V205.314H172.804V206.735H172.514C172.127 206.735 171.798 206.803 171.528 206.938C171.257 207.054 171.044 207.267 170.89 207.576C170.754 207.866 170.687 208.301 170.687 208.881V213.811C169.623 214.314 168.541 214.691 167.439 214.942C166.337 215.174 165.138 215.29 163.843 215.29ZM174.226 215V213.579H174.313C174.758 213.579 175.144 213.531 175.473 213.434C175.821 213.337 176.092 213.144 176.285 212.854C176.498 212.545 176.604 212.09 176.604 211.491V202.849C176.604 202.269 176.507 201.844 176.314 201.573C176.121 201.283 175.86 201.099 175.531 201.022C175.202 200.925 174.825 200.877 174.4 200.877H174.313V199.456H179.649L180.2 201.95H180.345C180.596 201.37 180.877 200.867 181.186 200.442C181.515 200.017 181.93 199.698 182.433 199.485C182.936 199.253 183.593 199.137 184.405 199.137C185.507 199.137 186.319 199.33 186.841 199.717C187.382 200.104 187.653 200.664 187.653 201.399C187.653 202.172 187.373 202.791 186.812 203.255C186.251 203.7 185.43 203.922 184.347 203.922C184.347 203.381 184.299 202.946 184.202 202.617C184.125 202.269 183.98 202.008 183.767 201.834C183.554 201.66 183.264 201.573 182.897 201.573C182.375 201.573 181.95 201.766 181.621 202.153C181.292 202.52 181.031 202.984 180.838 203.545C180.664 204.106 180.538 204.686 180.461 205.285C180.403 205.884 180.374 206.387 180.374 206.793V211.636C180.374 212.197 180.471 212.622 180.664 212.912C180.857 213.183 181.118 213.366 181.447 213.463C181.776 213.54 182.133 213.579 182.52 213.579H183.419V215H174.226ZM195.742 215.29C194.215 215.29 193.045 214.836 192.233 213.927C191.421 212.999 191.015 211.549 191.015 209.577V202.907C191.015 202.327 190.928 201.892 190.754 201.602C190.58 201.312 190.329 201.119 190 201.022C189.691 200.925 189.314 200.877 188.869 200.877H188.811V199.456H194.785V208.997C194.785 209.848 194.853 210.573 194.988 211.172C195.143 211.771 195.404 212.235 195.771 212.564C196.138 212.893 196.641 213.057 197.279 213.057C197.994 213.057 198.574 212.873 199.019 212.506C199.464 212.119 199.792 211.588 200.005 210.911C200.218 210.234 200.324 209.442 200.324 208.533V202.82C200.324 202.24 200.218 201.815 200.005 201.544C199.812 201.273 199.551 201.099 199.222 201.022C198.893 200.925 198.526 200.877 198.12 200.877H198.033V199.456H204.094V211.723C204.094 212.284 204.181 212.699 204.355 212.97C204.548 213.221 204.809 213.386 205.138 213.463C205.467 213.54 205.824 213.579 206.211 213.579H206.385V215H201.049L200.498 212.825H200.353C200.063 213.347 199.744 213.772 199.396 214.101C199.048 214.41 198.681 214.652 198.294 214.826C197.907 215 197.501 215.116 197.076 215.174C196.651 215.251 196.206 215.29 195.742 215.29ZM207.756 215V213.579H207.872C208.317 213.579 208.713 213.531 209.061 213.434C209.409 213.337 209.68 213.144 209.873 212.854C210.086 212.564 210.192 212.129 210.192 211.549V202.791C210.192 202.23 210.095 201.815 209.902 201.544C209.709 201.273 209.448 201.099 209.119 201.022C208.81 200.925 208.442 200.877 208.017 200.877H207.901V199.456H213.469L213.846 201.631H213.991C214.378 200.896 214.793 200.355 215.238 200.007C215.702 199.64 216.195 199.398 216.717 199.282C217.258 199.166 217.838 199.108 218.457 199.108C219.965 199.108 221.144 199.553 221.995 200.442C222.846 201.331 223.271 202.762 223.271 204.734V211.52C223.271 212.119 223.348 212.564 223.503 212.854C223.677 213.144 223.909 213.337 224.199 213.434C224.508 213.531 224.876 213.579 225.301 213.579H225.417V215H219.501V205.285C219.501 204.028 219.298 203.062 218.892 202.385C218.505 201.689 217.829 201.341 216.862 201.341C216.127 201.341 215.547 201.554 215.122 201.979C214.716 202.404 214.416 202.965 214.223 203.661C214.049 204.357 213.962 205.111 213.962 205.923V211.665C213.962 212.226 214.049 212.641 214.223 212.912C214.416 213.183 214.677 213.366 215.006 213.463C215.335 213.54 215.712 213.579 216.137 213.579H216.253V215H207.756ZM226.872 215V213.579H226.988C227.433 213.579 227.829 213.531 228.177 213.434C228.525 213.337 228.796 213.144 228.989 212.854C229.202 212.564 229.308 212.129 229.308 211.549V202.791C229.308 202.23 229.211 201.815 229.018 201.544C228.825 201.273 228.564 201.099 228.235 201.022C227.926 200.925 227.558 200.877 227.133 200.877H227.017V199.456H232.585L232.962 201.631H233.107C233.494 200.896 233.909 200.355 234.354 200.007C234.818 199.64 235.311 199.398 235.833 199.282C236.374 199.166 236.954 199.108 237.573 199.108C239.081 199.108 240.26 199.553 241.111 200.442C241.962 201.331 242.387 202.762 242.387 204.734V211.52C242.387 212.119 242.464 212.564 242.619 212.854C242.793 213.144 243.025 213.337 243.315 213.434C243.624 213.531 243.992 213.579 244.417 213.579H244.533V215H238.617V205.285C238.617 204.028 238.414 203.062 238.008 202.385C237.621 201.689 236.945 201.341 235.978 201.341C235.243 201.341 234.663 201.554 234.238 201.979C233.832 202.404 233.532 202.965 233.339 203.661C233.165 204.357 233.078 205.111 233.078 205.923V211.665C233.078 212.226 233.165 212.641 233.339 212.912C233.532 213.183 233.793 213.366 234.122 213.463C234.451 213.54 234.828 213.579 235.253 213.579H235.369V215H226.872ZM253.992 215.29C251.672 215.29 249.884 214.594 248.627 213.202C247.39 211.791 246.771 209.828 246.771 207.315C246.771 204.608 247.371 202.569 248.569 201.196C249.787 199.804 251.489 199.108 253.673 199.108C255.703 199.108 257.289 199.698 258.429 200.877C259.589 202.037 260.169 203.767 260.169 206.068V207.489H250.599C250.638 208.842 250.812 209.944 251.121 210.795C251.45 211.626 251.904 212.245 252.484 212.651C253.084 213.057 253.809 213.26 254.659 213.26C255.336 213.26 255.935 213.163 256.457 212.97C256.999 212.757 257.463 212.487 257.849 212.158C258.236 211.81 258.545 211.433 258.777 211.027C258.99 211.124 259.154 211.288 259.27 211.52C259.406 211.733 259.473 211.984 259.473 212.274C259.473 212.757 259.27 213.231 258.864 213.695C258.478 214.159 257.878 214.546 257.066 214.855C256.274 215.145 255.249 215.29 253.992 215.29ZM256.312 205.749C256.312 204.763 256.225 203.903 256.051 203.168C255.877 202.433 255.597 201.873 255.21 201.486C254.843 201.08 254.34 200.877 253.702 200.877C253.084 200.877 252.552 201.061 252.107 201.428C251.682 201.795 251.344 202.346 251.092 203.081C250.86 203.796 250.715 204.686 250.657 205.749H256.312ZM268.25 221.96C266.065 221.96 264.432 221.602 263.349 220.887C262.286 220.191 261.754 219.176 261.754 217.842C261.754 217.127 261.909 216.527 262.218 216.044C262.527 215.561 262.972 215.184 263.552 214.913C264.132 214.623 264.799 214.439 265.553 214.362C265.089 214.169 264.654 213.869 264.248 213.463C263.842 213.038 263.639 212.496 263.639 211.839C263.639 211.24 263.842 210.708 264.248 210.244C264.673 209.78 265.244 209.345 265.959 208.939C265.108 208.61 264.422 208.059 263.9 207.286C263.378 206.513 263.117 205.575 263.117 204.473C263.117 202.791 263.591 201.476 264.538 200.529C265.505 199.582 266.974 199.108 268.946 199.108C269.642 199.108 270.29 199.205 270.889 199.398C271.508 199.572 272.001 199.785 272.368 200.036C272.658 199.727 272.948 199.456 273.238 199.224C273.528 198.973 273.837 198.779 274.166 198.644C274.514 198.509 274.891 198.441 275.297 198.441C275.954 198.441 276.438 198.605 276.747 198.934C277.076 199.243 277.24 199.611 277.24 200.036C277.24 200.442 277.105 200.809 276.834 201.138C276.563 201.467 276.08 201.631 275.384 201.631C275.384 201.302 275.287 201.032 275.094 200.819C274.901 200.606 274.649 200.5 274.34 200.5C274.147 200.5 273.953 200.529 273.76 200.587C273.567 200.645 273.402 200.722 273.267 200.819C273.634 201.244 273.944 201.766 274.195 202.385C274.446 203.004 274.572 203.69 274.572 204.444C274.572 205.894 274.118 207.102 273.209 208.069C272.3 209.016 270.879 209.49 268.946 209.49C268.733 209.49 268.453 209.48 268.105 209.461C267.776 209.422 267.515 209.393 267.322 209.374C267.013 209.529 266.742 209.741 266.51 210.012C266.278 210.283 266.162 210.611 266.162 210.998C266.162 211.307 266.278 211.549 266.51 211.723C266.761 211.897 267.158 211.984 267.699 211.984H271.121C272.358 211.984 273.364 212.168 274.137 212.535C274.91 212.883 275.481 213.386 275.848 214.043C276.215 214.7 276.399 215.474 276.399 216.363C276.399 218.103 275.732 219.466 274.398 220.452C273.083 221.457 271.034 221.96 268.25 221.96ZM268.308 220.336C269.545 220.336 270.531 220.21 271.266 219.959C272.001 219.708 272.523 219.35 272.832 218.886C273.161 218.422 273.325 217.861 273.325 217.204C273.325 216.489 273.103 215.996 272.658 215.725C272.233 215.474 271.595 215.348 270.744 215.348H267.583C267.138 215.348 266.694 215.406 266.249 215.522C265.824 215.638 265.466 215.86 265.176 216.189C264.905 216.537 264.77 217.059 264.77 217.755C264.77 218.296 264.886 218.76 265.118 219.147C265.369 219.534 265.756 219.824 266.278 220.017C266.8 220.23 267.477 220.336 268.308 220.336ZM268.859 207.895C269.439 207.895 269.884 207.769 270.193 207.518C270.522 207.247 270.744 206.851 270.86 206.329C270.995 205.807 271.063 205.169 271.063 204.415C271.063 203.642 270.995 202.984 270.86 202.443C270.725 201.882 270.493 201.457 270.164 201.167C269.855 200.877 269.41 200.732 268.83 200.732C268.289 200.732 267.854 200.887 267.525 201.196C267.196 201.486 266.964 201.911 266.829 202.472C266.694 203.013 266.626 203.671 266.626 204.444C266.626 205.179 266.694 205.807 266.829 206.329C266.984 206.832 267.225 207.218 267.554 207.489C267.883 207.76 268.318 207.895 268.859 207.895ZM286.136 215.29C283.816 215.29 282.028 214.594 280.771 213.202C279.534 211.791 278.915 209.828 278.915 207.315C278.915 204.608 279.514 202.569 280.713 201.196C281.931 199.804 283.632 199.108 285.817 199.108C287.847 199.108 289.432 199.698 290.573 200.877C291.733 202.037 292.313 203.767 292.313 206.068V207.489H282.743C282.782 208.842 282.956 209.944 283.265 210.795C283.594 211.626 284.048 212.245 284.628 212.651C285.227 213.057 285.952 213.26 286.803 213.26C287.48 213.26 288.079 213.163 288.601 212.97C289.142 212.757 289.606 212.487 289.993 212.158C290.38 211.81 290.689 211.433 290.921 211.027C291.134 211.124 291.298 211.288 291.414 211.52C291.549 211.733 291.617 211.984 291.617 212.274C291.617 212.757 291.414 213.231 291.008 213.695C290.621 214.159 290.022 214.546 289.21 214.855C288.417 215.145 287.393 215.29 286.136 215.29ZM288.456 205.749C288.456 204.763 288.369 203.903 288.195 203.168C288.021 202.433 287.741 201.873 287.354 201.486C286.987 201.08 286.484 200.877 285.846 200.877C285.227 200.877 284.696 201.061 284.251 201.428C283.826 201.795 283.487 202.346 283.236 203.081C283.004 203.796 282.859 204.686 282.801 205.749H288.456ZM294.332 215V213.579H294.419C294.864 213.579 295.251 213.531 295.579 213.434C295.927 213.337 296.198 213.144 296.391 212.854C296.604 212.545 296.71 212.09 296.71 211.491V202.849C296.71 202.269 296.614 201.844 296.42 201.573C296.227 201.283 295.966 201.099 295.637 201.022C295.309 200.925 294.932 200.877 294.506 200.877H294.419V199.456H299.755L300.306 201.95H300.451C300.703 201.37 300.983 200.867 301.292 200.442C301.621 200.017 302.037 199.698 302.539 199.485C303.042 199.253 303.699 199.137 304.511 199.137C305.613 199.137 306.425 199.33 306.947 199.717C307.489 200.104 307.759 200.664 307.759 201.399C307.759 202.172 307.479 202.791 306.918 203.255C306.358 203.7 305.536 203.922 304.453 203.922C304.453 203.381 304.405 202.946 304.308 202.617C304.231 202.269 304.086 202.008 303.873 201.834C303.661 201.66 303.371 201.573 303.003 201.573C302.481 201.573 302.056 201.766 301.727 202.153C301.399 202.52 301.138 202.984 300.944 203.545C300.77 204.106 300.645 204.686 300.567 205.285C300.509 205.884 300.48 206.387 300.48 206.793V211.636C300.48 212.197 300.577 212.622 300.77 212.912C300.964 213.183 301.225 213.366 301.553 213.463C301.882 213.54 302.24 213.579 302.626 213.579H303.525V215H294.332Z" fill="#2A13B8"/>
<path d="M153.468 257V255.04H154.708C155.161 255.04 155.574 254.987 155.948 254.88C156.348 254.747 156.654 254.493 156.868 254.12C157.108 253.72 157.228 253.133 157.228 252.36V232.92C157.228 232.173 157.108 231.627 156.868 231.28C156.628 230.907 156.321 230.667 155.948 230.56C155.574 230.453 155.161 230.4 154.708 230.4H153.468V228.44H166.428V230.4H165.188C164.734 230.4 164.308 230.467 163.908 230.6C163.534 230.707 163.228 230.947 162.988 231.32C162.774 231.693 162.668 232.28 162.668 233.08V240.96H174.068V233.08C174.068 232.28 173.948 231.693 173.708 231.32C173.494 230.947 173.201 230.707 172.828 230.6C172.454 230.467 172.028 230.4 171.548 230.4H170.308V228.44H183.268V230.4H182.028C181.601 230.4 181.188 230.467 180.788 230.6C180.388 230.707 180.081 230.947 179.868 231.32C179.654 231.693 179.548 232.28 179.548 233.08V252.56C179.548 253.28 179.654 253.827 179.868 254.2C180.108 254.547 180.414 254.773 180.788 254.88C181.188 254.987 181.601 255.04 182.028 255.04H183.268V257H170.308V255.04H171.548C172.028 255.04 172.454 254.987 172.828 254.88C173.201 254.747 173.494 254.493 173.708 254.12C173.948 253.72 174.068 253.133 174.068 252.36V243.24H162.668V252.36C162.668 253.133 162.774 253.72 162.988 254.12C163.228 254.493 163.534 254.747 163.908 254.88C164.308 254.987 164.734 255.04 165.188 255.04H166.428V257H153.468ZM195.091 257.4C192.985 257.4 191.371 256.773 190.251 255.52C189.131 254.24 188.571 252.24 188.571 249.52V240.32C188.571 239.52 188.451 238.92 188.211 238.52C187.971 238.12 187.625 237.853 187.171 237.72C186.745 237.587 186.225 237.52 185.611 237.52H185.531V235.56H193.771V248.72C193.771 249.893 193.865 250.893 194.051 251.72C194.265 252.547 194.625 253.187 195.131 253.64C195.638 254.093 196.331 254.32 197.211 254.32C198.198 254.32 198.998 254.067 199.611 253.56C200.225 253.027 200.678 252.293 200.971 251.36C201.265 250.427 201.411 249.333 201.411 248.08V240.2C201.411 239.4 201.265 238.813 200.971 238.44C200.705 238.067 200.345 237.827 199.891 237.72C199.438 237.587 198.931 237.52 198.371 237.52H198.251V235.56H206.611V252.48C206.611 253.253 206.731 253.827 206.971 254.2C207.238 254.547 207.598 254.773 208.051 254.88C208.505 254.987 208.998 255.04 209.531 255.04H209.771V257H202.411L201.651 254H201.451C201.051 254.72 200.611 255.307 200.131 255.76C199.651 256.187 199.145 256.52 198.611 256.76C198.078 257 197.518 257.16 196.931 257.24C196.345 257.347 195.731 257.4 195.091 257.4ZM211.662 257V255.04H211.822C212.436 255.04 212.982 254.973 213.462 254.84C213.942 254.707 214.316 254.44 214.582 254.04C214.876 253.64 215.022 253.04 215.022 252.24V240.16C215.022 239.387 214.889 238.813 214.622 238.44C214.356 238.067 213.996 237.827 213.542 237.72C213.116 237.587 212.609 237.52 212.022 237.52H211.862V235.56H219.542L220.062 238.56H220.262C220.796 237.547 221.369 236.8 221.982 236.32C222.622 235.813 223.302 235.48 224.022 235.32C224.769 235.16 225.569 235.08 226.422 235.08C228.502 235.08 230.129 235.693 231.302 236.92C232.476 238.147 233.062 240.12 233.062 242.84V252.2C233.062 253.027 233.169 253.64 233.382 254.04C233.622 254.44 233.942 254.707 234.342 254.84C234.769 254.973 235.276 255.04 235.862 255.04H236.022V257H227.862V243.6C227.862 241.867 227.582 240.533 227.022 239.6C226.489 238.64 225.556 238.16 224.222 238.16C223.209 238.16 222.409 238.453 221.822 239.04C221.262 239.627 220.849 240.4 220.582 241.36C220.342 242.32 220.222 243.36 220.222 244.48V252.4C220.222 253.173 220.342 253.747 220.582 254.12C220.849 254.493 221.209 254.747 221.662 254.88C222.116 254.987 222.636 255.04 223.222 255.04H223.382V257H211.662ZM238.029 257V255.04H238.189C238.803 255.04 239.349 254.973 239.829 254.84C240.309 254.707 240.683 254.44 240.949 254.04C241.243 253.64 241.389 253.04 241.389 252.24V240.16C241.389 239.387 241.256 238.813 240.989 238.44C240.723 238.067 240.363 237.827 239.909 237.72C239.483 237.587 238.976 237.52 238.389 237.52H238.229V235.56H245.909L246.429 238.56H246.629C247.163 237.547 247.736 236.8 248.349 236.32C248.989 235.813 249.669 235.48 250.389 235.32C251.136 235.16 251.936 235.08 252.789 235.08C254.869 235.08 256.496 235.693 257.669 236.92C258.843 238.147 259.429 240.12 259.429 242.84V252.2C259.429 253.027 259.536 253.64 259.749 254.04C259.989 254.44 260.309 254.707 260.709 254.84C261.136 254.973 261.643 255.04 262.229 255.04H262.389V257H254.229V243.6C254.229 241.867 253.949 240.533 253.389 239.6C252.856 238.64 251.923 238.16 250.589 238.16C249.576 238.16 248.776 238.453 248.189 239.04C247.629 239.627 247.216 240.4 246.949 241.36C246.709 242.32 246.589 243.36 246.589 244.48V252.4C246.589 253.173 246.709 253.747 246.949 254.12C247.216 254.493 247.576 254.747 248.029 254.88C248.483 254.987 249.003 255.04 249.589 255.04H249.749V257H238.029ZM275.437 257.4C272.237 257.4 269.77 256.44 268.037 254.52C266.33 252.573 265.477 249.867 265.477 246.4C265.477 242.667 266.303 239.853 267.957 237.96C269.637 236.04 271.983 235.08 274.997 235.08C277.797 235.08 279.983 235.893 281.557 237.52C283.157 239.12 283.957 241.507 283.957 244.68V246.64H270.757C270.81 248.507 271.05 250.027 271.477 251.2C271.93 252.347 272.557 253.2 273.357 253.76C274.183 254.32 275.183 254.6 276.357 254.6C277.29 254.6 278.117 254.467 278.837 254.2C279.583 253.907 280.223 253.533 280.757 253.08C281.29 252.6 281.717 252.08 282.037 251.52C282.33 251.653 282.557 251.88 282.717 252.2C282.903 252.493 282.997 252.84 282.997 253.24C282.997 253.907 282.717 254.56 282.157 255.2C281.623 255.84 280.797 256.373 279.677 256.8C278.583 257.2 277.17 257.4 275.437 257.4ZM278.637 244.24C278.637 242.88 278.517 241.693 278.277 240.68C278.037 239.667 277.65 238.893 277.117 238.36C276.61 237.8 275.917 237.52 275.037 237.52C274.183 237.52 273.45 237.773 272.837 238.28C272.25 238.787 271.783 239.547 271.437 240.56C271.117 241.547 270.917 242.773 270.837 244.24H278.637ZM295.102 266.6C292.089 266.6 289.836 266.107 288.342 265.12C286.876 264.16 286.142 262.76 286.142 260.92C286.142 259.933 286.356 259.107 286.782 258.44C287.209 257.773 287.822 257.253 288.622 256.88C289.422 256.48 290.342 256.227 291.382 256.12C290.742 255.853 290.142 255.44 289.582 254.88C289.022 254.293 288.742 253.547 288.742 252.64C288.742 251.813 289.022 251.08 289.582 250.44C290.169 249.8 290.956 249.2 291.942 248.64C290.769 248.187 289.822 247.427 289.102 246.36C288.382 245.293 288.022 244 288.022 242.48C288.022 240.16 288.676 238.347 289.982 237.04C291.316 235.733 293.342 235.08 296.062 235.08C297.022 235.08 297.916 235.213 298.742 235.48C299.596 235.72 300.276 236.013 300.782 236.36C301.182 235.933 301.582 235.56 301.982 235.24C302.382 234.893 302.809 234.627 303.262 234.44C303.742 234.253 304.262 234.16 304.822 234.16C305.729 234.16 306.396 234.387 306.822 234.84C307.276 235.267 307.502 235.773 307.502 236.36C307.502 236.92 307.316 237.427 306.942 237.88C306.569 238.333 305.902 238.56 304.942 238.56C304.942 238.107 304.809 237.733 304.542 237.44C304.276 237.147 303.929 237 303.502 237C303.236 237 302.969 237.04 302.702 237.12C302.436 237.2 302.209 237.307 302.022 237.44C302.529 238.027 302.956 238.747 303.302 239.6C303.649 240.453 303.822 241.4 303.822 242.44C303.822 244.44 303.196 246.107 301.942 247.44C300.689 248.747 298.729 249.4 296.062 249.4C295.769 249.4 295.382 249.387 294.902 249.36C294.449 249.307 294.089 249.267 293.822 249.24C293.396 249.453 293.022 249.747 292.702 250.12C292.382 250.493 292.222 250.947 292.222 251.48C292.222 251.907 292.382 252.24 292.702 252.48C293.049 252.72 293.596 252.84 294.342 252.84H299.062C300.769 252.84 302.156 253.093 303.222 253.6C304.289 254.08 305.076 254.773 305.582 255.68C306.089 256.587 306.342 257.653 306.342 258.88C306.342 261.28 305.422 263.16 303.582 264.52C301.769 265.907 298.942 266.6 295.102 266.6ZM295.182 264.36C296.889 264.36 298.249 264.187 299.262 263.84C300.276 263.493 300.996 263 301.422 262.36C301.876 261.72 302.102 260.947 302.102 260.04C302.102 259.053 301.796 258.373 301.182 258C300.596 257.653 299.716 257.48 298.542 257.48H294.182C293.569 257.48 292.956 257.56 292.342 257.72C291.756 257.88 291.262 258.187 290.862 258.64C290.489 259.12 290.302 259.84 290.302 260.8C290.302 261.547 290.462 262.187 290.782 262.72C291.129 263.253 291.662 263.653 292.382 263.92C293.102 264.213 294.036 264.36 295.182 264.36ZM295.942 247.2C296.742 247.2 297.356 247.027 297.782 246.68C298.236 246.307 298.542 245.76 298.702 245.04C298.889 244.32 298.982 243.44 298.982 242.4C298.982 241.333 298.889 240.427 298.702 239.68C298.516 238.907 298.196 238.32 297.742 237.92C297.316 237.52 296.702 237.32 295.902 237.32C295.156 237.32 294.556 237.533 294.102 237.96C293.649 238.36 293.329 238.947 293.142 239.72C292.956 240.467 292.862 241.373 292.862 242.44C292.862 243.453 292.956 244.32 293.142 245.04C293.356 245.733 293.689 246.267 294.142 246.64C294.596 247.013 295.196 247.2 295.942 247.2Z" fill="#CA0606"/>
<path d="M211.028 360V358.704L213.62 355.792C214.057 355.301 214.425 354.859 214.724 354.464C215.023 354.059 215.257 353.685 215.428 353.344C215.609 352.992 215.737 352.645 215.812 352.304C215.897 351.963 215.94 351.6 215.94 351.216C215.94 350.811 215.881 350.464 215.764 350.176C215.657 349.888 215.487 349.664 215.252 349.504C215.028 349.344 214.751 349.264 214.42 349.264C213.972 349.264 213.625 349.376 213.38 349.6C213.135 349.813 212.964 350.107 212.868 350.48C212.772 350.853 212.724 351.28 212.724 351.76C212.436 351.76 212.169 351.723 211.924 351.648C211.689 351.573 211.503 351.451 211.364 351.28C211.236 351.099 211.172 350.859 211.172 350.56C211.172 350.155 211.289 349.792 211.524 349.472C211.769 349.152 212.132 348.896 212.612 348.704C213.103 348.512 213.705 348.416 214.42 348.416C215.124 348.416 215.727 348.528 216.228 348.752C216.729 348.965 217.113 349.269 217.38 349.664C217.647 350.059 217.78 350.533 217.78 351.088C217.78 351.387 217.737 351.68 217.652 351.968C217.567 352.245 217.444 352.533 217.284 352.832C217.124 353.131 216.921 353.44 216.676 353.76C216.441 354.08 216.159 354.427 215.828 354.8C215.497 355.163 215.124 355.563 214.708 356L212.308 358.592H216.004C216.441 358.592 216.751 358.475 216.932 358.24C217.124 358.005 217.263 357.728 217.348 357.408L217.428 357.072H218.18L218.1 360H211.028ZM223.006 360.16C222.216 360.16 221.598 360.075 221.15 359.904C220.702 359.723 220.382 359.504 220.19 359.248C220.008 358.981 219.918 358.715 219.918 358.448C219.918 358.139 220.008 357.899 220.19 357.728C220.371 357.557 220.643 357.472 221.006 357.472C221.006 357.771 221.07 358.048 221.198 358.304C221.336 358.56 221.544 358.768 221.822 358.928C222.099 359.088 222.456 359.168 222.894 359.168C223.299 359.168 223.667 359.088 223.998 358.928C224.339 358.757 224.606 358.48 224.798 358.096C224.99 357.701 225.086 357.168 225.086 356.496C225.086 355.941 224.99 355.483 224.798 355.12C224.606 354.757 224.334 354.491 223.982 354.32C223.63 354.139 223.208 354.048 222.718 354.048C222.387 354.048 222.104 354.064 221.87 354.096C221.635 354.117 221.432 354.155 221.262 354.208C221.102 354.261 220.952 354.32 220.814 354.384L220.334 354.224L220.846 348.576H226.382L226.462 351.136H225.726L225.646 350.624C225.614 350.485 225.571 350.368 225.518 350.272C225.475 350.176 225.395 350.107 225.278 350.064C225.171 350.011 225.016 349.984 224.814 349.984H221.646L221.358 353.36C221.464 353.317 221.603 353.28 221.774 353.248C221.955 353.205 222.163 353.173 222.398 353.152C222.643 353.131 222.91 353.12 223.198 353.12C223.923 353.12 224.568 353.248 225.134 353.504C225.71 353.749 226.158 354.123 226.478 354.624C226.808 355.115 226.974 355.739 226.974 356.496C226.974 356.965 226.91 357.392 226.782 357.776C226.654 358.16 226.472 358.501 226.238 358.8C226.003 359.099 225.72 359.349 225.39 359.552C225.07 359.755 224.707 359.904 224.302 360C223.907 360.107 223.475 360.16 223.006 360.16ZM232.519 360.16C231.623 360.16 230.892 359.915 230.327 359.424C229.762 358.933 229.351 358.245 229.095 357.36C228.839 356.475 228.711 355.44 228.711 354.256C228.711 353.072 228.839 352.043 229.095 351.168C229.351 350.293 229.762 349.616 230.327 349.136C230.892 348.656 231.628 348.416 232.535 348.416C233.388 348.416 234.092 348.656 234.647 349.136C235.212 349.616 235.628 350.299 235.895 351.184C236.172 352.059 236.311 353.088 236.311 354.272C236.311 355.456 236.172 356.491 235.895 357.376C235.628 358.251 235.212 358.933 234.647 359.424C234.092 359.915 233.383 360.16 232.519 360.16ZM232.519 359.248C232.882 359.248 233.186 359.136 233.431 358.912C233.676 358.688 233.868 358.363 234.007 357.936C234.156 357.509 234.263 356.987 234.327 356.368C234.391 355.749 234.423 355.051 234.423 354.272C234.423 353.493 234.391 352.8 234.327 352.192C234.274 351.573 234.172 351.051 234.023 350.624C233.874 350.197 233.676 349.877 233.431 349.664C233.196 349.44 232.898 349.328 232.535 349.328C232.162 349.328 231.852 349.44 231.607 349.664C231.362 349.877 231.164 350.197 231.015 350.624C230.866 351.051 230.759 351.573 230.695 352.192C230.631 352.8 230.599 353.493 230.599 354.272C230.599 355.051 230.631 355.749 230.695 356.368C230.759 356.987 230.866 357.509 231.015 357.936C231.164 358.363 231.362 358.688 231.607 358.912C231.852 359.136 232.156 359.248 232.519 359.248ZM244.845 363.84C243.703 363.84 242.845 363.637 242.269 363.232C241.693 362.837 241.405 362.272 241.405 361.536C241.405 361.131 241.495 360.789 241.677 360.512C241.858 360.235 242.103 360.016 242.413 359.856C242.722 359.696 243.069 359.589 243.453 359.536C243.218 359.44 242.999 359.28 242.797 359.056C242.594 358.832 242.493 358.544 242.493 358.192C242.493 357.861 242.589 357.579 242.781 357.344C242.973 357.099 243.261 356.864 243.645 356.64C243.175 356.459 242.807 356.149 242.541 355.712C242.274 355.275 242.141 354.773 242.141 354.208C242.141 353.291 242.397 352.571 242.909 352.048C243.431 351.515 244.21 351.248 245.245 351.248C245.629 351.248 245.986 351.301 246.317 351.408C246.658 351.515 246.914 351.637 247.085 351.776C247.223 351.627 247.367 351.488 247.517 351.36C247.677 351.221 247.853 351.109 248.045 351.024C248.237 350.939 248.445 350.896 248.669 350.896C249.01 350.896 249.261 350.981 249.421 351.152C249.591 351.323 249.677 351.52 249.677 351.744C249.677 351.979 249.607 352.181 249.469 352.352C249.33 352.523 249.09 352.608 248.749 352.608C248.749 352.459 248.706 352.325 248.621 352.208C248.535 352.091 248.397 352.032 248.205 352.032C248.077 352.032 247.959 352.048 247.853 352.08C247.746 352.112 247.645 352.155 247.549 352.208C247.741 352.443 247.901 352.72 248.029 353.04C248.157 353.36 248.221 353.739 248.221 354.176C248.221 354.976 247.975 355.637 247.485 356.16C247.005 356.683 246.258 356.944 245.245 356.944C245.117 356.944 244.962 356.939 244.781 356.928C244.61 356.907 244.477 356.885 244.381 356.864C244.189 356.96 244.023 357.088 243.885 357.248C243.746 357.397 243.677 357.589 243.677 357.824C243.677 358.016 243.741 358.16 243.869 358.256C243.997 358.352 244.242 358.4 244.605 358.4H246.445C247.106 358.4 247.634 358.507 248.029 358.72C248.434 358.923 248.727 359.205 248.909 359.568C249.101 359.92 249.197 360.336 249.197 360.816C249.197 361.744 248.845 362.48 248.141 363.024C247.437 363.568 246.338 363.84 244.845 363.84ZM244.877 363.008C245.613 363.008 246.183 362.928 246.589 362.768C247.005 362.619 247.298 362.405 247.469 362.128C247.639 361.851 247.725 361.531 247.725 361.168C247.725 360.72 247.591 360.416 247.325 360.256C247.069 360.096 246.69 360.016 246.189 360.016H244.541C244.263 360.016 243.997 360.053 243.741 360.128C243.485 360.203 243.271 360.341 243.101 360.544C242.941 360.747 242.861 361.051 242.861 361.456C242.861 361.755 242.925 362.021 243.053 362.256C243.181 362.491 243.389 362.672 243.677 362.8C243.975 362.939 244.375 363.008 244.877 363.008ZM245.197 356.128C245.527 356.128 245.789 356.059 245.981 355.92C246.183 355.771 246.322 355.552 246.397 355.264C246.482 354.965 246.525 354.597 246.525 354.16C246.525 353.701 246.482 353.317 246.397 353.008C246.311 352.699 246.167 352.469 245.965 352.32C245.773 352.16 245.511 352.08 245.181 352.08C244.861 352.08 244.599 352.16 244.397 352.32C244.205 352.48 244.061 352.715 243.965 353.024C243.879 353.333 243.837 353.717 243.837 354.176C243.837 354.603 243.879 354.96 243.965 355.248C244.061 355.536 244.21 355.755 244.413 355.904C244.615 356.053 244.877 356.128 245.197 356.128Z" fill="black"/>
<path d="M155.96 286V285.55H156.17C156.31 285.55 156.434 285.533 156.54 285.5C156.654 285.467 156.744 285.4 156.81 285.3C156.877 285.2 156.91 285.05 156.91 284.85V279.97C156.91 279.777 156.874 279.633 156.8 279.54C156.734 279.447 156.644 279.387 156.53 279.36C156.424 279.327 156.304 279.31 156.17 279.31H155.96V278.86H159.02V279.31H158.81C158.677 279.31 158.554 279.327 158.44 279.36C158.327 279.393 158.237 279.46 158.17 279.56C158.104 279.653 158.07 279.803 158.07 280.01V282.01H161.15V280.01C161.15 279.803 161.117 279.653 161.05 279.56C160.984 279.46 160.894 279.393 160.78 279.36C160.674 279.327 160.55 279.31 160.41 279.31H160.2V278.86H163.26V279.31H163.05C162.917 279.31 162.794 279.327 162.68 279.36C162.567 279.393 162.477 279.46 162.41 279.56C162.344 279.653 162.31 279.803 162.31 280.01V284.9C162.31 285.087 162.344 285.227 162.41 285.32C162.484 285.413 162.574 285.477 162.68 285.51C162.794 285.537 162.917 285.55 163.05 285.55H163.26V286H160.2V285.55H160.41C160.55 285.55 160.674 285.533 160.78 285.5C160.894 285.467 160.984 285.4 161.05 285.3C161.117 285.2 161.15 285.05 161.15 284.85V282.54H158.07V284.85C158.07 285.05 158.104 285.2 158.17 285.3C158.237 285.4 158.327 285.467 158.44 285.5C158.554 285.533 158.677 285.55 158.81 285.55H159.02V286H155.96ZM166.528 286.1C165.788 286.1 165.205 285.87 164.778 285.41C164.352 284.95 164.138 284.25 164.138 283.31C164.138 282.37 164.342 281.673 164.748 281.22C165.155 280.76 165.758 280.53 166.558 280.53C167.298 280.53 167.882 280.76 168.308 281.22C168.735 281.673 168.948 282.37 168.948 283.31C168.948 284.25 168.742 284.95 168.328 285.41C167.922 285.87 167.322 286.1 166.528 286.1ZM166.548 285.55C166.862 285.55 167.112 285.467 167.298 285.3C167.485 285.133 167.618 284.883 167.698 284.55C167.778 284.21 167.818 283.797 167.818 283.31C167.818 282.817 167.775 282.407 167.688 282.08C167.608 281.753 167.475 281.507 167.288 281.34C167.102 281.173 166.852 281.09 166.538 281.09C166.225 281.09 165.975 281.173 165.788 281.34C165.602 281.507 165.468 281.753 165.388 282.08C165.308 282.407 165.268 282.817 165.268 283.31C165.268 283.797 165.308 284.21 165.388 284.55C165.475 284.883 165.612 285.133 165.798 285.3C165.985 285.467 166.235 285.55 166.548 285.55ZM169.738 286V285.55H169.798C169.951 285.55 170.088 285.533 170.208 285.5C170.334 285.467 170.431 285.4 170.498 285.3C170.571 285.193 170.608 285.04 170.608 284.84V281.76C170.608 281.567 170.571 281.423 170.498 281.33C170.431 281.23 170.338 281.167 170.218 281.14C170.104 281.107 169.974 281.09 169.828 281.09H169.788V280.64H171.538L171.668 281.42H171.718C171.858 281.167 172.004 280.977 172.158 280.85C172.318 280.723 172.488 280.64 172.668 280.6C172.854 280.553 173.054 280.53 173.268 280.53C173.794 280.53 174.204 280.687 174.498 281C174.791 281.307 174.938 281.8 174.938 282.48V284.83C174.938 285.037 174.968 285.193 175.028 285.3C175.088 285.4 175.171 285.467 175.278 285.5C175.391 285.533 175.521 285.55 175.668 285.55H175.718V286H173.838V282.59C173.838 282.157 173.761 281.823 173.608 281.59C173.461 281.35 173.201 281.23 172.828 281.23C172.548 281.23 172.324 281.303 172.158 281.45C171.998 281.597 171.881 281.793 171.808 282.04C171.741 282.287 171.708 282.55 171.708 282.83V284.89C171.708 285.077 171.741 285.22 171.808 285.32C171.881 285.413 171.974 285.477 172.088 285.51C172.208 285.537 172.341 285.55 172.488 285.55H172.528V286H169.738ZM176.201 286V285.55H176.331C176.465 285.55 176.591 285.537 176.711 285.51C176.831 285.477 176.928 285.413 177.001 285.32C177.081 285.22 177.121 285.077 177.121 284.89V281.75C177.121 281.557 177.081 281.413 177.001 281.32C176.928 281.227 176.831 281.167 176.711 281.14C176.591 281.107 176.465 281.09 176.331 281.09H176.281V280.64H178.221V284.85C178.221 285.05 178.258 285.2 178.331 285.3C178.405 285.4 178.501 285.467 178.621 285.5C178.748 285.533 178.878 285.55 179.011 285.55H179.141V286H176.201ZM177.631 279.67C177.445 279.67 177.288 279.62 177.161 279.52C177.041 279.42 176.981 279.253 176.981 279.02C176.981 278.78 177.045 278.613 177.171 278.52C177.298 278.42 177.451 278.37 177.631 278.37C177.805 278.37 177.955 278.42 178.081 278.52C178.215 278.613 178.281 278.78 178.281 279.02C178.281 279.253 178.215 279.42 178.081 279.52C177.955 279.62 177.805 279.67 177.631 279.67ZM179.542 286V285.55H179.602C179.756 285.55 179.892 285.533 180.012 285.5C180.139 285.467 180.236 285.4 180.302 285.3C180.376 285.193 180.412 285.04 180.412 284.84V281.76C180.412 281.567 180.376 281.423 180.302 281.33C180.236 281.23 180.142 281.167 180.022 281.14C179.909 281.107 179.779 281.09 179.632 281.09H179.592V280.64H181.342L181.472 281.42H181.522C181.662 281.167 181.809 280.977 181.962 280.85C182.122 280.723 182.292 280.64 182.472 280.6C182.659 280.553 182.859 280.53 183.072 280.53C183.599 280.53 184.009 280.687 184.302 281C184.596 281.307 184.742 281.8 184.742 282.48V284.83C184.742 285.037 184.772 285.193 184.832 285.3C184.892 285.4 184.976 285.467 185.082 285.5C185.196 285.533 185.326 285.55 185.472 285.55H185.522V286H183.642V282.59C183.642 282.157 183.566 281.823 183.412 281.59C183.266 281.35 183.006 281.23 182.632 281.23C182.352 281.23 182.129 281.303 181.962 281.45C181.802 281.597 181.686 281.793 181.612 282.04C181.546 282.287 181.512 282.55 181.512 282.83V284.89C181.512 285.077 181.546 285.22 181.612 285.32C181.686 285.413 181.779 285.477 181.892 285.51C182.012 285.537 182.146 285.55 182.292 285.55H182.332V286H179.542ZM188.116 288.4C187.403 288.4 186.866 288.273 186.506 288.02C186.146 287.773 185.966 287.42 185.966 286.96C185.966 286.707 186.023 286.493 186.136 286.32C186.249 286.147 186.403 286.01 186.596 285.91C186.789 285.81 187.006 285.743 187.246 285.71C187.099 285.65 186.963 285.55 186.836 285.41C186.709 285.27 186.646 285.09 186.646 284.87C186.646 284.663 186.706 284.487 186.826 284.34C186.946 284.187 187.126 284.04 187.366 283.9C187.073 283.787 186.843 283.593 186.676 283.32C186.509 283.047 186.426 282.733 186.426 282.38C186.426 281.807 186.586 281.357 186.906 281.03C187.233 280.697 187.719 280.53 188.366 280.53C188.606 280.53 188.829 280.563 189.036 280.63C189.249 280.697 189.409 280.773 189.516 280.86C189.603 280.767 189.693 280.68 189.786 280.6C189.886 280.513 189.996 280.443 190.116 280.39C190.236 280.337 190.366 280.31 190.506 280.31C190.719 280.31 190.876 280.363 190.976 280.47C191.083 280.577 191.136 280.7 191.136 280.84C191.136 280.987 191.093 281.113 191.006 281.22C190.919 281.327 190.769 281.38 190.556 281.38C190.556 281.287 190.529 281.203 190.476 281.13C190.423 281.057 190.336 281.02 190.216 281.02C190.136 281.02 190.063 281.03 189.996 281.05C189.929 281.07 189.866 281.097 189.806 281.13C189.926 281.277 190.026 281.45 190.106 281.65C190.186 281.85 190.226 282.087 190.226 282.36C190.226 282.86 190.073 283.273 189.766 283.6C189.466 283.927 188.999 284.09 188.366 284.09C188.286 284.09 188.189 284.087 188.076 284.08C187.969 284.067 187.886 284.053 187.826 284.04C187.706 284.1 187.603 284.18 187.516 284.28C187.429 284.373 187.386 284.493 187.386 284.64C187.386 284.76 187.426 284.85 187.506 284.91C187.586 284.97 187.739 285 187.966 285H189.116C189.529 285 189.859 285.067 190.106 285.2C190.359 285.327 190.543 285.503 190.656 285.73C190.776 285.95 190.836 286.21 190.836 286.51C190.836 287.09 190.616 287.55 190.176 287.89C189.736 288.23 189.049 288.4 188.116 288.4ZM188.136 287.88C188.596 287.88 188.953 287.83 189.206 287.73C189.466 287.637 189.649 287.503 189.756 287.33C189.863 287.157 189.916 286.957 189.916 286.73C189.916 286.45 189.833 286.26 189.666 286.16C189.506 286.06 189.269 286.01 188.956 286.01H187.926C187.753 286.01 187.586 286.033 187.426 286.08C187.266 286.127 187.133 286.213 187.026 286.34C186.926 286.467 186.876 286.657 186.876 286.91C186.876 287.097 186.916 287.263 186.996 287.41C187.076 287.557 187.206 287.67 187.386 287.75C187.573 287.837 187.823 287.88 188.136 287.88ZM188.336 283.58C188.543 283.58 188.706 283.537 188.826 283.45C188.953 283.357 189.039 283.22 189.086 283.04C189.139 282.853 189.166 282.623 189.166 282.35C189.166 282.063 189.139 281.823 189.086 281.63C189.033 281.437 188.943 281.293 188.816 281.2C188.696 281.1 188.533 281.05 188.326 281.05C188.126 281.05 187.963 281.1 187.836 281.2C187.716 281.3 187.626 281.447 187.566 281.64C187.513 281.833 187.486 282.073 187.486 282.36C187.486 282.627 187.513 282.85 187.566 283.03C187.626 283.21 187.719 283.347 187.846 283.44C187.973 283.533 188.136 283.58 188.336 283.58ZM196.523 286.1C195.996 286.1 195.59 285.943 195.303 285.63C195.023 285.317 194.883 284.817 194.883 284.13V281.78C194.883 281.58 194.846 281.433 194.773 281.34C194.706 281.24 194.613 281.173 194.493 281.14C194.38 281.107 194.25 281.09 194.103 281.09H194.073V280.64H195.983V284.02C195.983 284.307 196.01 284.553 196.063 284.76C196.123 284.967 196.223 285.127 196.363 285.24C196.51 285.347 196.706 285.4 196.953 285.4C197.22 285.4 197.44 285.333 197.613 285.2C197.786 285.067 197.913 284.88 197.993 284.64C198.073 284.4 198.113 284.123 198.113 283.81V281.79C198.113 281.583 198.076 281.43 198.003 281.33C197.936 281.23 197.843 281.167 197.723 281.14C197.603 281.107 197.47 281.09 197.323 281.09H197.293V280.64H199.213V284.89C199.213 285.083 199.246 285.23 199.313 285.33C199.386 285.423 199.483 285.483 199.603 285.51C199.723 285.537 199.853 285.55 199.993 285.55H200.033V286H198.333L198.183 285.22H198.133C198.033 285.4 197.92 285.55 197.793 285.67C197.673 285.783 197.546 285.873 197.413 285.94C197.28 286 197.136 286.04 196.983 286.06C196.836 286.087 196.683 286.1 196.523 286.1ZM200.479 286V285.55H200.609C200.742 285.55 200.869 285.537 200.989 285.51C201.109 285.477 201.205 285.413 201.279 285.32C201.359 285.22 201.399 285.077 201.399 284.89V281.75C201.399 281.557 201.359 281.413 201.279 281.32C201.205 281.227 201.109 281.167 200.989 281.14C200.869 281.107 200.742 281.09 200.609 281.09H200.559V280.64H202.499V284.85C202.499 285.05 202.535 285.2 202.609 285.3C202.682 285.4 202.779 285.467 202.899 285.5C203.025 285.533 203.155 285.55 203.289 285.55H203.419V286H200.479ZM201.909 279.67C201.722 279.67 201.565 279.62 201.439 279.52C201.319 279.42 201.259 279.253 201.259 279.02C201.259 278.78 201.322 278.613 201.449 278.52C201.575 278.42 201.729 278.37 201.909 278.37C202.082 278.37 202.232 278.42 202.359 278.52C202.492 278.613 202.559 278.78 202.559 279.02C202.559 279.253 202.492 279.42 202.359 279.52C202.232 279.62 202.082 279.67 201.909 279.67ZM205.97 286.1C205.476 286.1 205.11 285.987 204.87 285.76C204.63 285.527 204.51 285.12 204.51 284.54V281.24H203.76V280.81C203.9 280.81 204.046 280.78 204.2 280.72C204.353 280.66 204.483 280.573 204.59 280.46C204.703 280.347 204.796 280.207 204.87 280.04C204.943 279.867 205.003 279.657 205.05 279.41H205.61V280.64H206.91V281.24H205.61V284.54C205.61 284.867 205.673 285.107 205.8 285.26C205.933 285.413 206.116 285.49 206.35 285.49C206.47 285.49 206.58 285.483 206.68 285.47C206.786 285.457 206.893 285.44 207 285.42V285.92C206.913 285.96 206.773 286 206.58 286.04C206.386 286.08 206.183 286.1 205.97 286.1ZM210.019 286V285.55H210.079C210.232 285.55 210.369 285.533 210.489 285.5C210.609 285.467 210.706 285.4 210.779 285.3C210.852 285.193 210.889 285.04 210.889 284.84V279.51C210.889 279.317 210.849 279.173 210.769 279.08C210.696 278.987 210.599 278.927 210.479 278.9C210.359 278.867 210.232 278.85 210.099 278.85H210.009V278.4H211.989V280.45C211.989 280.583 211.982 280.723 211.969 280.87C211.962 281.017 211.956 281.143 211.949 281.25C211.942 281.357 211.939 281.41 211.939 281.41H211.999C212.106 281.197 212.232 281.027 212.379 280.9C212.526 280.767 212.689 280.673 212.869 280.62C213.056 280.56 213.259 280.53 213.479 280.53C214.039 280.53 214.469 280.687 214.769 281C215.069 281.307 215.219 281.8 215.219 282.48V284.83C215.219 285.037 215.249 285.193 215.309 285.3C215.376 285.4 215.462 285.467 215.569 285.5C215.682 285.533 215.812 285.55 215.959 285.55H215.989V286H214.119V282.59C214.119 282.157 214.042 281.823 213.889 281.59C213.742 281.35 213.479 281.23 213.099 281.23C212.846 281.23 212.636 281.3 212.469 281.44C212.302 281.573 212.179 281.76 212.099 282C212.026 282.24 211.989 282.517 211.989 282.83V284.89C211.989 285.077 212.022 285.22 212.089 285.32C212.162 285.413 212.259 285.477 212.379 285.51C212.499 285.537 212.632 285.55 212.779 285.55H212.809V286H210.019ZM219.185 286.1C218.425 286.1 217.835 285.86 217.415 285.38C217.001 284.9 216.795 284.227 216.795 283.36C216.795 282.42 216.995 281.713 217.395 281.24C217.795 280.767 218.358 280.53 219.085 280.53C219.751 280.53 220.275 280.733 220.655 281.14C221.041 281.54 221.235 282.137 221.235 282.93V283.4H217.925C217.938 283.873 217.998 284.263 218.105 284.57C218.218 284.87 218.378 285.09 218.585 285.23C218.798 285.37 219.058 285.44 219.365 285.44C219.598 285.44 219.805 285.407 219.985 285.34C220.171 285.267 220.331 285.177 220.465 285.07C220.605 284.957 220.715 284.837 220.795 284.71C220.855 284.737 220.905 284.783 220.945 284.85C220.985 284.917 221.005 284.997 221.005 285.09C221.005 285.237 220.938 285.39 220.805 285.55C220.678 285.703 220.478 285.833 220.205 285.94C219.938 286.047 219.598 286.1 219.185 286.1ZM220.085 282.83C220.085 282.483 220.051 282.18 219.985 281.92C219.918 281.66 219.811 281.46 219.665 281.32C219.518 281.173 219.321 281.1 219.075 281.1C218.848 281.1 218.651 281.167 218.485 281.3C218.325 281.433 218.198 281.63 218.105 281.89C218.018 282.143 217.965 282.457 217.945 282.83H220.085ZM224.124 286.1C223.631 286.1 223.264 285.987 223.024 285.76C222.784 285.527 222.664 285.12 222.664 284.54V281.24H221.914V280.81C222.054 280.81 222.201 280.78 222.354 280.72C222.507 280.66 222.637 280.573 222.744 280.46C222.857 280.347 222.951 280.207 223.024 280.04C223.097 279.867 223.157 279.657 223.204 279.41H223.764V280.64H225.064V281.24H223.764V284.54C223.764 284.867 223.827 285.107 223.954 285.26C224.087 285.413 224.271 285.49 224.504 285.49C224.624 285.49 224.734 285.483 224.834 285.47C224.941 285.457 225.047 285.44 225.154 285.42V285.92C225.067 285.96 224.927 286 224.734 286.04C224.541 286.08 224.337 286.1 224.124 286.1ZM228.893 279.84C228.853 279.7 228.8 279.593 228.733 279.52C228.673 279.44 228.6 279.387 228.513 279.36C228.427 279.327 228.317 279.31 228.183 279.31H228.053V278.86H230.963V279.31H230.733C230.533 279.31 230.383 279.35 230.283 279.43C230.183 279.503 230.133 279.623 230.133 279.79C230.133 279.823 230.137 279.863 230.143 279.91C230.15 279.957 230.16 280.003 230.173 280.05C230.187 280.097 230.2 280.15 230.213 280.21L231.063 283.16C231.123 283.353 231.177 283.55 231.223 283.75C231.277 283.943 231.327 284.137 231.373 284.33C231.42 284.517 231.457 284.69 231.483 284.85C231.537 284.603 231.593 284.34 231.653 284.06C231.72 283.78 231.793 283.5 231.873 283.22L233.093 278.93H233.823L235.103 283.12C235.177 283.333 235.24 283.547 235.293 283.76C235.353 283.973 235.403 284.173 235.443 284.36C235.49 284.547 235.527 284.71 235.553 284.85C235.587 284.69 235.623 284.52 235.663 284.34C235.703 284.16 235.747 283.97 235.793 283.77C235.84 283.57 235.893 283.363 235.953 283.15L236.733 280.32C236.753 280.24 236.777 280.147 236.803 280.04C236.83 279.927 236.843 279.843 236.843 279.79C236.843 279.617 236.787 279.493 236.673 279.42C236.567 279.347 236.403 279.31 236.183 279.31H235.953V278.86H238.443V279.31H238.253C238.127 279.31 238.017 279.33 237.923 279.37C237.837 279.403 237.76 279.477 237.693 279.59C237.627 279.703 237.56 279.87 237.493 280.09L235.843 286H234.873L233.233 280.65L231.723 286H230.723L228.893 279.84ZM240.835 286.1C240.075 286.1 239.485 285.86 239.065 285.38C238.652 284.9 238.445 284.227 238.445 283.36C238.445 282.42 238.645 281.713 239.045 281.24C239.445 280.767 240.008 280.53 240.735 280.53C241.402 280.53 241.925 280.733 242.305 281.14C242.692 281.54 242.885 282.137 242.885 282.93V283.4H239.575C239.588 283.873 239.648 284.263 239.755 284.57C239.868 284.87 240.028 285.09 240.235 285.23C240.448 285.37 240.708 285.44 241.015 285.44C241.248 285.44 241.455 285.407 241.635 285.34C241.822 285.267 241.982 285.177 242.115 285.07C242.255 284.957 242.365 284.837 242.445 284.71C242.505 284.737 242.555 284.783 242.595 284.85C242.635 284.917 242.655 284.997 242.655 285.09C242.655 285.237 242.588 285.39 242.455 285.55C242.328 285.703 242.128 285.833 241.855 285.94C241.588 286.047 241.248 286.1 240.835 286.1ZM241.735 282.83C241.735 282.483 241.702 282.18 241.635 281.92C241.568 281.66 241.462 281.46 241.315 281.32C241.168 281.173 240.972 281.1 240.725 281.1C240.498 281.1 240.302 281.167 240.135 281.3C239.975 281.433 239.848 281.63 239.755 281.89C239.668 282.143 239.615 282.457 239.595 282.83H241.735ZM245.524 286.1C245.151 286.1 244.834 286.057 244.574 285.97C244.314 285.883 244.114 285.76 243.974 285.6C243.841 285.433 243.774 285.237 243.774 285.01C243.774 284.817 243.814 284.67 243.894 284.57C243.981 284.47 244.078 284.4 244.184 284.36C244.298 284.32 244.398 284.3 244.484 284.3C244.484 284.547 244.521 284.77 244.594 284.97C244.668 285.163 244.784 285.317 244.944 285.43C245.104 285.537 245.311 285.59 245.564 285.59C245.918 285.59 246.184 285.51 246.364 285.35C246.544 285.19 246.634 284.987 246.634 284.74C246.634 284.58 246.598 284.447 246.524 284.34C246.458 284.233 246.334 284.13 246.154 284.03C245.981 283.923 245.731 283.807 245.404 283.68C245.058 283.533 244.768 283.387 244.534 283.24C244.308 283.093 244.138 282.923 244.024 282.73C243.911 282.537 243.854 282.293 243.854 282C243.854 281.527 244.031 281.167 244.384 280.92C244.744 280.667 245.218 280.54 245.804 280.54C246.151 280.54 246.438 280.583 246.664 280.67C246.898 280.757 247.068 280.87 247.174 281.01C247.288 281.15 247.344 281.3 247.344 281.46C247.344 281.653 247.278 281.807 247.144 281.92C247.011 282.033 246.811 282.09 246.544 282.09C246.544 281.757 246.471 281.497 246.324 281.31C246.184 281.123 245.968 281.03 245.674 281.03C245.474 281.03 245.304 281.063 245.164 281.13C245.031 281.19 244.931 281.277 244.864 281.39C244.798 281.497 244.764 281.627 244.764 281.78C244.764 281.94 244.804 282.077 244.884 282.19C244.971 282.303 245.108 282.41 245.294 282.51C245.481 282.603 245.731 282.71 246.044 282.83C246.384 282.963 246.664 283.103 246.884 283.25C247.104 283.397 247.268 283.57 247.374 283.77C247.488 283.963 247.544 284.2 247.544 284.48C247.544 285.007 247.361 285.41 246.994 285.69C246.634 285.963 246.144 286.1 245.524 286.1ZM250.384 286.1C249.89 286.1 249.524 285.987 249.284 285.76C249.044 285.527 248.924 285.12 248.924 284.54V281.24H248.174V280.81C248.314 280.81 248.46 280.78 248.614 280.72C248.767 280.66 248.897 280.573 249.004 280.46C249.117 280.347 249.21 280.207 249.284 280.04C249.357 279.867 249.417 279.657 249.464 279.41H250.024V280.64H251.324V281.24H250.024V284.54C250.024 284.867 250.087 285.107 250.214 285.26C250.347 285.413 250.53 285.49 250.764 285.49C250.884 285.49 250.994 285.483 251.094 285.47C251.2 285.457 251.307 285.44 251.414 285.42V285.92C251.327 285.96 251.187 286 250.994 286.04C250.8 286.08 250.597 286.1 250.384 286.1ZM254.566 286.1C253.806 286.1 253.216 285.86 252.796 285.38C252.382 284.9 252.176 284.227 252.176 283.36C252.176 282.42 252.376 281.713 252.776 281.24C253.176 280.767 253.739 280.53 254.466 280.53C255.132 280.53 255.656 280.733 256.036 281.14C256.422 281.54 256.616 282.137 256.616 282.93V283.4H253.306C253.319 283.873 253.379 284.263 253.486 284.57C253.599 284.87 253.759 285.09 253.966 285.23C254.179 285.37 254.439 285.44 254.746 285.44C254.979 285.44 255.186 285.407 255.366 285.34C255.552 285.267 255.712 285.177 255.846 285.07C255.986 284.957 256.096 284.837 256.176 284.71C256.236 284.737 256.286 284.783 256.326 284.85C256.366 284.917 256.386 284.997 256.386 285.09C256.386 285.237 256.319 285.39 256.186 285.55C256.059 285.703 255.859 285.833 255.586 285.94C255.319 286.047 254.979 286.1 254.566 286.1ZM255.466 282.83C255.466 282.483 255.432 282.18 255.366 281.92C255.299 281.66 255.192 281.46 255.046 281.32C254.899 281.173 254.702 281.1 254.456 281.1C254.229 281.1 254.032 281.167 253.866 281.3C253.706 281.433 253.579 281.63 253.486 281.89C253.399 282.143 253.346 282.457 253.326 282.83H255.466ZM257.385 286V285.55H257.415C257.568 285.55 257.705 285.533 257.825 285.5C257.951 285.467 258.048 285.4 258.115 285.3C258.188 285.193 258.225 285.037 258.225 284.83V281.77C258.225 281.57 258.188 281.423 258.115 281.33C258.041 281.23 257.945 281.167 257.825 281.14C257.711 281.107 257.581 281.09 257.435 281.09H257.405V280.64H259.075L259.265 281.57H259.315C259.401 281.37 259.495 281.193 259.595 281.04C259.701 280.88 259.838 280.757 260.005 280.67C260.178 280.577 260.408 280.53 260.695 280.53C261.068 280.53 261.345 280.597 261.525 280.73C261.705 280.863 261.795 281.05 261.795 281.29C261.795 281.523 261.711 281.713 261.545 281.86C261.385 282 261.128 282.07 260.775 282.07C260.775 281.883 260.758 281.733 260.725 281.62C260.691 281.5 260.638 281.413 260.565 281.36C260.491 281.3 260.388 281.27 260.255 281.27C260.075 281.27 259.921 281.34 259.795 281.48C259.675 281.62 259.581 281.797 259.515 282.01C259.448 282.223 259.398 282.443 259.365 282.67C259.338 282.897 259.325 283.097 259.325 283.27V284.88C259.325 285.073 259.361 285.22 259.435 285.32C259.508 285.413 259.601 285.477 259.715 285.51C259.835 285.537 259.968 285.55 260.115 285.55H260.405V286H257.385ZM262.128 286V285.55H262.218C262.358 285.55 262.488 285.533 262.608 285.5C262.728 285.467 262.825 285.4 262.898 285.3C262.972 285.2 263.008 285.05 263.008 284.85V279.51C263.008 279.317 262.968 279.173 262.888 279.08C262.815 278.987 262.718 278.927 262.598 278.9C262.478 278.867 262.352 278.85 262.218 278.85H262.128V278.4H264.108V282.26C264.108 282.347 264.105 282.457 264.098 282.59C264.098 282.723 264.095 282.857 264.088 282.99C264.082 283.123 264.075 283.237 264.068 283.33C264.068 283.417 264.068 283.46 264.068 283.46L265.318 282.08C265.445 281.94 265.542 281.823 265.608 281.73C265.675 281.63 265.722 281.547 265.748 281.48C265.775 281.413 265.788 281.353 265.788 281.3C265.788 281.213 265.745 281.157 265.658 281.13C265.578 281.097 265.455 281.08 265.288 281.08V280.64H267.588V281.08C267.475 281.08 267.362 281.1 267.248 281.14C267.135 281.18 267.022 281.24 266.908 281.32C266.795 281.393 266.678 281.487 266.558 281.6C266.438 281.713 266.312 281.843 266.178 281.99L265.498 282.76L266.828 284.74C266.948 284.913 267.062 285.063 267.168 285.19C267.282 285.31 267.398 285.4 267.518 285.46C267.645 285.52 267.778 285.55 267.918 285.55H267.948V286H267.808C267.495 286 267.235 285.99 267.028 285.97C266.822 285.95 266.645 285.91 266.498 285.85C266.358 285.79 266.228 285.697 266.108 285.57C265.988 285.443 265.858 285.27 265.718 285.05L264.748 283.53L264.108 284.01V284.89C264.108 285.077 264.145 285.22 264.218 285.32C264.298 285.413 264.398 285.477 264.518 285.51C264.638 285.537 264.765 285.55 264.898 285.55H264.948V286H262.128ZM268.675 281.62C268.628 281.48 268.571 281.373 268.505 281.3C268.445 281.22 268.371 281.167 268.285 281.14C268.205 281.107 268.098 281.09 267.965 281.09H267.935V280.64H270.535V281.09H270.405C270.205 281.09 270.055 281.12 269.955 281.18C269.855 281.233 269.805 281.343 269.805 281.51C269.805 281.563 269.811 281.63 269.825 281.71C269.845 281.79 269.865 281.867 269.885 281.94L270.325 283.52C270.371 283.68 270.415 283.853 270.455 284.04C270.495 284.227 270.531 284.407 270.565 284.58C270.605 284.747 270.635 284.887 270.655 285H270.685C270.705 284.887 270.735 284.757 270.775 284.61C270.815 284.463 270.861 284.307 270.915 284.14C270.968 283.973 271.021 283.81 271.075 283.65L272.105 280.68H272.745L273.735 283.63C273.775 283.75 273.815 283.873 273.855 284C273.895 284.127 273.931 284.253 273.965 284.38C274.005 284.507 274.038 284.623 274.065 284.73C274.091 284.837 274.111 284.927 274.125 285H274.155C274.175 284.887 274.201 284.767 274.235 284.64C274.268 284.507 274.305 284.36 274.345 284.2C274.391 284.033 274.445 283.85 274.505 283.65L274.995 282.08C275.021 281.993 275.041 281.903 275.055 281.81C275.075 281.71 275.085 281.633 275.085 281.58C275.085 281.407 275.028 281.283 274.915 281.21C274.808 281.13 274.645 281.09 274.425 281.09H274.355V280.64H276.535V281.09H276.405C276.278 281.09 276.171 281.11 276.085 281.15C275.998 281.183 275.921 281.257 275.855 281.37C275.788 281.483 275.721 281.65 275.655 281.87L274.365 286H273.485L272.195 282.06L270.845 286H269.975L268.675 281.62ZM278.578 286.1C278.285 286.1 278.018 286.043 277.778 285.93C277.545 285.81 277.361 285.633 277.228 285.4C277.095 285.16 277.028 284.857 277.028 284.49C277.028 283.957 277.215 283.563 277.588 283.31C277.961 283.05 278.531 282.907 279.298 282.88L280.118 282.85V282.27C280.118 282.03 280.098 281.82 280.058 281.64C280.025 281.46 279.948 281.32 279.828 281.22C279.708 281.113 279.525 281.06 279.278 281.06C279.045 281.06 278.865 281.107 278.738 281.2C278.618 281.293 278.535 281.423 278.488 281.59C278.448 281.75 278.428 281.937 278.428 282.15C278.108 282.15 277.865 282.103 277.698 282.01C277.531 281.91 277.448 281.743 277.448 281.51C277.448 281.27 277.531 281.08 277.698 280.94C277.871 280.8 278.098 280.697 278.378 280.63C278.665 280.563 278.978 280.53 279.318 280.53C279.951 280.53 280.425 280.66 280.738 280.92C281.058 281.18 281.218 281.623 281.218 282.25V284.83C281.218 285.017 281.238 285.163 281.278 285.27C281.318 285.37 281.385 285.443 281.478 285.49C281.571 285.53 281.691 285.55 281.838 285.55H281.868V286H280.378L280.208 285.19H280.118C279.978 285.37 279.841 285.53 279.708 285.67C279.575 285.803 279.421 285.91 279.248 285.99C279.075 286.063 278.851 286.1 278.578 286.1ZM278.898 285.45C279.151 285.45 279.368 285.397 279.548 285.29C279.728 285.177 279.868 285.017 279.968 284.81C280.068 284.603 280.118 284.363 280.118 284.09V283.3L279.528 283.33C279.181 283.343 278.908 283.4 278.708 283.5C278.508 283.593 278.365 283.727 278.278 283.9C278.198 284.073 278.158 284.287 278.158 284.54C278.158 284.74 278.185 284.91 278.238 285.05C278.291 285.183 278.371 285.283 278.478 285.35C278.591 285.417 278.731 285.45 278.898 285.45ZM282.561 286V285.55H282.591C282.744 285.55 282.881 285.533 283.001 285.5C283.127 285.467 283.224 285.4 283.291 285.3C283.364 285.193 283.401 285.037 283.401 284.83V281.77C283.401 281.57 283.364 281.423 283.291 281.33C283.217 281.23 283.121 281.167 283.001 281.14C282.887 281.107 282.757 281.09 282.611 281.09H282.581V280.64H284.251L284.441 281.57H284.491C284.577 281.37 284.671 281.193 284.771 281.04C284.877 280.88 285.014 280.757 285.181 280.67C285.354 280.577 285.584 280.53 285.871 280.53C286.244 280.53 286.521 280.597 286.701 280.73C286.881 280.863 286.971 281.05 286.971 281.29C286.971 281.523 286.887 281.713 286.721 281.86C286.561 282 286.304 282.07 285.951 282.07C285.951 281.883 285.934 281.733 285.901 281.62C285.867 281.5 285.814 281.413 285.741 281.36C285.667 281.3 285.564 281.27 285.431 281.27C285.251 281.27 285.097 281.34 284.971 281.48C284.851 281.62 284.757 281.797 284.691 282.01C284.624 282.223 284.574 282.443 284.541 282.67C284.514 282.897 284.501 283.097 284.501 283.27V284.88C284.501 285.073 284.537 285.22 284.611 285.32C284.684 285.413 284.777 285.477 284.891 285.51C285.011 285.537 285.144 285.55 285.291 285.55H285.581V286H282.561ZM289.534 286.1C289.041 286.1 288.674 285.987 288.434 285.76C288.194 285.527 288.074 285.12 288.074 284.54V281.24H287.324V280.81C287.464 280.81 287.611 280.78 287.764 280.72C287.917 280.66 288.047 280.573 288.154 280.46C288.267 280.347 288.361 280.207 288.434 280.04C288.507 279.867 288.567 279.657 288.614 279.41H289.174V280.64H290.474V281.24H289.174V284.54C289.174 284.867 289.237 285.107 289.364 285.26C289.497 285.413 289.681 285.49 289.914 285.49C290.034 285.49 290.144 285.483 290.244 285.47C290.351 285.457 290.457 285.44 290.564 285.42V285.92C290.477 285.96 290.337 286 290.144 286.04C289.951 286.08 289.747 286.1 289.534 286.1ZM291.006 286V285.55H291.136C291.269 285.55 291.396 285.537 291.516 285.51C291.636 285.477 291.733 285.413 291.806 285.32C291.886 285.22 291.926 285.077 291.926 284.89V281.75C291.926 281.557 291.886 281.413 291.806 281.32C291.733 281.227 291.636 281.167 291.516 281.14C291.396 281.107 291.269 281.09 291.136 281.09H291.086V280.64H293.026V284.85C293.026 285.05 293.063 285.2 293.136 285.3C293.209 285.4 293.306 285.467 293.426 285.5C293.553 285.533 293.683 285.55 293.816 285.55H293.946V286H291.006ZM292.436 279.67C292.249 279.67 292.093 279.62 291.966 279.52C291.846 279.42 291.786 279.253 291.786 279.02C291.786 278.78 291.849 278.613 291.976 278.52C292.103 278.42 292.256 278.37 292.436 278.37C292.609 278.37 292.759 278.42 292.886 278.52C293.019 278.613 293.086 278.78 293.086 279.02C293.086 279.253 293.019 279.42 292.886 279.52C292.759 279.62 292.609 279.67 292.436 279.67ZM297.007 286.1C296.247 286.1 295.657 285.86 295.237 285.38C294.824 284.9 294.617 284.227 294.617 283.36C294.617 282.42 294.817 281.713 295.217 281.24C295.617 280.767 296.18 280.53 296.907 280.53C297.574 280.53 298.097 280.733 298.477 281.14C298.864 281.54 299.057 282.137 299.057 282.93V283.4H295.747C295.76 283.873 295.82 284.263 295.927 284.57C296.04 284.87 296.2 285.09 296.407 285.23C296.62 285.37 296.88 285.44 297.187 285.44C297.42 285.44 297.627 285.407 297.807 285.34C297.994 285.267 298.154 285.177 298.287 285.07C298.427 284.957 298.537 284.837 298.617 284.71C298.677 284.737 298.727 284.783 298.767 284.85C298.807 284.917 298.827 284.997 298.827 285.09C298.827 285.237 298.76 285.39 298.627 285.55C298.5 285.703 298.3 285.833 298.027 285.94C297.76 286.047 297.42 286.1 297.007 286.1ZM297.907 282.83C297.907 282.483 297.874 282.18 297.807 281.92C297.74 281.66 297.634 281.46 297.487 281.32C297.34 281.173 297.144 281.1 296.897 281.1C296.67 281.1 296.474 281.167 296.307 281.3C296.147 281.433 296.02 281.63 295.927 281.89C295.84 282.143 295.787 282.457 295.767 282.83H297.907ZM299.826 286V285.55H299.856C300.009 285.55 300.146 285.533 300.266 285.5C300.393 285.467 300.489 285.4 300.556 285.3C300.629 285.193 300.666 285.037 300.666 284.83V281.77C300.666 281.57 300.629 281.423 300.556 281.33C300.483 281.23 300.386 281.167 300.266 281.14C300.153 281.107 300.023 281.09 299.876 281.09H299.846V280.64H301.516L301.706 281.57H301.756C301.843 281.37 301.936 281.193 302.036 281.04C302.143 280.88 302.279 280.757 302.446 280.67C302.619 280.577 302.849 280.53 303.136 280.53C303.509 280.53 303.786 280.597 303.966 280.73C304.146 280.863 304.236 281.05 304.236 281.29C304.236 281.523 304.153 281.713 303.986 281.86C303.826 282 303.569 282.07 303.216 282.07C303.216 281.883 303.199 281.733 303.166 281.62C303.133 281.5 303.079 281.413 303.006 281.36C302.933 281.3 302.829 281.27 302.696 281.27C302.516 281.27 302.363 281.34 302.236 281.48C302.116 281.62 302.023 281.797 301.956 282.01C301.889 282.223 301.839 282.443 301.806 282.67C301.779 282.897 301.766 283.097 301.766 283.27V284.88C301.766 285.073 301.803 285.22 301.876 285.32C301.949 285.413 302.043 285.477 302.156 285.51C302.276 285.537 302.409 285.55 302.556 285.55H302.846V286H299.826Z" fill="black"/>
<path d="M204.268 326V323.792L207.988 319.784C208.692 319.048 209.276 318.376 209.74 317.768C210.204 317.16 210.564 316.592 210.82 316.064C211.092 315.52 211.284 314.984 211.396 314.456C211.524 313.928 211.588 313.368 211.588 312.776C211.588 312.168 211.5 311.656 211.324 311.24C211.164 310.824 210.932 310.512 210.628 310.304C210.324 310.096 209.94 309.992 209.476 309.992C208.868 309.992 208.388 310.152 208.036 310.472C207.7 310.792 207.46 311.248 207.316 311.84C207.188 312.416 207.124 313.112 207.124 313.928C206.596 313.928 206.124 313.864 205.708 313.736C205.308 313.592 204.996 313.368 204.771 313.064C204.548 312.76 204.436 312.36 204.436 311.864C204.436 311.256 204.62 310.712 204.988 310.232C205.372 309.736 205.94 309.344 206.692 309.056C207.444 308.768 208.372 308.624 209.476 308.624C210.612 308.624 211.572 308.784 212.356 309.104C213.14 309.424 213.732 309.888 214.132 310.496C214.548 311.088 214.756 311.792 214.756 312.608C214.756 313.056 214.692 313.496 214.564 313.928C214.436 314.36 214.244 314.8 213.988 315.248C213.732 315.696 213.396 316.184 212.98 316.712C212.564 317.224 212.052 317.792 211.444 318.416C210.852 319.04 210.164 319.736 209.38 320.504L206.355 323.624H211.924C212.5 323.624 212.94 323.472 213.244 323.168C213.564 322.848 213.796 322.432 213.94 321.92L214.084 321.296H215.356L215.236 326H204.268ZM223.314 326.24C221.906 326.24 220.778 325.872 219.93 325.136C219.082 324.4 218.466 323.368 218.082 322.04C217.698 320.712 217.506 319.16 217.506 317.384C217.506 315.608 217.698 314.064 218.082 312.752C218.466 311.44 219.082 310.424 219.93 309.704C220.778 308.984 221.914 308.624 223.338 308.624C224.682 308.624 225.77 308.984 226.602 309.704C227.45 310.424 228.074 311.448 228.474 312.776C228.89 314.088 229.098 315.632 229.098 317.408C229.098 319.184 228.89 320.736 228.474 322.064C228.074 323.376 227.45 324.4 226.602 325.136C225.754 325.872 224.658 326.24 223.314 326.24ZM223.314 324.776C223.81 324.776 224.218 324.616 224.538 324.296C224.874 323.96 225.13 323.48 225.306 322.856C225.498 322.216 225.634 321.44 225.714 320.528C225.794 319.616 225.834 318.576 225.834 317.408C225.834 316.24 225.794 315.208 225.714 314.312C225.65 313.4 225.522 312.632 225.33 312.008C225.138 311.384 224.874 310.912 224.538 310.592C224.218 310.256 223.818 310.088 223.338 310.088C222.842 310.088 222.426 310.256 222.09 310.592C221.754 310.912 221.49 311.384 221.298 312.008C221.106 312.632 220.97 313.4 220.89 314.312C220.81 315.208 220.77 316.24 220.77 317.408C220.77 318.576 220.81 319.616 220.89 320.528C220.97 321.44 221.106 322.216 221.298 322.856C221.49 323.48 221.746 323.96 222.066 324.296C222.402 324.616 222.818 324.776 223.314 324.776ZM231.08 326V323.792L234.8 319.784C235.504 319.048 236.088 318.376 236.552 317.768C237.016 317.16 237.376 316.592 237.632 316.064C237.904 315.52 238.096 314.984 238.208 314.456C238.336 313.928 238.4 313.368 238.4 312.776C238.4 312.168 238.312 311.656 238.136 311.24C237.976 310.824 237.744 310.512 237.44 310.304C237.136 310.096 236.752 309.992 236.288 309.992C235.68 309.992 235.2 310.152 234.848 310.472C234.512 310.792 234.272 311.248 234.128 311.84C234 312.416 233.936 313.112 233.936 313.928C233.408 313.928 232.936 313.864 232.52 313.736C232.12 313.592 231.808 313.368 231.584 313.064C231.36 312.76 231.248 312.36 231.248 311.864C231.248 311.256 231.432 310.712 231.8 310.232C232.184 309.736 232.752 309.344 233.504 309.056C234.256 308.768 235.184 308.624 236.288 308.624C237.424 308.624 238.384 308.784 239.168 309.104C239.952 309.424 240.544 309.888 240.944 310.496C241.36 311.088 241.568 311.792 241.568 312.608C241.568 313.056 241.504 313.496 241.376 313.928C241.248 314.36 241.056 314.8 240.8 315.248C240.544 315.696 240.208 316.184 239.792 316.712C239.376 317.224 238.864 317.792 238.256 318.416C237.664 319.04 236.976 319.736 236.192 320.504L233.168 323.624H238.736C239.312 323.624 239.752 323.472 240.056 323.168C240.376 322.848 240.608 322.432 240.752 321.92L240.896 321.296H242.168L242.048 326H231.08ZM248.038 326V324.824H248.71C249.078 324.824 249.406 324.784 249.694 324.704C249.998 324.624 250.238 324.464 250.414 324.224C250.59 323.968 250.678 323.592 250.678 323.096V321.44H243.766V320.168L250.798 308.864H253.726V319.952H256.414V321.44H253.726V323.096C253.726 323.592 253.814 323.968 253.99 324.224C254.166 324.464 254.406 324.624 254.71 324.704C255.014 324.784 255.342 324.824 255.694 324.824H256.006V326H248.038ZM245.446 319.952H250.678V315.656C250.678 315.304 250.678 314.936 250.678 314.552C250.694 314.152 250.702 313.744 250.702 313.328C250.718 312.912 250.734 312.504 250.75 312.104C250.782 311.688 250.814 311.296 250.846 310.928C250.766 311.104 250.638 311.352 250.462 311.672C250.302 311.992 250.118 312.336 249.91 312.704C249.702 313.072 249.502 313.416 249.31 313.736C249.118 314.04 248.966 314.28 248.854 314.456L245.446 319.952Z" fill="#0AB52F"/>
<rect x="130" y="411" width="200" height="2.44445" fill="black"/>
<rect x="130" y="415.889" width="200" height="6.11112" fill="black"/>
<rect x="130" y="122" width="200" height="6.11111" fill="black"/>
<rect x="130" y="130.556" width="200" height="2.44444" fill="black"/>
<rect x="69.075" y="118.313" width="61.8368" height="6.18921" transform="rotate(3.29554 69.075 118.313)" fill="black"/>
<rect x="68.5769" y="126.964" width="61.8368" height="2.47569" transform="rotate(3.29554 68.5769 126.964)" fill="black"/>
<rect width="61.8368" height="6.45738" transform="matrix(-0.998346 0.0574863 0.0574863 0.998346 390.735 118)" fill="black"/>
<rect width="61.8368" height="2.58295" transform="matrix(-0.998346 0.0574863 0.0574863 0.998346 391.254 127.025)" fill="black"/>
<rect width="66.755" height="6.18921" transform="matrix(0.967841 -0.251563 -0.251563 -0.967841 329.803 422.338)" fill="black"/>
<rect width="66.755" height="2.47569" transform="matrix(0.967841 -0.251563 -0.251563 -0.967841 327.623 413.952)" fill="black"/>
<rect width="66.215" height="6.45738" transform="matrix(0.967853 0.251517 0.251517 -0.967853 65.5381 405.83)" fill="black"/>
<rect width="66.215" height="2.58295" transform="matrix(0.967853 0.251517 0.251517 -0.967853 67.8119 397.081)" fill="black"/>
</g>
<defs>
<filter id="filter0_i_1_5" x="90" y="81.25" width="280" height="18.75" filterUnits="userSpaceOnUse" color-interpolation-filters="sRGB">
<feFlood flood-opacity="0" result="BackgroundImageFix"/>
<feBlend mode="normal" in="SourceGraphic" in2="BackgroundImageFix" result="shape"/>
<feColorMatrix in="SourceAlpha" type="matrix" values="0 0 0 0 0 0 0 0 0 0 0 0 0 0 0 0 0 0 127 0" result="hardAlpha"/>
<feOffset/>
<feGaussianBlur stdDeviation="2"/>
<feComposite in2="hardAlpha" operator="arithmetic" k2="-1" k3="1"/>
<feColorMatrix type="matrix" values="0 0 0 0 0 0 0 0 0 0 0 0 0 0 0 0 0 0 0.25 0"/>
<feBlend mode="normal" in2="shape" result="effect1_innerShadow_1_5"/>
</filter>
<filter id="filter1_i_1_5" x="90" y="75" width="280" height="10.25" filterUnits="userSpaceOnUse" color-interpolation-filters="sRGB">
<feFlood flood-opacity="0" result="BackgroundImageFix"/>
<feBlend mode="normal" in="SourceGraphic" in2="BackgroundImageFix" result="shape"/>
<feColorMatrix in="SourceAlpha" type="matrix" values="0 0 0 0 0 0 0 0 0 0 0 0 0 0 0 0 0 0 127 0" result="hardAlpha"/>
<feOffset dy="4"/>
<feGaussianBlur stdDeviation="2"/>
<feComposite in2="hardAlpha" operator="arithmetic" k2="-1" k3="1"/>
<feColorMatrix type="matrix" values="0 0 0 0 0 0 0 0 0 0 0 0 0 0 0 0 0 0 0.25 0"/>
<feBlend mode="normal" in2="shape" result="effect1_innerShadow_1_5"/>
</filter>
<filter id="filter2_i_1_5" x="50" y="25" width="360" height="54" filterUnits="userSpaceOnUse" color-interpolation-filters="sRGB">
<feFlood flood-opacity="0" result="BackgroundImageFix"/>
<feBlend mode="normal" in="SourceGraphic" in2="BackgroundImageFix" result="shape"/>
<feColorMatrix in="SourceAlpha" type="matrix" values="0 0 0 0 0 0 0 0 0 0 0 0 0 0 0 0 0 0 127 0" result="hardAlpha"/>
<feOffset dy="4"/>
<feGaussianBlur stdDeviation="2"/>
<feComposite in2="hardAlpha" operator="arithmetic" k2="-1" k3="1"/>
<feColorMatrix type="matrix" values="0 0 0 0 0 0 0 0 0 0 0 0 0 0 0 0 0 0 0.25 0"/>
<feBlend mode="normal" in2="shape" result="effect1_innerShadow_1_5"/>
</filter>
<filter id="filter3_i_1_5" x="130" y="90" width="200" height="360" filterUnits="userSpaceOnUse" color-interpolation-filters="sRGB">
<feFlood flood-opacity="0" result="BackgroundImageFix"/>
<feBlend mode="normal" in="SourceGraphic" in2="BackgroundImageFix" result="shape"/>
<feColorMatrix in="SourceAlpha" type="matrix" values="0 0 0 0 0 0 0 0 0 0 0 0 0 0 0 0 0 0 127 0" result="hardAlpha"/>
<feOffset/>
<feGaussianBlur stdDeviation="3"/>
<feComposite in2="hardAlpha" operator="arithmetic" k2="-1" k3="1"/>
<feColorMatrix type="matrix" values="0 0 0 0 0 0 0 0 0 0 0 0 0 0 0 0 0 0 0.25 0"/>
<feBlend mode="normal" in2="shape" result="effect1_innerShadow_1_5"/>
</filter>
<filter id="filter4_i_1_5" x="50" y="85.3865" width="80" height="364.614" filterUnits="userSpaceOnUse" color-interpolation-filters="sRGB">
<feFlood flood-opacity="0" result="BackgroundImageFix"/>
<feBlend mode="normal" in="SourceGraphic" in2="BackgroundImageFix" result="shape"/>
<feColorMatrix in="SourceAlpha" type="matrix" values="0 0 0 0 0 0 0 0 0 0 0 0 0 0 0 0 0 0 127 0" result="hardAlpha"/>
<feOffset/>
<feGaussianBlur stdDeviation="2"/>
<feComposite in2="hardAlpha" operator="arithmetic" k2="-1" k3="1"/>
<feColorMatrix type="matrix" values="0 0 0 0 0 0 0 0 0 0 0 0 0 0 0 0 0 0 0.25 0"/>
<feBlend mode="normal" in2="shape" result="effect1_innerShadow_1_5"/>
</filter>
<filter id="filter5_i_1_5" x="330" y="85.3865" width="80" height="364.614" filterUnits="userSpaceOnUse" color-interpolation-filters="sRGB">
<feFlood flood-opacity="0" result="BackgroundImageFix"/>
<feBlend mode="normal" in="SourceGraphic" in2="BackgroundImageFix" result="shape"/>
<feColorMatrix in="SourceAlpha" type="matrix" values="0 0 0 0 0 0 0 0 0 0 0 0 0 0 0 0 0 0 127 0" result="hardAlpha"/>
<feOffset/>
<feGaussianBlur stdDeviation="2"/>
<feComposite in2="hardAlpha" operator="arithmetic" k2="-1" k3="1"/>
<feColorMatrix type="matrix" values="0 0 0 0 0 0 0 0 0 0 0 0 0 0 0 0 0 0 0.25 0"/>
<feBlend mode="normal" in2="shape" result="effect1_innerShadow_1_5"/>
</filter>
<filter id="filter6_i_1_5" x="330" y="118.25" width="60" height="303.75" filterUnits="userSpaceOnUse" color-interpolation-filters="sRGB">
<feFlood flood-opacity="0" result="BackgroundImageFix"/>
<feBlend mode="normal" in="SourceGraphic" in2="BackgroundImageFix" result="shape"/>
<feColorMatrix in="SourceAlpha" type="matrix" values="0 0 0 0 0 0 0 0 0 0 0 0 0 0 0 0 0 0 127 0" result="hardAlpha"/>
<feOffset/>
<feGaussianBlur stdDeviation="1"/>
<feComposite in2="hardAlpha" operator="arithmetic" k2="-1" k3="1"/>
<feColorMatrix type="matrix" values="0 0 0 0 0 0 0 0 0 0 0 0 0 0 0 0 0 0 0.25 0"/>
<feBlend mode="normal" in2="shape" result="effect1_innerShadow_1_5"/>
</filter>
<filter id="filter7_i_1_5" x="70" y="118.25" width="60" height="303.75" filterUnits="userSpaceOnUse" color-interpolation-filters="sRGB">
<feFlood flood-opacity="0" result="BackgroundImageFix"/>
<feBlend mode="normal" in="SourceGraphic" in2="BackgroundImageFix" result="shape"/>
<feColorMatrix in="SourceAlpha" type="matrix" values="0 0 0 0 0 0 0 0 0 0 0 0 0 0 0 0 0 0 127 0" result="hardAlpha"/>
<feOffset/>
<feGaussianBlur stdDeviation="1"/>
<feComposite in2="hardAlpha" operator="arithmetic" k2="-1" k3="1"/>
<feColorMatrix type="matrix" values="0 0 0 0 0 0 0 0 0 0 0 0 0 0 0 0 0 0 0.25 0"/>
<feBlend mode="normal" in2="shape" result="effect1_innerShadow_1_5"/>
</filter>
</defs>
</svg>
